<svg xmlns="http://www.w3.org/2000/svg" xmlns:xlink="http://www.w3.org/1999/xlink" width="117.933" height="153" viewBox="0 0 117.933 153">
  <defs>
    <clipPath id="clip-path">
      <rect id="Rectángulo_15065" data-name="Rectángulo 15065" width="90.164" height="76.69" fill="none"/>
    </clipPath>
    <clipPath id="clip-path-2">
      <rect id="Rectángulo_15313" data-name="Rectángulo 15313" width="44" height="41.332" fill="#a0a603"/>
    </clipPath>
  </defs>
  <g id="Grupo_57140" data-name="Grupo 57140" transform="translate(-602.067 -10588.5)">
    <g id="Grupo_55659" data-name="Grupo 55659" transform="translate(602.067 10631.429)">
      <g id="Grupo_55659-2" data-name="Grupo 55659" clip-path="url(#clip-path)">
        <path id="Trazado_114142" data-name="Trazado 114142" d="M88.915,240.385c-.321.056-2.145.1-5.066.14-4.048.057-10.2.1-17.359.122-25.441.095-63.6.006-65.178-.262-2.674-.455-.435-5.339-.435-5.339l42.1-1.47-.006-.149,2.142.074,2.145-.074-.009.149,41.893,1.464a12.886,12.886,0,0,1,.756,1.975c.4,1.413.541,3.111-.982,3.37" transform="translate(0 -163.994)" fill="#c6c6c6"/>
        <path id="Trazado_114143" data-name="Trazado 114143" d="M98.987,24.576c-.01,0-.074-19.308-.074-19.308S99.4,0,94.521,0H28.9c-3.494,0-2.98,5.268-2.98,5.268l-.065,19.308c-.01,0,0,1.461,0,1.461l0,1.461c.01,0,.074,19.308.074,19.308s-.514,5.268,2.98,5.268H95.934c3.494,0,2.98-5.268,2.98-5.268L98.978,27.5c.01,0,0-1.461,0-1.461Z" transform="translate(-18.162)" fill="#575756"/>
        <path id="Trazado_114144" data-name="Trazado 114144" d="M102.728,32.883s-.062,17.532-.071,20.37l.015.137a5.864,5.864,0,0,1,.015.607,1.781,1.781,0,0,1-1.785,1.722H36.569a1.557,1.557,0,0,1-1.559-1.437,5.571,5.571,0,0,1,0-.892l.015-.137V11.464l-.015-.134a6.378,6.378,0,0,1,.048-1.362A1.141,1.141,0,0,1,36.191,9H101.2c.75,0,.952.22,1.017.294a3.192,3.192,0,0,1,.452,2.032l-.015.149Z" transform="translate(-24.584 -6.322)" fill="#fff"/>
        <path id="Trazado_114145" data-name="Trazado 114145" d="M198.155,127.465c-.362-.127-.793.22-.987.5a1.138,1.138,0,0,0-.123,1.178.122.122,0,0,0,.225-.061,1.568,1.568,0,0,1,.209-.963c.194-.259.482-.314.713-.509a.087.087,0,0,0-.038-.144" transform="translate(-138.352 -89.531)" fill="#bde4ff"/>
        <path id="Trazado_114146" data-name="Trazado 114146" d="M30.367,4.933c-.911.517-.915,1.628-.929,2.559-.028,1.832-.006,12.724.054,16.338a.185.185,0,0,0,.369,0c-.056-3.218-.146-15.957-.133-16.731a2.316,2.316,0,0,1,.731-2.007.092.092,0,0,0-.093-.159" transform="translate(-20.673 -3.456)" fill="#878787"/>
        <path id="Trazado_114147" data-name="Trazado 114147" d="M73.429,172.316c-.683.006-3.813-.05-3.014,1.253a.181.181,0,0,0,.294-.021.871.871,0,0,0,.648.126,2.383,2.383,0,0,0,.665-.083.2.2,0,0,0,.116.2,4.708,4.708,0,0,0,2.8.077,3.751,3.751,0,0,0,.7-.151,1.4,1.4,0,0,0,.725-.058H76.4a1,1,0,0,0,.32.074l.034.014,0,.029a.236.236,0,0,0,.248.212l.059,0c.123-.008.247-.087.246-.2.141.024.294-.038.272-.192-.213-1.461-2.921-1.28-4.151-1.27" transform="translate(-49.379 -121.052)" fill="#878787"/>
        <path id="Trazado_114148" data-name="Trazado 114148" d="M216.731,172.316c-.684.006-3.813-.05-3.015,1.253a.181.181,0,0,0,.294-.021.871.871,0,0,0,.648.126,2.382,2.382,0,0,0,.665-.083.2.2,0,0,0,.116.2,4.708,4.708,0,0,0,2.8.077,3.759,3.759,0,0,0,.7-.151,1.4,1.4,0,0,0,.725-.058h.034a1,1,0,0,0,.32.074l.034.014,0,.029a.236.236,0,0,0,.247.212l.06,0c.122-.008.247-.087.245-.2.141.024.294-.038.272-.192-.213-1.461-2.921-1.28-4.151-1.27" transform="translate(-150.055 -121.052)" fill="#878787"/>
        <path id="Trazado_114149" data-name="Trazado 114149" d="M267.717,81.177c0-1.711.082-3.457-.076-5.162a.06.06,0,0,0-.121,0c-.154,1.657-.073,3.352-.077,5.015,0,1.72-.035,11.947.012,15.338a.126.126,0,0,0,.251,0c.046-3.391.014-13.52.011-15.191" transform="translate(-187.879 -53.364)" fill="#878787"/>
        <path id="Trazado_114150" data-name="Trazado 114150" d="M82.738,176.349a1.659,1.659,0,0,0-1.54-1.04H10.381a1.66,1.66,0,0,0-1.54,1.04L1.11,195.564a1.659,1.659,0,0,0,1.54,2.279h86.28a1.659,1.659,0,0,0,1.54-2.279Z" transform="translate(-0.694 -123.163)" fill="#dadada"/>
        <path id="Trazado_114151" data-name="Trazado 114151" d="M100.567,194.4H31.82a1.049,1.049,0,0,1-.979-1.428l2.267-5.854a1.048,1.048,0,0,1,.979-.672H98.3a1.047,1.047,0,0,1,.979.672l2.267,5.854a1.049,1.049,0,0,1-.979,1.428" transform="translate(-21.617 -130.989)" fill="#b2b2b2"/>
        <path id="Trazado_114152" data-name="Trazado 114152" d="M113.677,222.179c-3.5-.041-7-.2-10.5-.231.063-.409.128-.815.191-1.223a10.265,10.265,0,0,1,.772-2.963,1.492,1.492,0,0,1,.675-.765,2.212,2.212,0,0,1,.817-.134c1.237-.038,12.374.126,15.017.082a2.208,2.208,0,0,1,1.413.292,1.59,1.59,0,0,1,.471.94l.4,1.692a13.21,13.21,0,0,1,.4,2.309c-1.14.006-7.568.027-9.646,0" transform="translate(-72.487 -152.352)" fill="#ededed"/>
        <path id="Trazado_114153" data-name="Trazado 114153" d="M122.739,235.53a4.168,4.168,0,0,1-.054.624,1.4,1.4,0,0,1-.3.744,2.23,2.23,0,0,1-1.5.488,128.115,128.115,0,0,1-17.264.062,1.534,1.534,0,0,1-1.143-.4,1.083,1.083,0,0,1-.1-.841c.05-.329.1-.662.157-.991,3.509.21,7.047.22,10.557.267,2.024.027,8.456.06,9.652.046" transform="translate(-71.896 -165.251)" fill="#ededed"/>
        <path id="Trazado_114154" data-name="Trazado 114154" d="M48.433,244.9c-2.732,0-5.466.227-8.2.251-1.368.012-2.736,0-4.1-.025s-2.743-.154-4.1-.085c-.119.006-.162.2-.03.221a32.663,32.663,0,0,0,4.13.245c1.367.041,2.736.053,4.1.047a64.054,64.054,0,0,0,8.239-.369c.165-.022.121-.285-.038-.285" transform="translate(-22.424 -172.055)" fill="#ededed"/>
        <path id="Trazado_114155" data-name="Trazado 114155" d="M271.652,195.653a43.564,43.564,0,0,0-1.746-4.727q-.938-2.418-1.913-4.822a27.2,27.2,0,0,0-1.83-4.207,2.58,2.58,0,0,0-2.66-1.444.131.131,0,0,0,.035.256c1.754.071,2.405,1.559,2.994,2.978.571,1.375,2.754,6.815,3.277,8.158.507,1.3.93,2.678,1.557,3.928.082.162.33.048.287-.121" transform="translate(-185.058 -126.737)" fill="#ededed"/>
        <path id="Trazado_114156" data-name="Trazado 114156" d="M102.673,11.324l-.015.149,0,.1H35.027v-.113l-.015-.134a6.358,6.358,0,0,1,.048-1.362A1.141,1.141,0,0,1,36.193,9H101.2c.749,0,.952.22,1.017.294a3.189,3.189,0,0,1,.452,2.032" transform="translate(-24.585 -6.322)" fill="#7dc4f5"/>
        <path id="Trazado_114157" data-name="Trazado 114157" d="M39.085,11.3a.634.634,0,1,1,.634.634.634.634,0,0,1-.634-.634" transform="translate(-27.459 -7.493)" fill="#011948"/>
        <path id="Trazado_114158" data-name="Trazado 114158" d="M46.338,11.3a.634.634,0,1,1,.634.634.634.634,0,0,1-.634-.634" transform="translate(-32.555 -7.493)" fill="#e54898"/>
        <path id="Trazado_114159" data-name="Trazado 114159" d="M53.59,11.3a.634.634,0,1,1,.634.634.634.634,0,0,1-.634-.634" transform="translate(-37.65 -7.493)" fill="#fff"/>
        <path id="Trazado_114160" data-name="Trazado 114160" d="M186.149,60.283s-.062,17.532-.071,20.37l.015.137a5.864,5.864,0,0,1,.015.607,1.782,1.782,0,0,1-1.785,1.722h-30.59c.38-.363.788-.687,1.115-.949a45.251,45.251,0,0,0,4.908-4.48,41.144,41.144,0,0,0,4.542-5.848,3.871,3.871,0,0,0,.732-1.752,15.163,15.163,0,0,0-.506-2.507c-.256-2.531,2.734-4.774,4.34-6.306,4.242-4.048,8.826-7.838,13.385-11.523A6.075,6.075,0,0,1,185.858,48a2.4,2.4,0,0,1,.253.012Z" transform="translate(-108.005 -33.721)" fill="#f2f2f2"/>
        <path id="Trazado_114161" data-name="Trazado 114161" d="M222.622,251.067c.054.217.1.435.142.649a9.361,9.361,0,0,1,.128,1.324c7.159-.024,13.311-.065,17.359-.122a16.694,16.694,0,0,0,0-1.85Z" transform="translate(-156.403 -176.387)" fill="#9d9d9c"/>
        <path id="Trazado_114162" data-name="Trazado 114162" d="M237.363,228.62a3.4,3.4,0,0,0-.774-.529c-1.065-.529-2.222-.559-2.823-1.719-.464-.892-.562-1.951-1.984-1.7a14.065,14.065,0,0,0-2.43,1.077,14.843,14.843,0,0,1-3.721.425,7.882,7.882,0,0,0-3.212,1.095,4.138,4.138,0,0,0-.988.8,2.493,2.493,0,0,0-.333.467c-.642,1.2-.1,2.6.244,3.965h17.627a8.043,8.043,0,0,0-.208-1.413,4.906,4.906,0,0,0-1.4-2.463" transform="translate(-155.122 -157.815)" fill="#bdbdbd"/>
        <path id="Trazado_114163" data-name="Trazado 114163" d="M73.5,186.448c-1.362.946-2.609,2.15-4.191,2.632-.11.036-.217-.125-.119-.2.982-.788,2.136-1.359,3.132-2.145q.178-.139.357-.286Z" transform="translate(-48.583 -130.989)" fill="#c6c6c6"/>
        <path id="Trazado_114164" data-name="Trazado 114164" d="M91.362,186.448c-.428.306-.86.6-1.267.883-1.118.788-2.27,1.535-3.415,2.284-1.181.771-2.356,1.547-3.489,2.386-1.011.747-1.927,1.594-2.888,2.4h-.559a17.463,17.463,0,0,1,2.921-2.576c1.121-.851,2.29-1.636,3.465-2.412,1.211-.8,2.433-1.588,3.623-2.421.247-.173.491-.354.729-.544Z" transform="translate(-56.023 -130.989)" fill="#c6c6c6"/>
        <path id="Trazado_114165" data-name="Trazado 114165" d="M122.847,195.01a9.66,9.66,0,0,0-4.056,2.655c-.076.1.066.208.159.159.694-.367,1.3-.9,1.965-1.314a22.746,22.746,0,0,1,2.1-1.1c.22-.106.063-.49-.168-.4" transform="translate(-83.441 -136.994)" fill="#c6c6c6"/>
        <path id="Trazado_114166" data-name="Trazado 114166" d="M175.871,204.985c-.869.708-1.758,1.535-2.709,2.189h-.7a29.274,29.274,0,0,1,3.1-2.5c.217-.17.527.128.306.306" transform="translate(-121.163 -143.761)" fill="#c6c6c6"/>
        <path id="Trazado_114167" data-name="Trazado 114167" d="M174.736,186.448a9.247,9.247,0,0,1-1.455,1.19A9.724,9.724,0,0,1,171.122,189c-.128.054-.235-.143-.134-.229.577-.5,1.25-.889,1.859-1.347.372-.277.744-.648,1.133-.973Z" transform="translate(-120.099 -130.989)" fill="#c6c6c6"/>
        <path id="Trazado_114168" data-name="Trazado 114168" d="M101.442,188.1c-3.146-.223-6.348-.068-9.5-.07H90.666c-.119-.358-.235-.717-.355-1.074-.133-.394-.253-.838-.377-1.3q4.617-.056,9.231-.186a.121.121,0,0,0,0-.242q-4.7-.138-9.4-.187a7.731,7.731,0,0,0-1.087-2.53.225.225,0,0,0-.389.228,13.338,13.338,0,0,1,.8,2.3q-2.283-.025-4.566-.037a19.877,19.877,0,0,0-.967-2.661.143.143,0,0,0-.264.071A15.58,15.58,0,0,0,83.812,185q-1.441-.006-2.881-.011c-.293-.945-.607-1.874-.952-2.767a.158.158,0,0,0-.3.084c.12.883.276,1.781.457,2.683q-1.615,0-3.23,0a14.089,14.089,0,0,0-.917-3.008c-.028-.062-.12-.027-.121.033a13.571,13.571,0,0,0,.339,2.975l-3.158,0a17.717,17.717,0,0,0-.394-2.78c-.025-.1-.2-.114-.22,0a14.749,14.749,0,0,0-.106,2.781l-2.96.005c-.057-.9-.133-1.8-.239-2.681a.2.2,0,0,0-.409,0c-.081.88-.125,1.778-.144,2.682l-2.782,0a15.668,15.668,0,0,0-.3-2.878c-.036-.165-.257-.108-.274.037A19.63,19.63,0,0,0,65.149,185h-2.9a18.4,18.4,0,0,0-.03-3.215c-.02-.17-.272-.236-.319-.043A16.965,16.965,0,0,0,61.487,185l-3.275,0a23.564,23.564,0,0,0-.293-3.1c-.024-.142-.271-.146-.291,0a25.932,25.932,0,0,0-.187,3.1l-3.267,0a12.866,12.866,0,0,0-.121-3.022.152.152,0,0,0-.291,0,18.4,18.4,0,0,0-.323,3.02l-3.2-.007a17.469,17.469,0,0,0,.124-2.818.142.142,0,0,0-.278-.037,15.9,15.9,0,0,0-.524,2.855l-3.03-.007a17.014,17.014,0,0,0,.281-3.034.14.14,0,0,0-.274-.037,17.6,17.6,0,0,0-.652,3.07l-3.241-.005a25.146,25.146,0,0,0,.153-2.65c0-.142-.23-.183-.256-.035-.156.891-.285,1.788-.414,2.684l-3.046-.005c.147-.919.261-1.831.334-2.715.016-.2-.295-.234-.342-.046-.231.913-.419,1.836-.607,2.76-.5,0-2.391-.007-2.84-.013a12.848,12.848,0,0,0,.536-3.242.142.142,0,0,0-.278-.037c-.238,1.1-.536,2.19-.854,3.27-.892-.015-1.787-.032-2.682-.038a24.566,24.566,0,0,0,.78-2.759c.03-.143-.182-.255-.251-.106a25.436,25.436,0,0,0-1.079,2.864c-1.245,0-2.487.032-3.714.144a.307.307,0,0,0,0,.613c1.133.1,2.278.139,3.427.144-.145.46-.611,1.883-.7,2.139-1.6-.011-3.2.006-4.778.123a.325.325,0,0,0,0,.651c1.48.11,2.973.131,4.467.124-.471,1.352-.945,2.71-1.293,4.089a.193.193,0,0,0,.372.1c.562-1.36,1-2.783,1.444-4.194.944-.009,1.888-.024,2.829-.036-.362,1.2-.7,2.4-.977,3.628a.2.2,0,0,0,.385.106c.484-1.21.863-2.477,1.229-3.741.349,0,2.4-.006,3.074-.006-.3,1.081-.618,2.159-.85,3.253a.226.226,0,0,0,.435.12,30.539,30.539,0,0,0,1.115-3.373h3.227c-.325,1.517-.742,3.025-.956,4.553a.209.209,0,0,0,.4.111,22.921,22.921,0,0,0,1.15-4.664h3.25c-.207,1.256-.419,2.515-.527,3.778a.257.257,0,0,0,.5.068c.276-1.265.455-2.557.631-3.847l3.215,0c-.153,1.333-.3,2.671-.332,4.006-.008.319.521.407.571.077.2-1.352.3-2.72.422-4.084l18.818-.013c.051,1.077.124,2.147.211,3.193a.337.337,0,0,0,.674,0c.005-1.052,0-2.121-.012-3.194l3.093,0a32.636,32.636,0,0,0,.539,4.568.327.327,0,0,0,.639-.086c-.044-1.492-.252-2.99-.421-4.482l3.635,0c.279,1.455.554,2.918.948,4.337.109.394.651.218.6-.164-.2-1.4-.518-2.788-.833-4.173l3.325,0c.352,1.3.74,2.59,1.141,3.825a.3.3,0,0,0,.578-.159c-.229-1.2-.491-2.431-.787-3.667l2.993,0a30.572,30.572,0,0,0,1.324,3.719c.149.331.661.093.574-.242-.308-1.173-.72-2.326-1.125-3.478l4.445,0q.626,1.889,1.268,3.773c.135.4.767.231.636-.175q-.58-1.8-1.17-3.6h1.037c3.153,0,6.355.152,9.5-.071a.288.288,0,0,0,0-.576M34.1,187.983c-.929-.011-1.861-.026-2.792-.036.04-.125.525-1.552.731-2.145.915,0,1.832-.02,2.745-.036-.225.74-.457,1.478-.684,2.217m3.9-.84c-.068.284-.141.568-.216.851-.749,0-2.786,0-3.057-.005.111-.383.559-1.867.668-2.231.527-.008,2.469-.016,2.914-.017-.1.469-.2.937-.31,1.4m3.686.684c-.01.056-.022.112-.032.168H38.461c.184-.747.347-1.5.483-2.254q1.533,0,3.066-.005c-.1.7-.208,1.4-.333,2.092m3.868-.371c-.027.18-.056.36-.085.54H42.212l.048-.3c.107-.652.206-1.307.29-1.963,1.076,0,2.152,0,3.229-.006-.075.582-.148,1.161-.234,1.728m3.789-.263c-.029.268-.06.536-.091.8l-3.2,0c.044-.316.089-.632.136-.946.065-.438.142-.879.218-1.322l3.08-.007c-.048.5-.092.989-.145,1.473m3.963.243c-.018.188-.04.376-.062.564l-3.351,0c.008-.082.014-.164.022-.246.066-.67.157-1.35.241-2.033l3.257-.007c-.025.579-.053,1.157-.107,1.724m4.1-.583c-.015.383-.036.767-.059,1.15l-3.432,0c.008-.093.158-1.608.214-2.29l3.306,0c-.006.382-.014.764-.028,1.145m4,.216q-.024.467-.051.936l-3.174,0c.041-.765.06-1.534.053-2.3l3.229,0c-.018.458-.034.914-.057,1.364m3.817.939-3.14,0c.008-.214.014-.43.024-.643.025-.547.065-1.1.1-1.659h2.969c.021.556.042,1.11.045,1.657,0,.216,0,.431,0,.647m.639,0c-.006-.312-.038-1.845-.046-2.3l2.755,0c0,.767.009,1.536.037,2.3l-2.745,0m3.635,0c-.017-.769-.043-1.537-.083-2.3l2.958.006c.045.685.172,2.213.178,2.3l-3.053,0m3.783,0c-.019-.185-.037-.369-.054-.554-.051-.576-.085-1.161-.124-1.747l3.262,0c.119.537.241,1.069.347,1.59q.072.354.142.71l-3.573,0m4.26,0q-.1-.443-.2-.885c-.1-.462-.191-.937-.285-1.415,1.078,0,6.009-.01,6.965-.015.18.6.659,2.139.714,2.321l-7.2-.006m7.937.007c-.115-.333-.228-.666-.335-1-.14-.436-.271-.879-.4-1.323q2.261-.013,4.523-.038c.18.693.353,1.381.559,2.016.037.117.077.233.116.349l-4.46,0" transform="translate(-18.066 -127.561)" fill="#dadada"/>
        <path id="Trazado_114169" data-name="Trazado 114169" d="M155.366,2.43c-5.127-.116-10.263-.058-15.392-.051q-3.848.005-7.7.019a68.868,68.868,0,0,0-7.7.131.057.057,0,0,0,0,.114,68.867,68.867,0,0,0,7.7.131c2.565.011,17.96.085,23.087-.031a.157.157,0,0,0,0-.314" transform="translate(-87.487 -1.655)" fill="#878787"/>
      </g>
      <g id="Grupo_56384" data-name="Grupo 56384" transform="translate(23.933 8.983)">
        <g id="Grupo_56383" data-name="Grupo 56383" transform="translate(0 0)" clip-path="url(#clip-path-2)">
          <path id="Trazado_114658" data-name="Trazado 114658" d="M37.343,29.949H16.361a1.018,1.018,0,1,1,0-2.036h18.95l-7.1-9.5a1.017,1.017,0,0,1,.815-1.627h1.6l-5.281-7.07a1.018,1.018,0,0,1,.815-1.627h1.36L23.5,2.7,19.472,8.088h1.36a1.018,1.018,0,0,1,.816,1.627l-2.426,3.248a1.018,1.018,0,0,1-1.631-1.219l1.21-1.621H17.44A1.018,1.018,0,0,1,16.624,8.5L22.684.386a1.054,1.054,0,0,1,1.631,0L30.376,8.5a1.018,1.018,0,0,1-.816,1.627H28.2l5.283,7.07a1.019,1.019,0,0,1-.817,1.627h-1.6l7.1,9.5a1.018,1.018,0,0,1-.815,1.627" transform="translate(-2.846 0)" fill="#a0a603"/>
          <path id="Trazado_114659" data-name="Trazado 114659" d="M7.556,30.775a7.557,7.557,0,0,1-5-13.225,5.536,5.536,0,1,1,10.534-2.377,5.493,5.493,0,0,1-.538,2.377,7.557,7.557,0,0,1-5,13.225m0-19.1a3.494,3.494,0,0,0-2.84,5.538,1.017,1.017,0,0,1-.256,1.437,5.521,5.521,0,1,0,6.192,0A1.018,1.018,0,0,1,10.4,17.21a3.5,3.5,0,0,0-2.841-5.538" transform="translate(0 -1.787)" fill="#a0a603"/>
          <path id="Trazado_114660" data-name="Trazado 114660" d="M9.045,37.938A1.019,1.019,0,0,1,8.027,36.92V21.064a1.018,1.018,0,1,1,2.036,0V36.92a1.019,1.019,0,0,1-1.018,1.018" transform="translate(-1.489 -3.718)" fill="#a0a603"/>
          <path id="Trazado_114661" data-name="Trazado 114661" d="M41.277,32.43a1.018,1.018,0,0,1,0-2.036,7.492,7.492,0,0,0,0-14.985,7.421,7.421,0,0,0-3.137.686,1.018,1.018,0,1,1-.854-1.848,9.529,9.529,0,1,1,3.99,18.184" transform="translate(-6.806 -2.48)" fill="#a0a603"/>
          <path id="Trazado_114662" data-name="Trazado 114662" d="M42.088,38.433a1.019,1.019,0,0,1-1.018-1.018V23.734a1.018,1.018,0,0,1,2.036,0V37.415a1.019,1.019,0,0,1-1.018,1.018" transform="translate(-7.617 -4.213)" fill="#a0a603"/>
          <path id="Trazado_114663" data-name="Trazado 114663" d="M25.125,40.576a1.019,1.019,0,0,1-1.018-1.018V35.287a1.018,1.018,0,1,1,2.036,0v4.271a1.019,1.019,0,0,1-1.018,1.018" transform="translate(-4.471 -6.356)" fill="#a0a603"/>
          <path id="Trazado_114664" data-name="Trazado 114664" d="M42.121,30.019a1.018,1.018,0,0,1-.721-1.738L44.279,25.4a1.019,1.019,0,0,1,1.441,1.44L42.84,29.721a1.016,1.016,0,0,1-.719.3" transform="translate(-7.623 -4.656)" fill="#a0a603"/>
          <path id="Trazado_114665" data-name="Trazado 114665" d="M8.131,29.564a1.017,1.017,0,0,1-.72-.3l-2.488-2.49a1.018,1.018,0,1,1,1.439-1.439l2.489,2.489a1.018,1.018,0,0,1-.72,1.738" transform="translate(-0.858 -4.644)" fill="#a0a603"/>
          <path id="Trazado_114666" data-name="Trazado 114666" d="M36.987,48.875a1.016,1.016,0,0,1-.72-.3,20.066,20.066,0,0,0-28.378,0,1.018,1.018,0,0,1-1.439-1.44,22.127,22.127,0,0,1,31.258,0,1.018,1.018,0,0,1-.72,1.738" transform="translate(-1.141 -7.544)" fill="#a0a603"/>
        </g>
      </g>
    </g>
    <line id="Línea_614" data-name="Línea 614" y2="153" transform="translate(718.5 10588.5)" fill="none" stroke="#707070" stroke-width="3" stroke-dasharray="5" opacity="0.5"/>
  </g>
</svg>
