<svg xmlns="http://www.w3.org/2000/svg" xmlns:xlink="http://www.w3.org/1999/xlink" width="1076" height="321" viewBox="0 0 1076 321">
  <defs>
    <clipPath id="clip-path">
      <rect id="Rectángulo_16834" data-name="Rectángulo 16834" width="1076" height="255.28" fill="none"/>
    </clipPath>
  </defs>
  <g id="Grupo_57144" data-name="Grupo 57144" transform="translate(-422 -1590)">
    <path id="Trazado_119515" data-name="Trazado 119515" d="M1070.682,147.655H5.32c-2.927,0-5.32-1.521-5.32-3.379s2.393-3.38,5.32-3.38H1070.682c2.926,0,5.318,1.52,5.318,3.38s-2.393,3.379-5.318,3.379" transform="translate(422 1743.745)" fill="#cfcfcf"/>
    <circle id="Elipse_1278" data-name="Elipse 1278" cx="22" cy="22" r="22" transform="translate(595 1867)" fill="#a0a603"/>
    <text id="_1" data-name="1" transform="translate(608 1899)" fill="#fff" font-size="30" font-family="Helvetica-Bold, Helvetica" font-weight="700"><tspan x="0" y="0">1</tspan></text>
    <g id="Grupo_57079" data-name="Grupo 57079" transform="translate(422 1590)">
      <g id="Grupo_57078" data-name="Grupo 57078" clip-path="url(#clip-path)">
        <path id="Trazado_119289" data-name="Trazado 119289" d="M204.841,162.328l-.007-118.495a20.99,20.99,0,0,1,7-1.2,21.213,21.213,0,0,1,20.872,17.844A9.487,9.487,0,0,1,245,67.5c.236-.007.465-.035.7-.035A24.428,24.428,0,0,1,267.279,80.49a16.746,16.746,0,0,1,19.58-6.867,20.929,20.929,0,0,1,23.808-16.4c0-.078-.012-.155-.012-.233a18.193,18.193,0,0,1,34.844-7.5,20.922,20.922,0,0,1,9.322-2.2A21.261,21.261,0,0,1,376,68.624a21.564,21.564,0,0,1-.545,4.757,21.153,21.153,0,0,1,12.588,8.3,25.207,25.207,0,0,1,44.538,12.956,12.7,12.7,0,0,1,18.325,11.435c0,.259-.023.514-.038.769a6.852,6.852,0,0,1,12.3,2.3q.406-.414.842-.8a16.686,16.686,0,0,1,31.716-3.747,11.267,11.267,0,0,1,9.992-9.942,17.01,17.01,0,0,1,14.462-24.571,25.7,25.7,0,0,1-.7-5.888,25.246,25.246,0,0,1,50.091-4.7,25.426,25.426,0,0,1,3.96-.344,25.022,25.022,0,0,1,6.417.861A22.8,22.8,0,0,1,596.5,52.884a23.061,23.061,0,0,1,22.973,23.147l.005,86.274Z" transform="translate(150.822 28.438)" fill="#bee9f4"/>
        <path id="Trazado_119290" data-name="Trazado 119290" d="M286.3,87.414a7.9,7.9,0,0,1-7.9-7.893V68.266a.651.651,0,0,1,1.3,0V79.521a6.6,6.6,0,0,0,6.595,6.591.651.651,0,1,1,0,1.3" transform="translate(204.99 49.786)" fill="#144f33"/>
        <path id="Trazado_119291" data-name="Trazado 119291" d="M283.224,88.854a.651.651,0,0,1,0-1.3,6.6,6.6,0,0,0,6.589-6.591V69.706a.651.651,0,1,1,1.3,0V80.961a7.9,7.9,0,0,1-7.892,7.893" transform="translate(208.063 50.846)" fill="#144f33"/>
        <path id="Trazado_119292" data-name="Trazado 119292" d="M283.224,102.326a.651.651,0,0,1-.651-.651V70.122a.651.651,0,0,1,1.3,0v31.552a.652.652,0,0,1-.651.651" transform="translate(208.063 51.153)" fill="#144f33"/>
        <path id="Trazado_119293" data-name="Trazado 119293" d="M320.729,84.382a26.531,26.531,0,1,1-53.062,0c0-14.653,11.878-53.933,26.533-53.933s26.529,39.281,26.529,53.933" transform="translate(197.087 22.42)" fill="#448535"/>
        <path id="Trazado_119294" data-name="Trazado 119294" d="M283.224,93.232a.651.651,0,0,1-.651-.651V40.418a.651.651,0,0,1,1.3,0V92.581a.652.652,0,0,1-.651.651" transform="translate(208.063 29.281)" fill="#144f33"/>
        <path id="Trazado_119295" data-name="Trazado 119295" d="M283.224,71.818a.651.651,0,1,1,0-1.3,10.581,10.581,0,0,0,10.567-10.569.651.651,0,0,1,1.3,0,11.884,11.884,0,0,1-11.869,11.871" transform="translate(208.063 43.661)" fill="#144f33"/>
        <path id="Trazado_119296" data-name="Trazado 119296" d="M285.7,52.466a6.5,6.5,0,0,1-6.494-6.492.651.651,0,0,1,1.3,0,5.2,5.2,0,0,0,5.192,5.19.651.651,0,1,1,0,1.3" transform="translate(205.585 33.372)" fill="#144f33"/>
        <path id="Trazado_119297" data-name="Trazado 119297" d="M308.08,87.525a8.7,8.7,0,0,1-8.685-8.687V66.352a.651.651,0,0,1,1.3,0V78.838a7.392,7.392,0,0,0,7.383,7.385.651.651,0,0,1,0,1.3" transform="translate(220.449 48.377)" fill="#144f33"/>
        <path id="Trazado_119298" data-name="Trazado 119298" d="M304.673,83.988a.651.651,0,1,1,0-1.3,7.393,7.393,0,0,0,7.385-7.385V62.815a.651.651,0,0,1,1.3,0V75.3a8.7,8.7,0,0,1-8.687,8.687" transform="translate(223.856 45.772)" fill="#144f33"/>
        <path id="Trazado_119299" data-name="Trazado 119299" d="M304.673,99.286a.651.651,0,0,1-.651-.651V63.627a.651.651,0,1,1,1.3,0V98.635a.651.651,0,0,1-.651.651" transform="translate(223.856 46.37)" fill="#144f33"/>
        <path id="Trazado_119300" data-name="Trazado 119300" d="M346.315,66.586a29.435,29.435,0,1,1-29.436-29.434,29.436,29.436,0,0,1,29.436,29.434" transform="translate(211.65 27.356)" fill="#52a646"/>
        <path id="Trazado_119301" data-name="Trazado 119301" d="M304.673,75.991a.651.651,0,0,1-.651-.651V48.607a.651.651,0,1,1,1.3,0V75.339a.651.651,0,0,1-.651.651" transform="translate(223.856 35.311)" fill="#144f33"/>
        <path id="Trazado_119302" data-name="Trazado 119302" d="M304.673,63.568a.651.651,0,1,1,0-1.3,7.393,7.393,0,0,0,7.385-7.385.651.651,0,0,1,1.3,0,8.7,8.7,0,0,1-8.687,8.687" transform="translate(223.856 39.93)" fill="#144f33"/>
        <path id="Trazado_119303" data-name="Trazado 119303" d="M307.42,55.737a7.136,7.136,0,0,1-7.129-7.129.651.651,0,0,1,1.3,0,5.834,5.834,0,0,0,5.827,5.827.651.651,0,0,1,0,1.3" transform="translate(221.109 35.311)" fill="#144f33"/>
        <path id="Trazado_119304" data-name="Trazado 119304" d="M374.7,94.942a8.7,8.7,0,0,1-8.687-8.685V73.769a.651.651,0,0,1,1.3,0V86.257A7.393,7.393,0,0,0,374.7,93.64a.651.651,0,1,1,0,1.3" transform="translate(269.502 53.838)" fill="#144f33"/>
        <path id="Trazado_119305" data-name="Trazado 119305" d="M371.293,91.4a.651.651,0,0,1,0-1.3,7.393,7.393,0,0,0,7.385-7.383V70.232a.651.651,0,0,1,1.3,0V82.72a8.7,8.7,0,0,1-8.687,8.685" transform="translate(272.909 51.234)" fill="#144f33"/>
        <path id="Trazado_119306" data-name="Trazado 119306" d="M371.293,106.7a.651.651,0,0,1-.651-.651V71.044a.651.651,0,1,1,1.3,0v35.008a.651.651,0,0,1-.651.651" transform="translate(272.909 51.831)" fill="#144f33"/>
        <path id="Trazado_119307" data-name="Trazado 119307" d="M412.936,74A29.436,29.436,0,1,1,383.5,44.569,29.436,29.436,0,0,1,412.936,74" transform="translate(260.703 32.817)" fill="#52a646"/>
        <path id="Trazado_119308" data-name="Trazado 119308" d="M371.293,83.409a.651.651,0,0,1-.651-.651V56.025a.651.651,0,1,1,1.3,0V82.757a.651.651,0,0,1-.651.651" transform="translate(272.909 40.773)" fill="#144f33"/>
        <path id="Trazado_119309" data-name="Trazado 119309" d="M371.293,70.984a.651.651,0,0,1,0-1.3,7.393,7.393,0,0,0,7.385-7.383.651.651,0,0,1,1.3,0,8.7,8.7,0,0,1-8.687,8.685" transform="translate(272.909 45.392)" fill="#144f33"/>
        <path id="Trazado_119310" data-name="Trazado 119310" d="M374.04,63.154a7.135,7.135,0,0,1-7.129-7.129.651.651,0,0,1,1.3,0,5.833,5.833,0,0,0,5.827,5.827.651.651,0,1,1,0,1.3" transform="translate(270.162 40.773)" fill="#144f33"/>
        <path id="Trazado_119311" data-name="Trazado 119311" d="M395.087,102.779a7.378,7.378,0,0,1-7.369-7.371V84.968a.651.651,0,0,1,1.3,0v10.44a6.074,6.074,0,0,0,6.067,6.068.651.651,0,1,1,0,1.3" transform="translate(285.483 62.084)" fill="#144f33"/>
        <path id="Trazado_119312" data-name="Trazado 119312" d="M392.238,99.822a.651.651,0,0,1,0-1.3,6.076,6.076,0,0,0,6.068-6.068V82.011a.651.651,0,0,1,1.3,0v10.44a7.378,7.378,0,0,1-7.371,7.371" transform="translate(288.332 59.907)" fill="#144f33"/>
        <path id="Trazado_119313" data-name="Trazado 119313" d="M392.238,112.612a.651.651,0,0,1-.651-.651V82.69a.651.651,0,0,1,1.3,0v29.271a.651.651,0,0,1-.651.651" transform="translate(288.332 60.407)" fill="#144f33"/>
        <path id="Trazado_119314" data-name="Trazado 119314" d="M427.013,85.12A24.613,24.613,0,1,1,402.4,60.508,24.613,24.613,0,0,1,427.013,85.12" transform="translate(278.17 44.553)" fill="#448535"/>
        <path id="Trazado_119315" data-name="Trazado 119315" d="M392.238,93.135a.651.651,0,0,1-.651-.651V70.132a.651.651,0,0,1,1.3,0V92.484a.651.651,0,0,1-.651.651" transform="translate(288.332 51.16)" fill="#144f33"/>
        <path id="Trazado_119316" data-name="Trazado 119316" d="M392.238,82.747a.651.651,0,1,1,0-1.3,6.074,6.074,0,0,0,6.068-6.067.651.651,0,0,1,1.3,0,7.378,7.378,0,0,1-7.371,7.369" transform="translate(288.332 55.023)" fill="#144f33"/>
        <path id="Trazado_119317" data-name="Trazado 119317" d="M394.535,76.2a6.076,6.076,0,0,1-6.068-6.07.651.651,0,0,1,1.3,0,4.771,4.771,0,0,0,4.766,4.768.651.651,0,1,1,0,1.3" transform="translate(286.034 51.159)" fill="#144f33"/>
        <path id="Trazado_119318" data-name="Trazado 119318" d="M333.69,82.742A8.7,8.7,0,0,1,325,74.057V61.569a.651.651,0,0,1,1.3,0V74.057a7.393,7.393,0,0,0,7.385,7.383.651.651,0,1,1,0,1.3" transform="translate(239.305 44.855)" fill="#144f33"/>
        <path id="Trazado_119319" data-name="Trazado 119319" d="M330.282,84.34a.651.651,0,0,1,0-1.3,7.391,7.391,0,0,0,7.383-7.383V63.167a.651.651,0,0,1,1.3,0V75.655a8.7,8.7,0,0,1-8.685,8.685" transform="translate(242.712 46.032)" fill="#144f33"/>
        <path id="Trazado_119320" data-name="Trazado 119320" d="M330.282,99.286a.651.651,0,0,1-.651-.651V63.627a.651.651,0,0,1,1.3,0V98.635a.651.651,0,0,1-.651.651" transform="translate(242.712 46.37)" fill="#144f33"/>
        <path id="Trazado_119321" data-name="Trazado 119321" d="M371.923,79.478a29.435,29.435,0,1,1-58.87,0c0-16.255,13.179-59.835,29.436-59.835s29.434,43.58,29.434,59.835" transform="translate(230.506 14.463)" fill="#bdc965"/>
        <path id="Trazado_119322" data-name="Trazado 119322" d="M330.282,89.2a.651.651,0,0,1-.651-.651V30.672a.651.651,0,0,1,1.3,0V88.545a.651.651,0,0,1-.651.651" transform="translate(242.712 22.105)" fill="#144f33"/>
        <path id="Trazado_119323" data-name="Trazado 119323" d="M330.282,65.44a.651.651,0,1,1,0-1.3,11.811,11.811,0,0,0,11.8-11.8.651.651,0,1,1,1.3,0,13.116,13.116,0,0,1-13.1,13.1" transform="translate(242.712 38.059)" fill="#144f33"/>
        <path id="Trazado_119324" data-name="Trazado 119324" d="M333.03,43.966a7.138,7.138,0,0,1-7.131-7.129.651.651,0,1,1,1.3,0,5.834,5.834,0,0,0,5.829,5.827.651.651,0,1,1,0,1.3" transform="translate(239.964 26.644)" fill="#144f33"/>
        <path id="Trazado_119325" data-name="Trazado 119325" d="M574.613,23.14,441.4,232.9H732.29L599.082,23.14c-6.093-9.593-18.375-9.593-24.468,0" transform="translate(325.013 11.741)" fill="#52a646"/>
        <path id="Trazado_119326" data-name="Trazado 119326" d="M654.091,182.97,589.71,166.5c-4.78-1.222-7.478-7.173-5.66-12.484l8.9-26.012c2.116-6.187-.738-13.166-6.183-15.127l-26.031-9.032c-4-1.438-6.306-6.312-5.233-11.036l28.088-76.625a15.074,15.074,0,0,0-8.975,6.779L441.406,232.724H732.289l-67.725-30.929a6.947,6.947,0,0,1-3.742-6.409v-2.637c0-4.7-2.8-8.774-6.732-9.779" transform="translate(325.014 11.918)" fill="#448535"/>
        <path id="Trazado_119327" data-name="Trazado 119327" d="M493.868,49.048,372.376,212.659h265.3L516.185,49.048a13.9,13.9,0,0,0-22.317,0" transform="translate(274.186 31.982)" fill="#6ec45f"/>
        <path id="Trazado_119328" data-name="Trazado 119328" d="M566.354,173.713l-58.717-12.844a7.224,7.224,0,0,1-5.162-9.739l8.116-20.289a8.892,8.892,0,0,0-5.64-11.8l-14.684-4.518a7.1,7.1,0,0,1-4.773-8.609l16.561-62.294a13.759,13.759,0,0,0-8.187,5.289L372.376,212.521h265.3L575.907,188.4a5.365,5.365,0,0,1-3.414-5v-2.058a7.81,7.81,0,0,0-6.14-7.628" transform="translate(274.186 32.12)" fill="#52a646"/>
        <path id="Trazado_119329" data-name="Trazado 119329" d="M248.305,8.115,81.284,244.641H446.009L278.988,8.115a18.56,18.56,0,0,0-30.682,0" transform="translate(59.851 0.001)" fill="#52a646"/>
        <path id="Trazado_119330" data-name="Trazado 119330" d="M347.96,188.338l-80.723-18.57c-5.994-1.379-9.378-8.088-7.1-14.078l11.158-29.33c2.653-6.975-.927-14.847-7.754-17.056L230.9,99.119a10.348,10.348,0,0,1-6.562-12.444L259.561.271A18.862,18.862,0,0,0,248.3,7.914L81.283,244.442H446.01l-84.918-34.877a7.762,7.762,0,0,1-4.693-7.225v-2.974a11.173,11.173,0,0,0-8.439-11.027" transform="translate(59.85 0.2)" fill="#448535"/>
        <path id="Trazado_119331" data-name="Trazado 119331" d="M132.252,59.433,24.5,204.546H259.8L152.046,59.433a12.327,12.327,0,0,0-19.794,0" transform="translate(18.037 40.096)" fill="#52a646"/>
        <path id="Trazado_119332" data-name="Trazado 119332" d="M196.542,170l-52.077-11.392a6.406,6.406,0,0,1-4.58-8.638l7.2-17.993a7.886,7.886,0,0,0-5-10.465l-13.024-4.007a6.3,6.3,0,0,1-4.233-7.635l14.687-55.251a12.21,12.21,0,0,0-7.26,4.69L24.5,204.423H259.8l-54.784-21.4a4.758,4.758,0,0,1-3.026-4.433v-1.825A6.926,6.926,0,0,0,196.542,170" transform="translate(18.037 40.218)" fill="#448535"/>
        <path id="Trazado_119333" data-name="Trazado 119333" d="M677.611,185.227S522.956,80.848,416.035,80.841,192.007,185.227,192.007,185.227Z" transform="translate(141.378 59.524)" fill="#448535"/>
        <path id="Trazado_119334" data-name="Trazado 119334" d="M357.343,174a38.042,38.042,0,0,1,8.907-11.062c6.89-6.072,15.047-10.454,22.537-15.7,8.536-5.975,16.681-13.548,18.374-24.34,1.636-10.407-3.627-20.339-11.135-27.215-4.756-4.356-15.8-11.092-20.348-13.038a196.616,196.616,0,0,0-25.727-1.8c-.991,0-1.986.028-2.981.045a84.987,84.987,0,0,1,11.571,4.268c6.787,3.063,13.528,7.077,18.54,12.67,3.87,4.318,6.664,9.947,5.957,15.88-.6,5.025-3.639,9.237-7.383,12.479a58.6,58.6,0,0,1-15.215,8.992,173.839,173.839,0,0,1-17.884,6.435c-5.086,1.575-10.227,2.978-15.283,4.648a110.705,110.705,0,0,0-18.592,8.458c-6.961,3.853-13.576,8.532-18.707,14.675a42.159,42.159,0,0,0-8.22,15.835h72.3a32.823,32.823,0,0,1,3.29-11.23" transform="translate(207.46 59.525)" fill="#6ec45f"/>
        <path id="Trazado_119335" data-name="Trazado 119335" d="M42.669,208.079H35.874l.719-158.423H41.95Z" transform="translate(26.415 36.562)" fill="#144f33"/>
        <path id="Trazado_119336" data-name="Trazado 119336" d="M36.693,65.5V23.952a1.366,1.366,0,0,1,1.366-1.365h.847a1.707,1.707,0,0,1,1.656,1.292l6.671,26.8a6.877,6.877,0,0,1-1.452,6.14L41.253,62.1l0,2.8Z" transform="translate(27.018 16.631)" fill="#f27512"/>
        <path id="Trazado_119337" data-name="Trazado 119337" d="M40.342,47.536,78.076,64.22a1.364,1.364,0,0,1,.7,1.8l-.342.776a1.705,1.705,0,0,1-1.853.988L49.369,63.04a6.882,6.882,0,0,1-5.025-3.815l-3-6.28-2.99-1.339Z" transform="translate(28.242 35.001)" fill="#f27512"/>
        <path id="Trazado_119338" data-name="Trazado 119338" d="M53.1,52.048,18.431,72.721a1.369,1.369,0,0,1-1.873-.474l-.434-.728a1.7,1.7,0,0,1,.264-2.082L35.974,49.966a6.877,6.877,0,0,1,6.016-1.9l6.858,1.179L51.514,47.7Z" transform="translate(11.694 35.119)" fill="#f27512"/>
        <path id="Trazado_119339" data-name="Trazado 119339" d="M43.632,49.736a3.908,3.908,0,1,1-3.908-3.907,3.909,3.909,0,0,1,3.908,3.907" transform="translate(26.371 33.745)" fill="#144f33"/>
        <path id="Trazado_119340" data-name="Trazado 119340" d="M40.839,48.905a1.947,1.947,0,1,1-1.946-1.948,1.947,1.947,0,0,1,1.946,1.948" transform="translate(27.202 34.575)" fill="#26724c"/>
        <path id="Trazado_119341" data-name="Trazado 119341" d="M431.606,208.079h-6.794l.719-158.423h5.357Z" transform="translate(312.796 36.562)" fill="#144f33"/>
        <path id="Trazado_119342" data-name="Trazado 119342" d="M425.63,65.5V23.952A1.366,1.366,0,0,1,427,22.587h.847a1.707,1.707,0,0,1,1.656,1.292l6.671,26.8a6.878,6.878,0,0,1-1.453,6.14L430.19,62.1v2.8Z" transform="translate(313.398 16.631)" fill="#f27512"/>
        <path id="Trazado_119343" data-name="Trazado 119343" d="M429.28,47.536,467.014,64.22a1.364,1.364,0,0,1,.7,1.8l-.342.776a1.705,1.705,0,0,1-1.853.988L438.307,63.04a6.879,6.879,0,0,1-5.025-3.815l-3-6.28-2.99-1.339Z" transform="translate(314.623 35.001)" fill="#f27512"/>
        <path id="Trazado_119344" data-name="Trazado 119344" d="M442.04,52.048,407.368,72.721a1.368,1.368,0,0,1-1.873-.474l-.434-.728a1.7,1.7,0,0,1,.262-2.082l19.589-19.471a6.875,6.875,0,0,1,6.016-1.9l6.858,1.179,2.665-1.551Z" transform="translate(298.075 35.119)" fill="#f27512"/>
        <path id="Trazado_119345" data-name="Trazado 119345" d="M432.567,49.736a3.908,3.908,0,1,1-3.907-3.907,3.907,3.907,0,0,1,3.907,3.907" transform="translate(312.752 33.745)" fill="#144f33"/>
        <path id="Trazado_119346" data-name="Trazado 119346" d="M429.776,48.905a1.947,1.947,0,1,1-1.946-1.948,1.947,1.947,0,0,1,1.946,1.948" transform="translate(313.583 34.575)" fill="#26724c"/>
        <path id="Trazado_119347" data-name="Trazado 119347" d="M483.807,203.614h-6.341l.67-147.894h5Z" transform="translate(351.566 41.028)" fill="#144f33"/>
        <path id="Trazado_119348" data-name="Trazado 119348" d="M478.23,70.514V31.725a1.276,1.276,0,0,1,1.276-1.276h.79a1.592,1.592,0,0,1,1.545,1.207l6.23,25.02a6.427,6.427,0,0,1-1.356,5.732l-4.228,4.933v2.611Z" transform="translate(352.128 22.42)" fill="#f27512"/>
        <path id="Trazado_119349" data-name="Trazado 119349" d="M481.637,53.74l35.226,15.576A1.275,1.275,0,0,1,517.512,71l-.319.722a1.592,1.592,0,0,1-1.729.925l-25.4-4.435a6.424,6.424,0,0,1-4.693-3.559l-2.8-5.864-2.79-1.25Z" transform="translate(353.272 39.57)" fill="#f27512"/>
        <path id="Trazado_119350" data-name="Trazado 119350" d="M493.549,57.952l-32.367,19.3a1.275,1.275,0,0,1-1.748-.441l-.406-.679a1.59,1.59,0,0,1,.245-1.945l18.287-18.176a6.422,6.422,0,0,1,5.615-1.775l6.4,1.1,2.488-1.446Z" transform="translate(337.823 39.679)" fill="#f27512"/>
        <path id="Trazado_119351" data-name="Trazado 119351" d="M484.706,55.794a3.648,3.648,0,1,1-3.65-3.648,3.647,3.647,0,0,1,3.65,3.648" transform="translate(351.524 38.396)" fill="#144f33"/>
        <path id="Trazado_119352" data-name="Trazado 119352" d="M482.1,55.018a1.819,1.819,0,1,1-1.82-1.818,1.819,1.819,0,0,1,1.82,1.818" transform="translate(352.301 39.172)" fill="#26724c"/>
        <path id="Trazado_119353" data-name="Trazado 119353" d="M559.183,149.9c-27.166-9.317-51.9-4.544-81.317-10.565-27.528-6.088-44.227-10.673-68.768-10.673-37.459,0-54.019,7.694-84.763,21.239,0,0,227.355.248,234.849,0" transform="translate(238.812 94.738)" fill="#52a646"/>
        <path id="Trazado_119354" data-name="Trazado 119354" d="M412.636,147.948c-.012-.13-.021-.262-.021-.4a4.377,4.377,0,0,1,7.864-2.65c0-.082-.012-.161-.012-.245a7.19,7.19,0,0,1,12.441-4.919,10.324,10.324,0,0,1,20.49,1.59,6.258,6.258,0,0,1,10.85,4.261c0,.148-.012.29-.023.434a3.635,3.635,0,0,1,6.459,1.926Z" transform="translate(303.815 96.605)" fill="#bdc965"/>
        <path id="Trazado_119355" data-name="Trazado 119355" d="M195.268,181.416H129.8l3.683-93.327a2.31,2.31,0,0,1,2.309-2.221h53.5a2.281,2.281,0,0,1,2.283,2.193Z" transform="translate(95.577 63.226)" fill="#fff"/>
        <rect id="Rectángulo_16800" data-name="Rectángulo 16800" width="53.43" height="8.425" transform="translate(231.399 140.669)" fill="#f4b856"/>
        <path id="Trazado_119356" data-name="Trazado 119356" d="M192.621,89.369h-60.84a1.516,1.516,0,0,1-.7-2.86l29.873-15.658a2.7,2.7,0,0,1,2.5,0l29.872,15.658a1.516,1.516,0,0,1-.7,2.86" transform="translate(95.913 51.943)" fill="#dd5f0a"/>
        <path id="Trazado_119357" data-name="Trazado 119357" d="M175.717,89.374H137.711l18.436-18.6a.8.8,0,0,1,1.137,0Z" transform="translate(101.399 51.938)" fill="#f27512"/>
        <path id="Trazado_119358" data-name="Trazado 119358" d="M154.919,83.251a4.4,4.4,0,1,1-4.4-4.4,4.4,4.4,0,0,1,4.4,4.4" transform="translate(107.593 58.061)" fill="#144f33"/>
        <path id="Trazado_119359" data-name="Trazado 119359" d="M158.1,85.072l-5.761,5.761a3.008,3.008,0,0,1-4.242,0L115.525,58.256a3.008,3.008,0,0,1,0-4.242l5.759-5.761a3.009,3.009,0,0,1,4.24,0L158.1,80.832a3.006,3.006,0,0,1,0,4.24" transform="translate(84.419 34.886)" fill="#144f33"/>
        <rect id="Rectángulo_16801" data-name="Rectángulo 16801" width="2.43" height="28.75" transform="translate(236.615 121.521) rotate(-44.971)" fill="#144f33"/>
        <path id="Trazado_119360" data-name="Trazado 119360" d="M158.007,96.5l5.759-5.761a3.013,3.013,0,0,1,4.244,0l32.575,32.577a3.008,3.008,0,0,1,0,4.242l-5.761,5.761a3.009,3.009,0,0,1-4.24,0l-32.577-32.578a3.006,3.006,0,0,1,0-4.24" transform="translate(115.699 66.167)" fill="#144f33"/>
        <rect id="Rectángulo_16802" data-name="Rectángulo 16802" width="2.429" height="28.75" transform="translate(257.569 142.484) rotate(-45)" fill="#144f33"/>
        <path id="Trazado_119361" data-name="Trazado 119361" d="M163.766,90.833l-5.759-5.761a3.006,3.006,0,0,1,0-4.24l32.575-32.577a3.008,3.008,0,0,1,4.242,0l5.761,5.759a3.008,3.008,0,0,1,0,4.242L168.008,90.833a3.008,3.008,0,0,1-4.242,0" transform="translate(115.699 34.887)" fill="#144f33"/>
        <rect id="Rectángulo_16803" data-name="Rectángulo 16803" width="28.751" height="2.429" transform="translate(257.569 140.139) rotate(-45)" fill="#144f33"/>
        <path id="Trazado_119362" data-name="Trazado 119362" d="M152.342,90.737,158.1,96.5a3.006,3.006,0,0,1,0,4.24l-32.577,32.577a3.008,3.008,0,0,1-4.242,0l-5.759-5.759a3.008,3.008,0,0,1,0-4.242L148.1,90.737a3.009,3.009,0,0,1,4.24,0" transform="translate(84.419 66.167)" fill="#144f33"/>
        <rect id="Rectángulo_16804" data-name="Rectángulo 16804" width="28.75" height="2.43" transform="matrix(0.707, -0.707, 0.707, 0.707, 236.615, 161.102)" fill="#144f33"/>
        <path id="Trazado_119363" data-name="Trazado 119363" d="M153.455,102.608V94.4a3.37,3.37,0,0,0-6.74,0v8.209Z" transform="translate(108.029 67.027)" fill="#144f33"/>
        <path id="Trazado_119364" data-name="Trazado 119364" d="M153.455,126.356v-8.209a3.37,3.37,0,0,0-6.74,0v8.209Z" transform="translate(108.029 84.513)" fill="#144f33"/>
        <path id="Trazado_119365" data-name="Trazado 119365" d="M15.7,144.224a52.864,52.864,0,0,1,26.968-7.777c15.434,0,30.471,7.777,30.471,7.777Z" transform="translate(11.559 100.468)" fill="#52a646"/>
        <path id="Trazado_119366" data-name="Trazado 119366" d="M65.06,145.132a8.7,8.7,0,0,1-8.685-8.687V123.958a.651.651,0,1,1,1.3,0v12.488a7.392,7.392,0,0,0,7.383,7.385.651.651,0,1,1,0,1.3" transform="translate(41.51 90.793)" fill="#144f33"/>
        <path id="Trazado_119367" data-name="Trazado 119367" d="M61.653,141.595a.651.651,0,1,1,0-1.3,7.392,7.392,0,0,0,7.385-7.383V120.422a.651.651,0,0,1,1.3,0V132.91a8.7,8.7,0,0,1-8.687,8.685" transform="translate(44.917 88.189)" fill="#144f33"/>
        <path id="Trazado_119368" data-name="Trazado 119368" d="M61.653,156.894a.651.651,0,0,1-.651-.651V121.235a.651.651,0,0,1,1.3,0v35.008a.651.651,0,0,1-.651.651" transform="translate(44.917 88.788)" fill="#144f33"/>
        <path id="Trazado_119369" data-name="Trazado 119369" d="M103.295,124.195A29.435,29.435,0,1,1,73.859,94.759a29.435,29.435,0,0,1,29.436,29.436" transform="translate(32.711 69.773)" fill="#52a646"/>
        <path id="Trazado_119370" data-name="Trazado 119370" d="M61.653,133.6a.651.651,0,0,1-.651-.651V106.215a.651.651,0,1,1,1.3,0v26.732a.651.651,0,0,1-.651.651" transform="translate(44.917 77.728)" fill="#144f33"/>
        <path id="Trazado_119371" data-name="Trazado 119371" d="M61.653,121.175a.651.651,0,1,1,0-1.3,7.393,7.393,0,0,0,7.385-7.383.651.651,0,1,1,1.3,0,8.7,8.7,0,0,1-8.687,8.685" transform="translate(44.917 82.349)" fill="#144f33"/>
        <path id="Trazado_119372" data-name="Trazado 119372" d="M64.4,113.346a7.137,7.137,0,0,1-7.129-7.131.651.651,0,1,1,1.3,0,5.834,5.834,0,0,0,5.827,5.829.651.651,0,1,1,0,1.3" transform="translate(42.17 77.728)" fill="#144f33"/>
        <path id="Trazado_119373" data-name="Trazado 119373" d="M90.669,140.349a8.7,8.7,0,0,1-8.685-8.685V119.176a.651.651,0,0,1,1.3,0v12.488a7.391,7.391,0,0,0,7.383,7.383.651.651,0,1,1,0,1.3" transform="translate(60.366 87.272)" fill="#144f33"/>
        <path id="Trazado_119374" data-name="Trazado 119374" d="M87.262,141.947a.651.651,0,1,1,0-1.3,7.392,7.392,0,0,0,7.385-7.383V120.774a.651.651,0,0,1,1.3,0v12.488a8.7,8.7,0,0,1-8.687,8.685" transform="translate(63.773 88.448)" fill="#144f33"/>
        <path id="Trazado_119375" data-name="Trazado 119375" d="M87.262,156.894a.651.651,0,0,1-.651-.651V121.235a.651.651,0,0,1,1.3,0v35.008a.651.651,0,0,1-.651.651" transform="translate(63.773 88.788)" fill="#144f33"/>
        <path id="Trazado_119376" data-name="Trazado 119376" d="M128.9,137.087a29.435,29.435,0,1,1-58.87,0c0-16.255,13.179-59.837,29.434-59.837S128.9,120.832,128.9,137.087" transform="translate(51.567 56.88)" fill="#bdc965"/>
        <path id="Trazado_119377" data-name="Trazado 119377" d="M87.262,146.8a.651.651,0,0,1-.651-.651V88.28a.651.651,0,1,1,1.3,0v57.873a.651.651,0,0,1-.651.651" transform="translate(63.773 64.523)" fill="#144f33"/>
        <path id="Trazado_119378" data-name="Trazado 119378" d="M87.262,123.048a.651.651,0,1,1,0-1.3,11.813,11.813,0,0,0,11.8-11.8.651.651,0,0,1,1.3,0,13.116,13.116,0,0,1-13.1,13.1" transform="translate(63.773 80.476)" fill="#144f33"/>
        <path id="Trazado_119379" data-name="Trazado 119379" d="M90.009,101.575a7.137,7.137,0,0,1-7.129-7.131.651.651,0,1,1,1.3,0,5.834,5.834,0,0,0,5.827,5.829.651.651,0,0,1,0,1.3" transform="translate(61.026 69.061)" fill="#144f33"/>
        <path id="Trazado_119380" data-name="Trazado 119380" d="M578.45,140.678a.651.651,0,0,1,0-1.3,5.831,5.831,0,0,0,5.825-5.825V123.485a.651.651,0,0,1,1.3,0v10.065a7.136,7.136,0,0,1-7.128,7.128" transform="translate(425.442 90.445)" fill="#144f33"/>
        <path id="Trazado_119381" data-name="Trazado 119381" d="M581.2,141.966a7.136,7.136,0,0,1-7.128-7.128V124.773a.651.651,0,0,1,1.3,0v10.065a5.831,5.831,0,0,0,5.825,5.825.651.651,0,0,1,0,1.3" transform="translate(422.696 91.393)" fill="#144f33"/>
        <path id="Trazado_119382" data-name="Trazado 119382" d="M578.45,154.016a.651.651,0,0,1-.651-.651v-28.22a.651.651,0,0,1,1.3,0v28.22a.651.651,0,0,1-.651.651" transform="translate(425.442 91.666)" fill="#144f33"/>
        <path id="Trazado_119383" data-name="Trazado 119383" d="M564.508,137.87a23.729,23.729,0,0,0,47.457,0c0-13.106-10.623-48.237-23.729-48.237s-23.729,35.131-23.729,48.237" transform="translate(415.656 65.998)" fill="#bdc965"/>
        <path id="Trazado_119384" data-name="Trazado 119384" d="M578.45,145.882a.651.651,0,0,1-.651-.651V98.578a.651.651,0,0,1,1.3,0v46.653a.651.651,0,0,1-.651.651" transform="translate(425.442 72.105)" fill="#144f33"/>
        <path id="Trazado_119385" data-name="Trazado 119385" d="M582.706,126.731a10.7,10.7,0,0,1-10.687-10.687.651.651,0,1,1,1.3,0,9.4,9.4,0,0,0,9.385,9.385.651.651,0,0,1,0,1.3" transform="translate(421.186 84.966)" fill="#144f33"/>
        <path id="Trazado_119386" data-name="Trazado 119386" d="M578.45,109.422a.651.651,0,1,1,0-1.3,4.577,4.577,0,0,0,4.572-4.572.651.651,0,1,1,1.3,0,5.881,5.881,0,0,1-5.874,5.874" transform="translate(425.442 75.765)" fill="#144f33"/>
        <path id="Trazado_119387" data-name="Trazado 119387" d="M202.74,132.251a.651.651,0,1,1,0-1.3,4.964,4.964,0,0,0,4.959-4.959v-8.722a.651.651,0,0,1,1.3,0v8.722a6.269,6.269,0,0,1-6.261,6.261" transform="translate(148.801 85.867)" fill="#144f33"/>
        <path id="Trazado_119388" data-name="Trazado 119388" d="M205.119,133.366a6.269,6.269,0,0,1-6.261-6.261v-8.722a.651.651,0,0,1,1.3,0V127.1a4.964,4.964,0,0,0,4.959,4.959.651.651,0,1,1,0,1.3" transform="translate(146.422 86.688)" fill="#144f33"/>
        <path id="Trazado_119389" data-name="Trazado 119389" d="M202.74,143.8a.651.651,0,0,1-.651-.651V118.705a.651.651,0,0,1,1.3,0v24.447a.651.651,0,0,1-.651.651" transform="translate(148.801 86.925)" fill="#144f33"/>
        <path id="Trazado_119390" data-name="Trazado 119390" d="M190.625,129.693a20.556,20.556,0,1,0,41.112,0c0-11.354-9.2-41.788-20.556-41.788s-20.556,30.434-20.556,41.788" transform="translate(140.36 64.726)" fill="#bdc965"/>
        <path id="Trazado_119391" data-name="Trazado 119391" d="M202.74,136.758a.651.651,0,0,1-.651-.651V95.691a.651.651,0,1,1,1.3,0v40.416a.651.651,0,0,1-.651.651" transform="translate(148.801 69.979)" fill="#144f33"/>
        <path id="Trazado_119392" data-name="Trazado 119392" d="M206.427,120.167a9.355,9.355,0,0,1-9.345-9.345.651.651,0,1,1,1.3,0,8.052,8.052,0,0,0,8.043,8.043.651.651,0,1,1,0,1.3" transform="translate(145.115 81.121)" fill="#144f33"/>
        <path id="Trazado_119393" data-name="Trazado 119393" d="M202.74,105.172a.651.651,0,0,1,0-1.3A3.879,3.879,0,0,0,206.614,100a.651.651,0,0,1,1.3,0,5.181,5.181,0,0,1-5.176,5.176" transform="translate(148.801 73.149)" fill="#144f33"/>
        <path id="Trazado_119394" data-name="Trazado 119394" d="M325.608,137.374a.651.651,0,0,1,0-1.3,3.747,3.747,0,0,0,3.742-3.742V125.5a.651.651,0,1,1,1.3,0v6.827a5.05,5.05,0,0,1-5.044,5.044" transform="translate(239.271 91.93)" fill="#144f33"/>
        <path id="Trazado_119395" data-name="Trazado 119395" d="M327.471,138.249a5.05,5.05,0,0,1-5.044-5.044v-6.829a.651.651,0,0,1,1.3,0v6.829a3.747,3.747,0,0,0,3.742,3.742.651.651,0,0,1,0,1.3" transform="translate(237.408 92.573)" fill="#144f33"/>
        <path id="Trazado_119396" data-name="Trazado 119396" d="M325.608,146.42a.651.651,0,0,1-.651-.651V126.628a.651.651,0,1,1,1.3,0v19.141a.651.651,0,0,1-.651.651" transform="translate(239.271 92.759)" fill="#144f33"/>
        <path id="Trazado_119397" data-name="Trazado 119397" d="M316.063,135.17a16.095,16.095,0,1,0,32.19,0c0-8.888-7.206-32.717-16.094-32.717s-16.1,23.829-16.1,32.717" transform="translate(232.722 75.438)" fill="#bdc965"/>
        <path id="Trazado_119398" data-name="Trazado 119398" d="M325.608,140.9a.651.651,0,0,1-.651-.651V108.609a.651.651,0,0,1,1.3,0v31.644a.651.651,0,0,1-.651.651" transform="translate(239.271 79.491)" fill="#144f33"/>
        <path id="Trazado_119399" data-name="Trazado 119399" d="M328.5,127.915a7.467,7.467,0,0,1-7.459-7.459.651.651,0,1,1,1.3,0,6.165,6.165,0,0,0,6.157,6.157.651.651,0,0,1,0,1.3" transform="translate(236.384 88.214)" fill="#144f33"/>
        <path id="Trazado_119400" data-name="Trazado 119400" d="M325.608,116.174a.651.651,0,1,1,0-1.3,2.9,2.9,0,0,0,2.891-2.893.651.651,0,0,1,1.3,0,4.2,4.2,0,0,1-4.193,4.195" transform="translate(239.271 81.973)" fill="#144f33"/>
        <path id="Trazado_119401" data-name="Trazado 119401" d="M597.59,144.534a.651.651,0,1,1,0-1.3,5.831,5.831,0,0,0,5.825-5.825V127.339a.651.651,0,0,1,1.3,0v10.067a7.136,7.136,0,0,1-7.128,7.128" transform="translate(439.536 93.282)" fill="#144f33"/>
        <path id="Trazado_119402" data-name="Trazado 119402" d="M600.337,141.684a7.136,7.136,0,0,1-7.128-7.128V124.489a.651.651,0,0,1,1.3,0v10.067a5.831,5.831,0,0,0,5.825,5.825.651.651,0,0,1,0,1.3" transform="translate(436.789 91.184)" fill="#144f33"/>
        <path id="Trazado_119403" data-name="Trazado 119403" d="M597.59,154.016a.651.651,0,0,1-.651-.651v-28.22a.651.651,0,0,1,1.3,0v28.22a.651.651,0,0,1-.651.651" transform="translate(439.536 91.666)" fill="#144f33"/>
        <path id="Trazado_119404" data-name="Trazado 119404" d="M583.648,127.476a23.728,23.728,0,1,0,23.728-23.729,23.729,23.729,0,0,0-23.728,23.729" transform="translate(429.749 76.391)" fill="#448535"/>
        <path id="Trazado_119405" data-name="Trazado 119405" d="M597.59,135.237a.651.651,0,0,1-.651-.651V113.036a.651.651,0,1,1,1.3,0v21.549a.651.651,0,0,1-.651.651" transform="translate(439.536 82.751)" fill="#144f33"/>
        <path id="Trazado_119406" data-name="Trazado 119406" d="M600.337,125.222a7.136,7.136,0,0,1-7.128-7.128.651.651,0,0,1,1.3,0,5.831,5.831,0,0,0,5.825,5.825.651.651,0,0,1,0,1.3" transform="translate(436.789 86.475)" fill="#144f33"/>
        <path id="Trazado_119407" data-name="Trazado 119407" d="M597.59,118.911a.651.651,0,1,1,0-1.3,4.577,4.577,0,0,0,4.572-4.572.651.651,0,0,1,1.3,0,5.881,5.881,0,0,1-5.874,5.874" transform="translate(439.536 82.752)" fill="#144f33"/>
        <path id="Trazado_119408" data-name="Trazado 119408" d="M564.12,143.7a5.29,5.29,0,0,1-5.285-5.284v-7.2a.651.651,0,0,1,1.3,0v7.2a3.986,3.986,0,0,0,3.983,3.981.651.651,0,0,1,0,1.3" transform="translate(411.479 96.139)" fill="#144f33"/>
        <path id="Trazado_119409" data-name="Trazado 119409" d="M562.155,141.664a.651.651,0,0,1,0-1.3,3.986,3.986,0,0,0,3.981-3.983v-7.2a.651.651,0,1,1,1.3,0v7.2a5.29,5.29,0,0,1-5.284,5.285" transform="translate(413.444 94.638)" fill="#144f33"/>
        <path id="Trazado_119410" data-name="Trazado 119410" d="M562.155,150.487a.651.651,0,0,1-.651-.651V129.649a.651.651,0,0,1,1.3,0v20.186a.651.651,0,0,1-.651.651" transform="translate(413.444 94.983)" fill="#144f33"/>
        <path id="Trazado_119411" data-name="Trazado 119411" d="M586.05,131.238a16.974,16.974,0,1,1-16.972-16.974,16.974,16.974,0,0,1,16.972,16.974" transform="translate(406.521 84.134)" fill="#52a646"/>
        <path id="Trazado_119412" data-name="Trazado 119412" d="M562.155,137.053a.651.651,0,0,1-.651-.651V120.987a.651.651,0,0,1,1.3,0V136.4a.651.651,0,0,1-.651.651" transform="translate(413.444 88.605)" fill="#144f33"/>
        <path id="Trazado_119413" data-name="Trazado 119413" d="M562.155,129.89a.651.651,0,1,1,0-1.3,3.986,3.986,0,0,0,3.981-3.981.651.651,0,1,1,1.3,0,5.289,5.289,0,0,1-5.284,5.284" transform="translate(413.444 91.27)" fill="#144f33"/>
        <path id="Trazado_119414" data-name="Trazado 119414" d="M563.74,125.375a4.391,4.391,0,0,1-4.388-4.388.651.651,0,0,1,1.3,0,3.089,3.089,0,0,0,3.085,3.085.651.651,0,1,1,0,1.3" transform="translate(411.86 88.605)" fill="#144f33"/>
        <path id="Trazado_119415" data-name="Trazado 119415" d="M345.969,140.213a5.737,5.737,0,0,1-5.73-5.73V126.59a.651.651,0,0,1,1.3,0v7.893a4.433,4.433,0,0,0,4.428,4.428.651.651,0,0,1,0,1.3" transform="translate(250.523 92.731)" fill="#144f33"/>
        <path id="Trazado_119416" data-name="Trazado 119416" d="M343.815,137.977a.651.651,0,1,1,0-1.3,4.434,4.434,0,0,0,4.428-4.428v-7.893a.651.651,0,1,1,1.3,0v7.893a5.737,5.737,0,0,1-5.73,5.73" transform="translate(252.677 91.084)" fill="#144f33"/>
        <path id="Trazado_119417" data-name="Trazado 119417" d="M343.815,147.645a.651.651,0,0,1-.651-.651V124.868a.651.651,0,0,1,1.3,0v22.126a.651.651,0,0,1-.651.651" transform="translate(252.677 91.463)" fill="#144f33"/>
        <path id="Trazado_119418" data-name="Trazado 119418" d="M370.033,126.638a18.6,18.6,0,1,1-18.6-18.6,18.605,18.605,0,0,1,18.6,18.6" transform="translate(245.064 79.546)" fill="#52a646"/>
        <path id="Trazado_119419" data-name="Trazado 119419" d="M343.815,132.922a.651.651,0,0,1-.651-.651v-16.9a.651.651,0,0,1,1.3,0v16.9a.651.651,0,0,1-.651.651" transform="translate(252.677 84.473)" fill="#144f33"/>
        <path id="Trazado_119420" data-name="Trazado 119420" d="M343.815,125.071a.651.651,0,1,1,0-1.3,4.433,4.433,0,0,0,4.428-4.428.651.651,0,1,1,1.3,0,5.737,5.737,0,0,1-5.73,5.73" transform="translate(252.677 87.393)" fill="#144f33"/>
        <path id="Trazado_119421" data-name="Trazado 119421" d="M345.551,120.121a4.751,4.751,0,0,1-4.745-4.745.651.651,0,0,1,1.3,0,3.447,3.447,0,0,0,3.443,3.443.651.651,0,1,1,0,1.3" transform="translate(250.941 84.474)" fill="#144f33"/>
        <rect id="Rectángulo_16805" data-name="Rectángulo 16805" width="3.018" height="12.956" transform="translate(690.281 231.685)" fill="#144f33"/>
        <path id="Trazado_119422" data-name="Trazado 119422" d="M384.139,153.15h46.58a3.772,3.772,0,0,0,3.454-2.733l8.531-33.6a2.1,2.1,0,0,0-2.082-2.785H393.452a3.754,3.754,0,0,0-3.45,2.785l-7.975,33.6a2.1,2.1,0,0,0,2.111,2.733" transform="translate(281.237 83.96)" fill="#bdc965"/>
        <path id="Trazado_119423" data-name="Trazado 119423" d="M383.147,153.15h46.58a3.771,3.771,0,0,0,3.454-2.733l8.531-33.6a2.1,2.1,0,0,0-2.082-2.785H392.461a3.751,3.751,0,0,0-3.45,2.785l-7.977,33.6a2.1,2.1,0,0,0,2.113,2.733" transform="translate(280.506 83.96)" fill="#fff"/>
        <path id="Trazado_119424" data-name="Trazado 119424" d="M408.2,125.585h-6.779a.947.947,0,0,1-.8-.45,1.736,1.736,0,0,0-.2-.26.948.948,0,0,1-.255-.892l1.846-7.546a.957.957,0,0,1,.932-.731h7.931a.959.959,0,0,1,.932,1.189l-1.8,7.284a.951.951,0,0,1-.465.583,3.346,3.346,0,0,0-.653.51.971.971,0,0,1-.686.313" transform="translate(294.625 85.195)" fill="#144f33"/>
        <path id="Trazado_119425" data-name="Trazado 119425" d="M401.409,125.585H394.56a.969.969,0,0,1-.811-.458,1.451,1.451,0,0,0-.161-.208.961.961,0,0,1-.236-.875l1.835-7.6a.957.957,0,0,1,.932-.734h7.935a.961.961,0,0,1,.934,1.188l-1.778,7.287a.955.955,0,0,1-.464.582,3.234,3.234,0,0,0-.651.51.975.975,0,0,1-.688.313" transform="translate(289.612 85.195)" fill="#144f33"/>
        <path id="Trazado_119426" data-name="Trazado 119426" d="M414.969,125.585h-6.751a.954.954,0,0,1-.806-.453,1.577,1.577,0,0,0-.2-.255.954.954,0,0,1-.25-.894l1.868-7.549a.957.957,0,0,1,.931-.728h7.932a.959.959,0,0,1,.932,1.193l-1.814,7.265a.978.978,0,0,1-.477.59,3.327,3.327,0,0,0-.665.514.99.99,0,0,1-.7.318" transform="translate(299.633 85.195)" fill="#144f33"/>
        <path id="Trazado_119427" data-name="Trazado 119427" d="M408.9,122.5h6.494a1.016,1.016,0,0,1,.863.543,1.449,1.449,0,0,0,.219.293,1,1,0,0,1,.281.934l-1.636,6.541a1.024,1.024,0,0,1-.5.622,3.248,3.248,0,0,0-.7.547,1,1,0,0,1-.726.34h-6.6a.943.943,0,0,1-.816-.472,1.4,1.4,0,0,0-.241-.313.944.944,0,0,1-.24-.885l1.625-6.575a1.024,1.024,0,0,1,.5-.623,3.172,3.172,0,0,0,.726-.59,1.031,1.031,0,0,1,.75-.361" transform="translate(298.409 90.196)" fill="#144f33"/>
        <path id="Trazado_119428" data-name="Trazado 119428" d="M395.2,122.5h6.61a1.013,1.013,0,0,1,.861.542,1.587,1.587,0,0,0,.215.286,1,1,0,0,1,.28.924l-1.6,6.577a1.006,1.006,0,0,1-.486.613,3.155,3.155,0,0,0-.679.543,1,1,0,0,1-.714.335h-6.7a.964.964,0,0,1-.821-.479,1.551,1.551,0,0,0-.2-.264.944.944,0,0,1-.229-.866l1.613-6.683a1.029,1.029,0,0,1,.476-.62,3.18,3.18,0,0,0,.675-.564.959.959,0,0,1,.707-.344" transform="translate(288.418 90.196)" fill="#144f33"/>
        <path id="Trazado_119429" data-name="Trazado 119429" d="M402.094,122.5h6.515a1.016,1.016,0,0,1,.865.543,1.529,1.529,0,0,0,.212.283,1,1,0,0,1,.276.927l-1.622,6.574a1.013,1.013,0,0,1-.491.615,3.289,3.289,0,0,0-.679.543,1,1,0,0,1-.714.335h-6.634a.938.938,0,0,1-.813-.471,1.53,1.53,0,0,0-.245-.314.942.942,0,0,1-.245-.885l1.608-6.574a1.033,1.033,0,0,1,.5-.627,3.194,3.194,0,0,0,.724-.589,1.021,1.021,0,0,1,.747-.361" transform="translate(293.416 90.196)" fill="#144f33"/>
        <path id="Trazado_119430" data-name="Trazado 119430" d="M394.773,130.974l-1.757,7.3a.959.959,0,0,1-.934.736h-7.855a.961.961,0,0,1-.934-1.184l1.868-7.839a.96.96,0,0,1,.934-.738h7.317a.93.93,0,0,1,.809.46,1.541,1.541,0,0,0,.292.37.931.931,0,0,1,.26.9" transform="translate(282.205 95.166)" fill="#144f33"/>
        <path id="Trazado_119431" data-name="Trazado 119431" d="M398.2,116.888l-1.742,7.234a.969.969,0,0,1-.49.6,3.217,3.217,0,0,0-.689.528,1.02,1.02,0,0,1-.724.33h-7.121a.959.959,0,0,1-.934-1.182l1.9-7.959a.96.96,0,0,1,.934-.738h7.937a.959.959,0,0,1,.932,1.184" transform="translate(284.568 85.195)" fill="#144f33"/>
        <path id="Trazado_119432" data-name="Trazado 119432" d="M393.543,129.246h6.723a.946.946,0,0,1,.814.471,1.632,1.632,0,0,0,.241.313.937.937,0,0,1,.245.886l-1.794,7.36a.962.962,0,0,1-.932.733h-7.857a.961.961,0,0,1-.932-1.186l1.724-7.143a1,1,0,0,1,.457-.594,3.15,3.15,0,0,0,.635-.519.939.939,0,0,1,.675-.319" transform="translate(287.181 95.166)" fill="#144f33"/>
        <path id="Trazado_119433" data-name="Trazado 119433" d="M396.4,124.307l-1.556,6.459a1.029,1.029,0,0,1-.512.634,3.259,3.259,0,0,0-.722.568,1.032,1.032,0,0,1-.738.347h-7.044a.959.959,0,0,1-.932-1.181l1.882-7.9a.957.957,0,0,1,.932-.736h7.275a1,1,0,0,1,.856.535,1.686,1.686,0,0,0,.259.337.992.992,0,0,1,.3.939" transform="translate(283.383 90.196)" fill="#144f33"/>
        <path id="Trazado_119434" data-name="Trazado 119434" d="M400.42,129.246h6.629a.944.944,0,0,1,.814.471,1.566,1.566,0,0,0,.241.313.935.935,0,0,1,.241.886l-1.816,7.362a.962.962,0,0,1-.934.731h-7.852a.959.959,0,0,1-.932-1.189l1.729-7.082a1.009,1.009,0,0,1,.488-.613,3.235,3.235,0,0,0,.679-.542.992.992,0,0,1,.712-.335" transform="translate(292.158 95.166)" fill="#144f33"/>
        <path id="Trazado_119435" data-name="Trazado 119435" d="M407.207,129.246h6.608a.939.939,0,0,1,.813.471,1.517,1.517,0,0,0,.25.323.938.938,0,0,1,.247.892l-1.837,7.348a.96.96,0,0,1-.931.727H404.5a.96.96,0,0,1-.932-1.189l1.752-7.082a1.018,1.018,0,0,1,.49-.613,3.243,3.243,0,0,0,.681-.542.993.993,0,0,1,.714-.335" transform="translate(297.135 95.166)" fill="#144f33"/>
        <rect id="Rectángulo_16806" data-name="Rectángulo 16806" width="28.239" height="1.321" transform="translate(677.67 243.32)" fill="#144f33"/>
        <rect id="Rectángulo_16807" data-name="Rectángulo 16807" width="69.368" height="1.49" transform="translate(546.346 235.314)" fill="#f9e6cd"/>
        <rect id="Rectángulo_16808" data-name="Rectángulo 16808" width="69.368" height="1.49" transform="translate(546.346 241.214)" fill="#f9e6cd"/>
        <path id="Trazado_119436" data-name="Trazado 119436" d="M317.714,146.188h-1.972a.567.567,0,0,1-.611-.505V135.433a.434.434,0,0,1,.089-.262l.986-1.337a.681.681,0,0,1,1.044,0l.988,1.337a.446.446,0,0,1,.089.262v10.249a.567.567,0,0,1-.611.505" transform="translate(232.035 98.365)" fill="#fff"/>
        <path id="Trazado_119437" data-name="Trazado 119437" d="M320.808,146.188h-1.973a.567.567,0,0,1-.611-.505V135.433a.445.445,0,0,1,.089-.262l.988-1.337a.681.681,0,0,1,1.044,0l.986,1.337a.436.436,0,0,1,.09.262v10.249a.569.569,0,0,1-.613.505" transform="translate(234.313 98.365)" fill="#fff"/>
        <path id="Trazado_119438" data-name="Trazado 119438" d="M323.9,146.188h-1.972a.565.565,0,0,1-.609-.505V135.433a.444.444,0,0,1,.087-.262l.988-1.337a.681.681,0,0,1,1.044,0l.986,1.337a.436.436,0,0,1,.09.262v10.249a.568.568,0,0,1-.613.505" transform="translate(236.592 98.365)" fill="#fff"/>
        <path id="Trazado_119439" data-name="Trazado 119439" d="M327,146.188h-1.974a.565.565,0,0,1-.609-.505V135.433a.434.434,0,0,1,.089-.262l.986-1.337a.681.681,0,0,1,1.044,0l.988,1.337a.445.445,0,0,1,.089.262v10.249a.567.567,0,0,1-.611.505" transform="translate(238.87 98.365)" fill="#fff"/>
        <path id="Trazado_119440" data-name="Trazado 119440" d="M330.09,146.188h-1.972a.567.567,0,0,1-.611-.505V135.433a.434.434,0,0,1,.089-.262l.986-1.337a.681.681,0,0,1,1.044,0l.988,1.337a.446.446,0,0,1,.089.262v10.249a.567.567,0,0,1-.611.505" transform="translate(241.148 98.365)" fill="#fff"/>
        <path id="Trazado_119441" data-name="Trazado 119441" d="M333.184,146.188h-1.972a.567.567,0,0,1-.611-.505V135.433a.445.445,0,0,1,.089-.262l.988-1.337a.681.681,0,0,1,1.044,0l.986,1.337a.436.436,0,0,1,.09.262v10.249a.569.569,0,0,1-.613.505" transform="translate(243.426 98.365)" fill="#fff"/>
        <path id="Trazado_119442" data-name="Trazado 119442" d="M336.277,146.188H334.3a.565.565,0,0,1-.609-.505V135.433a.444.444,0,0,1,.087-.262l.988-1.337a.681.681,0,0,1,1.044,0l.986,1.337a.436.436,0,0,1,.09.262v10.249a.568.568,0,0,1-.613.505" transform="translate(245.705 98.365)" fill="#fff"/>
        <path id="Trazado_119443" data-name="Trazado 119443" d="M339.373,146.188H337.4a.565.565,0,0,1-.609-.505V135.433a.434.434,0,0,1,.089-.262l.986-1.337a.681.681,0,0,1,1.044,0l.988,1.337a.446.446,0,0,1,.089.262v10.249a.567.567,0,0,1-.611.505" transform="translate(247.983 98.365)" fill="#fff"/>
        <path id="Trazado_119444" data-name="Trazado 119444" d="M342.466,146.188h-1.972a.567.567,0,0,1-.611-.505V135.433a.434.434,0,0,1,.089-.262l.986-1.337a.681.681,0,0,1,1.043,0l.988,1.337a.445.445,0,0,1,.089.262v10.249a.567.567,0,0,1-.611.505" transform="translate(250.26 98.365)" fill="#fff"/>
        <path id="Trazado_119445" data-name="Trazado 119445" d="M345.56,146.188h-1.972a.567.567,0,0,1-.611-.505V135.433a.445.445,0,0,1,.089-.262l.988-1.337a.681.681,0,0,1,1.043,0l.986,1.337a.436.436,0,0,1,.09.262v10.249a.569.569,0,0,1-.613.505" transform="translate(252.539 98.365)" fill="#fff"/>
        <path id="Trazado_119446" data-name="Trazado 119446" d="M348.655,146.188H346.68a.565.565,0,0,1-.609-.505V135.433a.434.434,0,0,1,.089-.262l.986-1.337a.681.681,0,0,1,1.044,0l.986,1.337a.436.436,0,0,1,.09.262v10.249a.567.567,0,0,1-.611.505" transform="translate(254.818 98.365)" fill="#fff"/>
        <path id="Trazado_119447" data-name="Trazado 119447" d="M351.749,146.188h-1.974a.565.565,0,0,1-.609-.505V135.433a.434.434,0,0,1,.089-.262l.986-1.337a.681.681,0,0,1,1.044,0l.988,1.337a.446.446,0,0,1,.089.262v10.249a.567.567,0,0,1-.611.505" transform="translate(257.096 98.365)" fill="#fff"/>
        <path id="Trazado_119448" data-name="Trazado 119448" d="M354.842,146.188h-1.972a.567.567,0,0,1-.611-.505V135.433a.434.434,0,0,1,.089-.262l.986-1.337a.681.681,0,0,1,1.044,0l.988,1.337a.445.445,0,0,1,.089.262v10.249a.567.567,0,0,1-.611.505" transform="translate(259.373 98.365)" fill="#fff"/>
        <path id="Trazado_119449" data-name="Trazado 119449" d="M297.937,89.633H263.952a.565.565,0,0,0-.359.993l17.929,15.519a2.5,2.5,0,0,0,1.629.609H316a.791.791,0,0,0,.505-1.391L299.038,90.242c-.455-.392-.5-.609-1.1-.609" transform="translate(193.942 65.998)" fill="#dd5f0a"/>
        <path id="Trazado_119450" data-name="Trazado 119450" d="M308.06,177.856H272.9V105.967L290.482,90.7l17.579,15.264Z" transform="translate(200.942 66.786)" fill="#fff"/>
        <rect id="Rectángulo_16809" data-name="Rectángulo 16809" width="33.25" height="71.889" transform="translate(440.594 172.753)" fill="#f4b856"/>
        <path id="Trazado_119451" data-name="Trazado 119451" d="M272.358,89.633h33.459a.565.565,0,0,1,.359.993l-17.931,15.519a2.49,2.49,0,0,1-1.629.609H253.764a.792.792,0,0,1-.505-1.391l17.473-15.122a2.482,2.482,0,0,1,1.627-.609" transform="translate(186.276 65.998)" fill="#f27512"/>
        <rect id="Rectángulo_16810" data-name="Rectángulo 16810" width="15.752" height="29.943" transform="translate(484.024 214.609)" fill="#144f33"/>
        <rect id="Rectángulo_16811" data-name="Rectángulo 16811" width="6.542" height="11.017" transform="translate(446.462 178.413)" fill="#144f33"/>
        <rect id="Rectángulo_16812" data-name="Rectángulo 16812" width="6.541" height="11.017" transform="translate(459.802 178.413)" fill="#144f33"/>
        <rect id="Rectángulo_16813" data-name="Rectángulo 16813" width="7.569" height="11.017" transform="translate(479.919 178.413)" fill="#144f33"/>
        <rect id="Rectángulo_16814" data-name="Rectángulo 16814" width="7.569" height="11.017" transform="translate(495.359 178.413)" fill="#144f33"/>
        <rect id="Rectángulo_16815" data-name="Rectángulo 16815" width="7.569" height="11.015" transform="translate(479.919 198.001)" fill="#144f33"/>
        <rect id="Rectángulo_16816" data-name="Rectángulo 16816" width="7.569" height="11.015" transform="translate(495.359 198.001)" fill="#144f33"/>
        <rect id="Rectángulo_16817" data-name="Rectángulo 16817" width="6.542" height="11.015" transform="translate(446.462 198.001)" fill="#144f33"/>
        <rect id="Rectángulo_16818" data-name="Rectángulo 16818" width="6.541" height="11.015" transform="translate(459.802 198.001)" fill="#144f33"/>
        <rect id="Rectángulo_16819" data-name="Rectángulo 16819" width="6.542" height="11.017" transform="translate(446.462 217.588)" fill="#144f33"/>
        <rect id="Rectángulo_16820" data-name="Rectángulo 16820" width="6.541" height="11.017" transform="translate(459.802 217.588)" fill="#144f33"/>
        <path id="Trazado_119452" data-name="Trazado 119452" d="M289.431,100.015a4.5,4.5,0,0,0-9,0Z" transform="translate(206.489 70.407)" fill="#144f33"/>
        <path id="Trazado_119453" data-name="Trazado 119453" d="M375.721,149.9c-27.166-9.317-51.9-4.544-81.317-10.565-27.528-6.088-44.227-10.673-68.768-10.673-37.459,0-54.019,7.694-84.763,21.239,0,0,227.355.248,234.849,0" transform="translate(103.726 94.738)" fill="#52a646"/>
        <rect id="Rectángulo_16821" data-name="Rectángulo 16821" width="2.495" height="10.706" transform="translate(421.378 233.936)" fill="#144f33"/>
        <path id="Trazado_119454" data-name="Trazado 119454" d="M276.531,151.022H238.037a3.113,3.113,0,0,1-2.853-2.259l-7.049-27.769a1.731,1.731,0,0,1,1.719-2.3h38.98a3.1,3.1,0,0,1,2.851,2.3l6.591,27.769a1.735,1.735,0,0,1-1.745,2.259" transform="translate(167.924 87.395)" fill="#bdc965"/>
        <path id="Trazado_119455" data-name="Trazado 119455" d="M277.351,151.022H238.857A3.116,3.116,0,0,1,236,148.763l-7.049-27.769a1.733,1.733,0,0,1,1.721-2.3h38.98a3.1,3.1,0,0,1,2.851,2.3l6.591,27.769a1.735,1.735,0,0,1-1.745,2.259" transform="translate(168.528 87.395)" fill="#fff"/>
        <path id="Trazado_119456" data-name="Trazado 119456" d="M239.426,128.243h5.6a.785.785,0,0,0,.663-.372,1.462,1.462,0,0,1,.168-.215.789.789,0,0,0,.208-.738l-1.523-6.235a.794.794,0,0,0-.771-.606h-6.556a.8.8,0,0,0-.771.984l1.488,6.02a.783.783,0,0,0,.384.483,2.614,2.614,0,0,1,.538.42.811.811,0,0,0,.57.259" transform="translate(174.082 88.415)" fill="#144f33"/>
        <path id="Trazado_119457" data-name="Trazado 119457" d="M245.033,128.243h5.66a.8.8,0,0,0,.67-.379,1.172,1.172,0,0,1,.134-.172.8.8,0,0,0,.194-.724l-1.516-6.284a.8.8,0,0,0-.771-.608h-6.558a.8.8,0,0,0-.771.983l1.469,6.022a.792.792,0,0,0,.382.483,2.525,2.525,0,0,1,.538.42.81.81,0,0,0,.568.259" transform="translate(178.228 88.415)" fill="#144f33"/>
        <path id="Trazado_119458" data-name="Trazado 119458" d="M233.838,128.243h5.579a.787.787,0,0,0,.665-.373,1.306,1.306,0,0,1,.165-.212.786.786,0,0,0,.208-.74l-1.544-6.237a.8.8,0,0,0-.769-.6h-6.556a.793.793,0,0,0-.769.986l1.5,6a.791.791,0,0,0,.392.488,2.763,2.763,0,0,1,.55.425.824.824,0,0,0,.578.262" transform="translate(169.937 88.415)" fill="#144f33"/>
        <path id="Trazado_119459" data-name="Trazado 119459" d="M238.781,125.69h-5.367a.838.838,0,0,0-.712.45,1.315,1.315,0,0,1-.182.241.827.827,0,0,0-.231.773l1.351,5.405a.837.837,0,0,0,.411.514,2.6,2.6,0,0,1,.571.453.853.853,0,0,0,.6.28h5.459a.774.774,0,0,0,.672-.389,1.447,1.447,0,0,1,.2-.259.769.769,0,0,0,.2-.731l-1.344-5.435a.851.851,0,0,0-.411-.516,2.751,2.751,0,0,1-.6-.488.842.842,0,0,0-.616-.3" transform="translate(171.021 92.548)" fill="#144f33"/>
        <path id="Trazado_119460" data-name="Trazado 119460" d="M250.092,125.69H244.63a.841.841,0,0,0-.712.448,1.251,1.251,0,0,1-.177.236.83.83,0,0,0-.231.764l1.325,5.435a.84.84,0,0,0,.4.509,2.525,2.525,0,0,1,.559.448.832.832,0,0,0,.59.276h5.541a.787.787,0,0,0,.677-.4,1.457,1.457,0,0,1,.167-.219.781.781,0,0,0,.189-.715l-1.332-5.521a.85.85,0,0,0-.394-.512,2.711,2.711,0,0,1-.557-.467.8.8,0,0,0-.585-.285" transform="translate(179.285 92.548)" fill="#144f33"/>
        <path id="Trazado_119461" data-name="Trazado 119461" d="M244.4,125.69h-5.386a.843.843,0,0,0-.714.45,1.279,1.279,0,0,1-.174.234.82.82,0,0,0-.229.764l1.34,5.435a.849.849,0,0,0,.4.509,2.585,2.585,0,0,1,.563.448.825.825,0,0,0,.59.276h5.482a.779.779,0,0,0,.674-.389,1.3,1.3,0,0,1,.2-.259.774.774,0,0,0,.2-.731l-1.327-5.433a.855.855,0,0,0-.412-.517,2.692,2.692,0,0,1-.6-.488.841.841,0,0,0-.615-.3" transform="translate(175.152 92.548)" fill="#144f33"/>
        <path id="Trazado_119462" data-name="Trazado 119462" d="M250.464,132.7l1.452,6.032a.793.793,0,0,0,.771.608h6.494a.8.8,0,0,0,.771-.978l-1.544-6.48a.8.8,0,0,0-.773-.609h-6.048a.762.762,0,0,0-.665.378,1.347,1.347,0,0,1-.243.307.766.766,0,0,0-.215.741" transform="translate(184.404 96.655)" fill="#144f33"/>
        <path id="Trazado_119463" data-name="Trazado 119463" d="M247.706,121.057l1.438,5.976a.809.809,0,0,0,.406.5,2.662,2.662,0,0,1,.57.438.843.843,0,0,0,.6.273H256.6a.793.793,0,0,0,.771-.978l-1.566-6.579a.8.8,0,0,0-.771-.609h-6.56a.793.793,0,0,0-.771.979" transform="translate(182.374 88.415)" fill="#144f33"/>
        <path id="Trazado_119464" data-name="Trazado 119464" d="M251.491,131.268h-5.554a.782.782,0,0,0-.674.389,1.255,1.255,0,0,1-.2.259.769.769,0,0,0-.2.731l1.481,6.084a.8.8,0,0,0,.771.6h6.492a.793.793,0,0,0,.771-.979l-1.424-5.9a.826.826,0,0,0-.378-.49,2.716,2.716,0,0,1-.526-.431.774.774,0,0,0-.557-.264" transform="translate(180.279 96.655)" fill="#144f33"/>
        <path id="Trazado_119465" data-name="Trazado 119465" d="M249.129,127.188l1.285,5.337a.85.85,0,0,0,.424.524,2.74,2.74,0,0,1,.6.469.849.849,0,0,0,.611.286h5.818a.793.793,0,0,0,.773-.976l-1.556-6.53a.8.8,0,0,0-.771-.609H250.3a.825.825,0,0,0-.707.443,1.479,1.479,0,0,1-.215.28.82.82,0,0,0-.248.776" transform="translate(183.422 92.548)" fill="#144f33"/>
        <path id="Trazado_119466" data-name="Trazado 119466" d="M245.817,131.268h-5.48a.783.783,0,0,0-.674.391,1.336,1.336,0,0,1-.2.257.765.765,0,0,0-.2.733l1.5,6.084a.791.791,0,0,0,.769.6h6.49a.794.794,0,0,0,.771-.981l-1.429-5.855a.845.845,0,0,0-.4-.507,2.654,2.654,0,0,1-.559-.446.817.817,0,0,0-.589-.278" transform="translate(176.158 96.655)" fill="#144f33"/>
        <path id="Trazado_119467" data-name="Trazado 119467" d="M240.214,131.268h-5.461a.775.775,0,0,0-.672.391,1.307,1.307,0,0,1-.2.266.774.774,0,0,0-.2.738l1.518,6.072a.793.793,0,0,0,.771.6h6.489a.791.791,0,0,0,.769-.983L241.77,132.5a.837.837,0,0,0-.4-.507,2.665,2.665,0,0,1-.561-.446.821.821,0,0,0-.592-.278" transform="translate(172.039 96.655)" fill="#144f33"/>
        <rect id="Rectángulo_16822" data-name="Rectángulo 16822" width="23.334" height="1.092" transform="translate(410.958 243.55)" fill="#144f33"/>
        <rect id="Rectángulo_16823" data-name="Rectángulo 16823" width="37.232" height="1.806" transform="translate(781.632 233.357)" fill="#f9e6cd"/>
        <rect id="Rectángulo_16824" data-name="Rectángulo 16824" width="37.232" height="1.806" transform="translate(781.632 240.506)" fill="#f9e6cd"/>
        <path id="Trazado_119468" data-name="Trazado 119468" d="M453.221,147.32h-1.972a.611.611,0,0,1-.609-.613V134.286a.61.61,0,0,1,.087-.316l.988-1.622a.61.61,0,0,1,1.044,0l.986,1.622a.6.6,0,0,1,.09.316v12.422a.614.614,0,0,1-.613.613" transform="translate(331.813 97.233)" fill="#fff"/>
        <path id="Trazado_119469" data-name="Trazado 119469" d="M456.317,147.32h-1.974a.611.611,0,0,1-.609-.613V134.286a.6.6,0,0,1,.089-.316l.986-1.622a.61.61,0,0,1,1.044,0l.988,1.622a.611.611,0,0,1,.089.316v12.422a.612.612,0,0,1-.611.613" transform="translate(334.091 97.233)" fill="#fff"/>
        <path id="Trazado_119470" data-name="Trazado 119470" d="M459.411,147.32h-1.972a.612.612,0,0,1-.611-.613V134.286a.6.6,0,0,1,.089-.316l.986-1.622a.61.61,0,0,1,1.044,0l.988,1.622a.612.612,0,0,1,.089.316v12.422a.612.612,0,0,1-.611.613" transform="translate(336.369 97.233)" fill="#fff"/>
        <path id="Trazado_119471" data-name="Trazado 119471" d="M462.5,147.32h-1.972a.612.612,0,0,1-.611-.613V134.286a.611.611,0,0,1,.089-.316l.986-1.622a.61.61,0,0,1,1.044,0l.988,1.622a.613.613,0,0,1,.09.316v12.422a.614.614,0,0,1-.613.613" transform="translate(338.646 97.233)" fill="#fff"/>
        <path id="Trazado_119472" data-name="Trazado 119472" d="M465.6,147.32h-1.972a.611.611,0,0,1-.609-.613V134.286a.61.61,0,0,1,.087-.316l.988-1.622a.61.61,0,0,1,1.044,0l.986,1.622a.6.6,0,0,1,.09.316v12.422a.614.614,0,0,1-.613.613" transform="translate(340.925 97.233)" fill="#fff"/>
        <path id="Trazado_119473" data-name="Trazado 119473" d="M468.693,147.32h-1.974a.611.611,0,0,1-.609-.613V134.286a.6.6,0,0,1,.089-.316l.986-1.622a.61.61,0,0,1,1.044,0l.988,1.622a.611.611,0,0,1,.089.316v12.422a.612.612,0,0,1-.611.613" transform="translate(343.203 97.233)" fill="#fff"/>
        <path id="Trazado_119474" data-name="Trazado 119474" d="M471.787,147.32h-1.972a.611.611,0,0,1-.611-.613V134.286a.6.6,0,0,1,.089-.316l.986-1.622a.61.61,0,0,1,1.044,0l.988,1.622a.612.612,0,0,1,.089.316v12.422a.612.612,0,0,1-.611.613" transform="translate(345.482 97.233)" fill="#fff"/>
        <path id="Trazado_119475" data-name="Trazado 119475" d="M483.383,105.428h89.106a.556.556,0,0,1,.361.978l-17.931,15.3a2.514,2.514,0,0,1-1.629.6H465.316a.778.778,0,0,1-.505-1.37l17.471-14.906c.455-.387.5-.6,1.1-.6" transform="translate(342.045 77.628)" fill="#dd5f0a"/>
        <path id="Trazado_119476" data-name="Trazado 119476" d="M465.53,166.785h35.157V121.529l-17.578-15.047L465.53,121.529Z" transform="translate(342.777 78.405)" fill="#fff"/>
        <rect id="Rectángulo_16825" data-name="Rectángulo 16825" width="88.372" height="45.255" transform="translate(843.464 199.933)" fill="#f4b856"/>
        <path id="Trazado_119477" data-name="Trazado 119477" d="M564.082,105.428H475.5a.556.556,0,0,0-.359.978l17.931,15.3a2.507,2.507,0,0,0,1.629.6h87.974a.778.778,0,0,0,.505-1.37l-17.471-14.906a2.509,2.509,0,0,0-1.629-.6" transform="translate(349.711 77.628)" fill="#f27512"/>
        <path id="Trazado_119478" data-name="Trazado 119478" d="M528.071,107.415a3.738,3.738,0,0,0-2.424-.894h-31.3a.575.575,0,0,0-.373,1.012L506.5,118.4a3.733,3.733,0,0,0,2.424.892h30.9a.725.725,0,0,0,.47-1.276Z" transform="translate(363.569 78.433)" fill="#fff"/>
        <path id="Trazado_119479" data-name="Trazado 119479" d="M502.946,109.736l-2.889-2.466a.783.783,0,0,0-.509-.188h-4.431a.12.12,0,0,0-.078.212l2.955,2.521a.78.78,0,0,0,.509.188h4.344a.152.152,0,0,0,.1-.267" transform="translate(364.474 78.847)" fill="#144f33"/>
        <path id="Trazado_119480" data-name="Trazado 119480" d="M501.685,109.817a.784.784,0,0,0,.509.188h4.344a.152.152,0,0,0,.1-.267l-2.891-2.466a.779.779,0,0,0-.507-.188h-4.431a.12.12,0,0,0-.078.212Z" transform="translate(367.191 78.848)" fill="#144f33"/>
        <path id="Trazado_119481" data-name="Trazado 119481" d="M505.376,109.817a.784.784,0,0,0,.509.188h4.344a.152.152,0,0,0,.1-.267l-2.891-2.466a.776.776,0,0,0-.507-.188H502.5a.12.12,0,0,0-.078.212Z" transform="translate(369.909 78.848)" fill="#144f33"/>
        <path id="Trazado_119482" data-name="Trazado 119482" d="M509.068,109.817a.779.779,0,0,0,.507.188h4.346a.152.152,0,0,0,.1-.267l-2.891-2.466a.784.784,0,0,0-.509-.188h-4.429a.12.12,0,0,0-.078.212Z" transform="translate(372.626 78.848)" fill="#144f33"/>
        <path id="Trazado_119483" data-name="Trazado 119483" d="M512.759,109.817a.777.777,0,0,0,.509.188h4.343a.153.153,0,0,0,.1-.267l-2.893-2.466a.779.779,0,0,0-.507-.188H509.88a.12.12,0,0,0-.078.212Z" transform="translate(375.344 78.848)" fill="#144f33"/>
        <path id="Trazado_119484" data-name="Trazado 119484" d="M505.569,111.967l-2.893-2.466a.783.783,0,0,0-.509-.188H497.74a.12.12,0,0,0-.08.212l2.953,2.521a.783.783,0,0,0,.509.188h4.344a.153.153,0,0,0,.1-.267" transform="translate(366.403 80.49)" fill="#144f33"/>
        <path id="Trazado_119485" data-name="Trazado 119485" d="M505.86,109.314h-4.431a.122.122,0,0,0-.078.214l2.955,2.519a.78.78,0,0,0,.507.189h4.346a.153.153,0,0,0,.1-.269l-2.891-2.466a.788.788,0,0,0-.507-.188" transform="translate(369.121 80.49)" fill="#144f33"/>
        <path id="Trazado_119486" data-name="Trazado 119486" d="M508.506,112.235h4.344a.152.152,0,0,0,.1-.267L510.06,109.5a.8.8,0,0,0-.509-.187H505.12a.121.121,0,0,0-.078.214L508,112.048a.789.789,0,0,0,.509.188" transform="translate(371.839 80.489)" fill="#144f33"/>
        <path id="Trazado_119487" data-name="Trazado 119487" d="M512.2,112.235h4.344a.152.152,0,0,0,.1-.267L513.75,109.5a.8.8,0,0,0-.509-.187H508.81a.121.121,0,0,0-.078.214l2.955,2.521a.793.793,0,0,0,.509.188" transform="translate(374.556 80.489)" fill="#144f33"/>
        <path id="Trazado_119488" data-name="Trazado 119488" d="M512.422,109.527l2.955,2.521a.792.792,0,0,0,.509.188h4.344a.152.152,0,0,0,.1-.267L517.44,109.5a.79.79,0,0,0-.509-.187H512.5a.122.122,0,0,0-.08.214" transform="translate(377.273 80.489)" fill="#144f33"/>
        <path id="Trazado_119489" data-name="Trazado 119489" d="M505.293,111.732a.783.783,0,0,0-.509-.188h-4.429a.12.12,0,0,0-.078.212l2.955,2.521a.779.779,0,0,0,.507.188h4.344a.151.151,0,0,0,.1-.267Z" transform="translate(368.331 82.132)" fill="#144f33"/>
        <path id="Trazado_119490" data-name="Trazado 119490" d="M508.983,111.732a.78.78,0,0,0-.509-.188h-4.429a.12.12,0,0,0-.078.212l2.955,2.521a.779.779,0,0,0,.507.188h4.344a.152.152,0,0,0,.1-.267Z" transform="translate(371.048 82.132)" fill="#144f33"/>
        <path id="Trazado_119491" data-name="Trazado 119491" d="M512.675,111.732a.783.783,0,0,0-.509-.188h-4.431a.12.12,0,0,0-.078.212l2.955,2.521a.782.782,0,0,0,.507.188h4.346a.152.152,0,0,0,.1-.267Z" transform="translate(373.765 82.132)" fill="#144f33"/>
        <path id="Trazado_119492" data-name="Trazado 119492" d="M516.365,111.732a.783.783,0,0,0-.509-.188h-4.431a.121.121,0,0,0-.078.212l2.957,2.521a.779.779,0,0,0,.507.188h4.344a.152.152,0,0,0,.1-.267Z" transform="translate(376.483 82.132)" fill="#144f33"/>
        <path id="Trazado_119493" data-name="Trazado 119493" d="M522.945,114.2l-2.889-2.466a.783.783,0,0,0-.509-.188h-4.431a.12.12,0,0,0-.078.212l2.955,2.521a.784.784,0,0,0,.509.188h4.344a.152.152,0,0,0,.1-.267" transform="translate(379.199 82.132)" fill="#144f33"/>
        <rect id="Rectángulo_16826" data-name="Rectángulo 16826" width="15.75" height="29.516" transform="translate(818.01 215.037)" fill="#144f33"/>
        <rect id="Rectángulo_16827" data-name="Rectángulo 16827" width="9.642" height="4.733" transform="translate(849.893 207.799)" fill="#144f33"/>
        <rect id="Rectángulo_16828" data-name="Rectángulo 16828" width="9.64" height="4.733" transform="translate(866.362 207.799)" fill="#144f33"/>
        <rect id="Rectángulo_16829" data-name="Rectángulo 16829" width="9.642" height="4.733" transform="translate(882.828 207.799)" fill="#144f33"/>
        <rect id="Rectángulo_16830" data-name="Rectángulo 16830" width="9.64" height="4.733" transform="translate(899.297 207.799)" fill="#144f33"/>
        <rect id="Rectángulo_16831" data-name="Rectángulo 16831" width="9.642" height="4.733" transform="translate(915.762 207.799)" fill="#144f33"/>
        <rect id="Rectángulo_16832" data-name="Rectángulo 16832" width="101.628" height="1.806" transform="translate(854.371 233.357)" fill="#f9e6cd"/>
        <rect id="Rectángulo_16833" data-name="Rectángulo 16833" width="101.628" height="1.806" transform="translate(854.371 240.506)" fill="#f9e6cd"/>
        <path id="Trazado_119494" data-name="Trazado 119494" d="M495.115,147.32h-1.972a.611.611,0,0,1-.609-.613V134.286a.609.609,0,0,1,.087-.316l.988-1.622a.61.61,0,0,1,1.044,0l.986,1.622a.6.6,0,0,1,.09.316v12.422a.614.614,0,0,1-.613.613" transform="translate(362.66 97.233)" fill="#fff"/>
        <path id="Trazado_119495" data-name="Trazado 119495" d="M498.211,147.32h-1.976a.611.611,0,0,1-.609-.613V134.286a.6.6,0,0,1,.089-.316l.986-1.622a.61.61,0,0,1,1.044,0l.988,1.622a.611.611,0,0,1,.089.316v12.422a.612.612,0,0,1-.609.613" transform="translate(364.937 97.233)" fill="#fff"/>
        <path id="Trazado_119496" data-name="Trazado 119496" d="M501.3,147.32h-1.972a.611.611,0,0,1-.611-.613V134.286a.6.6,0,0,1,.089-.316l.986-1.622a.61.61,0,0,1,1.044,0l.988,1.622a.611.611,0,0,1,.089.316v12.422a.612.612,0,0,1-.611.613" transform="translate(367.215 97.233)" fill="#fff"/>
        <path id="Trazado_119497" data-name="Trazado 119497" d="M504.4,147.32h-1.972a.612.612,0,0,1-.611-.613V134.286a.6.6,0,0,1,.089-.316l.986-1.622a.61.61,0,0,1,1.044,0l.988,1.622a.613.613,0,0,1,.09.316v12.422a.614.614,0,0,1-.613.613" transform="translate(369.493 97.233)" fill="#fff"/>
        <path id="Trazado_119498" data-name="Trazado 119498" d="M507.492,147.32h-1.972a.612.612,0,0,1-.611-.613V134.286a.611.611,0,0,1,.089-.316l.988-1.622a.61.61,0,0,1,1.044,0l.986,1.622a.6.6,0,0,1,.09.316v12.422a.614.614,0,0,1-.613.613" transform="translate(371.772 97.233)" fill="#fff"/>
        <path id="Trazado_119499" data-name="Trazado 119499" d="M510.586,147.32h-1.974a.611.611,0,0,1-.609-.613V134.286a.6.6,0,0,1,.089-.316l.986-1.622a.61.61,0,0,1,1.044,0l.986,1.622a.6.6,0,0,1,.09.316v12.422a.612.612,0,0,1-.611.613" transform="translate(374.05 97.233)" fill="#fff"/>
        <path id="Trazado_119500" data-name="Trazado 119500" d="M513.68,147.32h-1.972a.611.611,0,0,1-.611-.613V134.286a.581.581,0,0,1,.09-.316l.984-1.622a.61.61,0,0,1,1.043,0l.988,1.622a.61.61,0,0,1,.089.316v12.422a.612.612,0,0,1-.611.613" transform="translate(376.328 97.233)" fill="#fff"/>
        <path id="Trazado_119501" data-name="Trazado 119501" d="M516.774,147.32H514.8a.612.612,0,0,1-.611-.613V134.286a.594.594,0,0,1,.089-.316l.986-1.622a.61.61,0,0,1,1.043,0l.988,1.622a.613.613,0,0,1,.09.316v12.422a.614.614,0,0,1-.613.613" transform="translate(378.606 97.233)" fill="#fff"/>
        <path id="Trazado_119502" data-name="Trazado 119502" d="M519.867,147.32h-1.972a.611.611,0,0,1-.609-.613V134.286a.609.609,0,0,1,.087-.316l.988-1.622a.61.61,0,0,1,1.044,0l.986,1.622a.6.6,0,0,1,.09.316v12.422a.614.614,0,0,1-.613.613" transform="translate(380.885 97.233)" fill="#fff"/>
        <path id="Trazado_119503" data-name="Trazado 119503" d="M522.962,147.32h-1.974a.611.611,0,0,1-.609-.613V134.286a.6.6,0,0,1,.089-.316l.986-1.622a.61.61,0,0,1,1.044,0l.988,1.622a.61.61,0,0,1,.089.316v12.422a.612.612,0,0,1-.611.613" transform="translate(383.163 97.233)" fill="#fff"/>
        <path id="Trazado_119504" data-name="Trazado 119504" d="M526.056,147.32h-1.973a.611.611,0,0,1-.611-.613V134.286a.6.6,0,0,1,.089-.316l.986-1.622a.61.61,0,0,1,1.044,0l.988,1.622a.61.61,0,0,1,.089.316v12.422a.612.612,0,0,1-.611.613" transform="translate(385.441 97.233)" fill="#fff"/>
        <path id="Trazado_119505" data-name="Trazado 119505" d="M529.15,147.32h-1.972a.612.612,0,0,1-.611-.613V134.286a.6.6,0,0,1,.089-.316l.986-1.622a.61.61,0,0,1,1.044,0l.988,1.622a.613.613,0,0,1,.09.316v12.422a.614.614,0,0,1-.613.613" transform="translate(387.719 97.233)" fill="#fff"/>
        <path id="Trazado_119506" data-name="Trazado 119506" d="M532.243,147.32H530.27a.611.611,0,0,1-.609-.613V134.286a.609.609,0,0,1,.087-.316l.988-1.622a.61.61,0,0,1,1.043,0l.986,1.622a.6.6,0,0,1,.09.316v12.422a.614.614,0,0,1-.613.613" transform="translate(389.998 97.233)" fill="#fff"/>
        <path id="Trazado_119507" data-name="Trazado 119507" d="M535.338,147.32h-1.974a.611.611,0,0,1-.609-.613V134.286a.6.6,0,0,1,.089-.316l.986-1.622a.61.61,0,0,1,1.044,0l.988,1.622a.611.611,0,0,1,.089.316v12.422a.612.612,0,0,1-.611.613" transform="translate(392.275 97.233)" fill="#fff"/>
        <path id="Trazado_119508" data-name="Trazado 119508" d="M538.432,147.32h-1.972a.611.611,0,0,1-.611-.613V134.286a.6.6,0,0,1,.089-.316l.986-1.622a.61.61,0,0,1,1.044,0l.988,1.622a.613.613,0,0,1,.089.316v12.422a.612.612,0,0,1-.611.613" transform="translate(394.553 97.233)" fill="#fff"/>
        <path id="Trazado_119509" data-name="Trazado 119509" d="M541.526,147.32h-1.972a.612.612,0,0,1-.611-.613V134.286a.6.6,0,0,1,.089-.316l.986-1.622a.61.61,0,0,1,1.044,0l.988,1.622a.613.613,0,0,1,.09.316v12.422a.614.614,0,0,1-.613.613" transform="translate(396.831 97.233)" fill="#fff"/>
        <path id="Trazado_119510" data-name="Trazado 119510" d="M541.526,147.32h-1.972a.612.612,0,0,1-.611-.613V134.286a.6.6,0,0,1,.089-.316l.986-1.622a.61.61,0,0,1,1.044,0l.988,1.622a.613.613,0,0,1,.09.316v12.422a.614.614,0,0,1-.613.613" transform="translate(396.831 97.233)" fill="#fff"/>
        <path id="Trazado_119511" data-name="Trazado 119511" d="M544.619,147.32h-1.972a.611.611,0,0,1-.609-.613V134.286a.61.61,0,0,1,.087-.316l.988-1.622a.61.61,0,0,1,1.044,0l.986,1.622a.6.6,0,0,1,.09.316v12.422a.614.614,0,0,1-.613.613" transform="translate(399.11 97.233)" fill="#fff"/>
        <path id="Trazado_119512" data-name="Trazado 119512" d="M547.714,147.32H545.74a.611.611,0,0,1-.609-.613V134.286a.594.594,0,0,1,.089-.316l.986-1.622a.61.61,0,0,1,1.043,0l.988,1.622a.611.611,0,0,1,.089.316v12.422a.612.612,0,0,1-.611.613" transform="translate(401.388 97.233)" fill="#fff"/>
        <path id="Trazado_119513" data-name="Trazado 119513" d="M550.808,147.32h-1.972a.611.611,0,0,1-.611-.613V134.286a.6.6,0,0,1,.089-.316l.986-1.622a.61.61,0,0,1,1.043,0l.988,1.622a.611.611,0,0,1,.089.316v12.422a.613.613,0,0,1-.611.613" transform="translate(403.666 97.233)" fill="#fff"/>
        <path id="Trazado_119514" data-name="Trazado 119514" d="M1070.682,151.535H5.32a5.319,5.319,0,1,1,0-10.638H1070.682a5.319,5.319,0,0,1,0,10.638" transform="translate(0 103.745)" fill="#144f33"/>
      </g>
    </g>
    <circle id="Elipse_1279" data-name="Elipse 1279" cx="22" cy="22" r="22" transform="translate(938 1867)" fill="#529ad9"/>
    <circle id="Elipse_1280" data-name="Elipse 1280" cx="22" cy="22" r="22" transform="translate(1263 1867)" fill="#d9ae79"/>
    <text id="_2" data-name="2" transform="translate(951 1899)" fill="#fff" font-size="30" font-family="Helvetica-Bold, Helvetica" font-weight="700"><tspan x="0" y="0">2</tspan></text>
    <text id="_3" data-name="3" transform="translate(1276 1899)" fill="#fff" font-size="30" font-family="Helvetica-Bold, Helvetica" font-weight="700"><tspan x="0" y="0">3</tspan></text>
  </g>
</svg>
