<svg xmlns="http://www.w3.org/2000/svg" xmlns:xlink="http://www.w3.org/1999/xlink" width="78.596" height="78.595" viewBox="0 0 78.596 78.595">
  <defs>
    <clipPath id="clip-path">
      <rect id="Rectángulo_16880" data-name="Rectángulo 16880" width="45" height="41.23" fill="none"/>
    </clipPath>
  </defs>
  <g id="Grupo_15903" data-name="Grupo 15903" transform="translate(-3087.952 -8210.533)">
    <g id="Grupo_15901" data-name="Grupo 15901" transform="translate(3087.952 8210.533)">
      <g id="Grupo_15894" data-name="Grupo 15894">
        <circle id="Elipse_1187" data-name="Elipse 1187" cx="37.896" cy="37.896" r="37.896" transform="translate(0.604 2.138)" fill="#fff"/>
        <path id="Trazado_41393" data-name="Trazado 41393" d="M3127.25,8289.128a39.3,39.3,0,1,1,39.3-39.3A39.343,39.343,0,0,1,3127.25,8289.128Zm0-75.793a36.5,36.5,0,1,0,36.5,36.5A36.537,36.537,0,0,0,3127.25,8213.335Z" transform="translate(-3087.952 -8210.533)" fill="#a0a603"/>
        <circle id="Elipse_1188" data-name="Elipse 1188" cx="30.973" cy="30.973" r="30.973" transform="translate(8.325 8.324)" fill="#a0a603"/>
      </g>
    </g>
    <g id="Grupo_57093" data-name="Grupo 57093" transform="translate(3107.552 8229.58)">
      <g id="Grupo_57092" data-name="Grupo 57092" transform="translate(0 0)" clip-path="url(#clip-path)">
        <path id="Trazado_119695" data-name="Trazado 119695" d="M43.642,29.552A4.85,4.85,0,0,1,38.8,24.707V5.488a3.891,3.891,0,0,0-7.783,0V15.1a.8.8,0,1,1-1.6,0V5.488a5.488,5.488,0,1,1,10.977,0v7.294h7.294a.8.8,0,0,1,.8.8V24.707a4.849,4.849,0,0,1-4.844,4.845M40.394,14.379V24.707a3.247,3.247,0,0,0,6.495,0V14.379Z" transform="translate(-3.486 0)" fill="#fff"/>
        <path id="Trazado_119696" data-name="Trazado 119696" d="M26.73,46.064H.8a.8.8,0,0,1-.8-.8V41.6a.8.8,0,1,1,1.6,0v2.868H25.931V43.3a.8.8,0,1,1,1.6,0v1.963a.8.8,0,0,1-.8.8" transform="translate(0 -4.834)" fill="#fff"/>
        <path id="Trazado_119697" data-name="Trazado 119697" d="M.8,28.747a.8.8,0,0,1-.8-.8V26.671a.8.8,0,1,1,1.6,0v1.277a.8.8,0,0,1-.8.8" transform="translate(0 -3.066)" fill="#fff"/>
        <path id="Trazado_119698" data-name="Trazado 119698" d="M.8,35.85a.8.8,0,0,1-.8-.8V32.931a.8.8,0,0,1,1.6,0v2.121a.8.8,0,0,1-.8.8" transform="translate(0 -3.807)" fill="#fff"/>
        <path id="Trazado_119699" data-name="Trazado 119699" d="M.8,42.225a.8.8,0,0,1-.8-.8V40.149a.8.8,0,1,1,1.6,0v1.277a.8.8,0,0,1-.8.8" transform="translate(0 -4.663)" fill="#fff"/>
        <path id="Trazado_119700" data-name="Trazado 119700" d="M.8,24.4a.8.8,0,0,1-.8-.8V6.868A6.876,6.876,0,0,1,6.868,0H31.419a.8.8,0,1,1,0,1.6H6.868A5.277,5.277,0,0,0,1.6,6.868V23.6a.8.8,0,0,1-.8.8" transform="translate(0 0)" fill="#fff"/>
        <path id="Trazado_119701" data-name="Trazado 119701" d="M43.715,33.309H30.829a.8.8,0,1,1,0-1.6H43.715a.8.8,0,0,1,0,1.6" transform="translate(-3.558 -3.758)" fill="#fff"/>
        <path id="Trazado_119702" data-name="Trazado 119702" d="M25.168,10.463H14.778a.8.8,0,1,1,0-1.6h10.39a.8.8,0,1,1,0,1.6" transform="translate(-1.656 -1.051)" fill="#fff"/>
        <path id="Trazado_119703" data-name="Trazado 119703" d="M25.168,14.219H14.778a.8.8,0,0,1,0-1.6h10.39a.8.8,0,1,1,0,1.6" transform="translate(-1.656 -1.496)" fill="#fff"/>
        <path id="Trazado_119704" data-name="Trazado 119704" d="M10.935,14.923H4.867a.8.8,0,0,1-.8-.8V8.056a.8.8,0,0,1,.8-.8h6.068a.8.8,0,0,1,.8.8v6.069a.8.8,0,0,1-.8.8m-5.27-1.6h4.472V8.854H5.665Z" transform="translate(-0.482 -0.86)" fill="#fff"/>
        <path id="Trazado_119705" data-name="Trazado 119705" d="M21.073,34.2a1.851,1.851,0,0,1-1.163-.408l-2.83-2.265a1.865,1.865,0,0,1-.289-2.619l4.138-5.167a1.864,1.864,0,0,1,2.618-.289l2.831,2.265a1.866,1.866,0,0,1,.289,2.619L22.528,33.5a1.862,1.862,0,0,1-1.455.7m1.1-9.462L18.038,29.9a.265.265,0,0,0,.041.374l2.83,2.265a.265.265,0,0,0,.373-.041l4.139-5.168a.266.266,0,0,0-.041-.374l-2.831-2.265a.264.264,0,0,0-.373.041" transform="translate(-1.941 -2.73)" fill="#fff"/>
        <path id="Trazado_119706" data-name="Trazado 119706" d="M26.666,26.875a.8.8,0,0,1-.5-.175l-2.831-2.266a.8.8,0,0,1-.123-1.122l1.724-2.154a.8.8,0,0,1,1.122-.124L28.89,23.3a.8.8,0,0,1,.124,1.122L27.29,26.575a.8.8,0,0,1-.624.3m-1.707-3.189,1.584,1.268.725-.906-1.584-1.268Z" transform="translate(-2.73 -2.471)" fill="#fff"/>
        <path id="Trazado_119707" data-name="Trazado 119707" d="M30.38,25.933a.793.793,0,0,1-.5-.175L22.99,20.24a.8.8,0,0,1-.123-1.122l.517-.646a2.971,2.971,0,0,1,4.17-.462l3.507,2.808a2.964,2.964,0,0,1,.461,4.17L31,25.634a.8.8,0,0,1-.534.294.748.748,0,0,1-.088,0m-5.769-6.44,5.643,4.519a1.369,1.369,0,0,0-.194-1.947l-3.507-2.808a1.371,1.371,0,0,0-1.924.214Z" transform="translate(-2.689 -2.057)" fill="#fff"/>
        <path id="Trazado_119708" data-name="Trazado 119708" d="M18.507,37.065a.8.8,0,0,1-.5-.175l-2.83-2.266a.8.8,0,0,1-.123-1.122l1.724-2.154a.8.8,0,0,1,1.122-.124l2.83,2.266a.8.8,0,0,1,.124,1.122L19.13,36.765a.8.8,0,0,1-.536.294.725.725,0,0,1-.087.005M16.8,33.876l1.583,1.268.725-.906-1.583-1.268Z" transform="translate(-1.763 -3.679)" fill="#fff"/>
        <path id="Trazado_119709" data-name="Trazado 119709" d="M17.917,40.22a2.939,2.939,0,0,1-1.849-.651l-3.508-2.808a2.971,2.971,0,0,1-.461-4.17l.517-.647a.8.8,0,0,1,1.122-.123L20.63,37.34a.8.8,0,0,1,.123,1.122l-.517.646A2.943,2.943,0,0,1,18.248,40.2a3.007,3.007,0,0,1-.331.019M13.346,33.59a1.372,1.372,0,0,0,.213,1.925l3.507,2.808a1.369,1.369,0,0,0,1.924-.213c.019-.022-5.626-4.542-5.626-4.542Z" transform="translate(-1.357 -3.75)" fill="#fff"/>
        <path id="Trazado_119710" data-name="Trazado 119710" d="M25.819,34.608a.8.8,0,0,1-.5-.175l-1.938-1.551a.8.8,0,0,1-.124-1.123l1.774-2.214a.8.8,0,0,1,1.123-.124l1.938,1.552a.8.8,0,0,1,.124,1.122l-1.774,2.214a.794.794,0,0,1-.535.294.739.739,0,0,1-.088.005M25,32.134l.691.554.776-.969-.691-.554Z" transform="translate(-2.735 -3.465)" fill="#fff"/>
        <path id="Trazado_119711" data-name="Trazado 119711" d="M34.73,42.23a3.1,3.1,0,0,1-1.946-.686l-7.337-5.875a1.411,1.411,0,0,1-.219-1.981l2.143-2.676a1.411,1.411,0,0,1,1.981-.219l7.337,5.875A3.125,3.125,0,0,1,34.73,42.23m-8.138-7.69,7.19,5.758a1.527,1.527,0,1,0,1.908-2.384L28.5,32.156Z" transform="translate(-2.953 -3.612)" fill="#fff"/>
        <path id="Trazado_119712" data-name="Trazado 119712" d="M16.107,20.657H4.867a.8.8,0,0,1,0-1.6h11.24a.8.8,0,0,1,0,1.6" transform="translate(-0.482 -2.258)" fill="#fff"/>
        <path id="Trazado_119713" data-name="Trazado 119713" d="M16.107,24.633H4.867a.8.8,0,0,1,0-1.6h11.24a.8.8,0,0,1,0,1.6" transform="translate(-0.482 -2.73)" fill="#fff"/>
        <path id="Trazado_119714" data-name="Trazado 119714" d="M13.9,28.609H4.867a.8.8,0,0,1,0-1.6H13.9a.8.8,0,1,1,0,1.6" transform="translate(-0.482 -3.201)" fill="#fff"/>
      </g>
    </g>
  </g>
</svg>
