<svg xmlns="http://www.w3.org/2000/svg" xmlns:xlink="http://www.w3.org/1999/xlink" width="110.916" height="153" viewBox="0 0 110.916 153">
  <defs>
    <clipPath id="clip-path">
      <rect id="Rectángulo_15064" data-name="Rectángulo 15064" width="79.519" height="101.729" fill="none"/>
    </clipPath>
    <clipPath id="clip-path-2">
      <path id="Trazado_114131" data-name="Trazado 114131" d="M35.945,73.576c.287,8.523-1.427,25.752-1.427,25.752,5.75,2.982,8.282-.7,8.282-.7-.466-6.707-.178-25.8-.178-25.8A5.23,5.23,0,0,0,39.4,71.509a4.4,4.4,0,0,0-3.456,2.067" transform="translate(-34.518 -71.509)" fill="none"/>
    </clipPath>
    <linearGradient id="linear-gradient" x1="-0.764" y1="1.949" x2="-0.731" y2="1.949" gradientUnits="objectBoundingBox">
      <stop offset="0" stop-color="#6e5d00"/>
      <stop offset="0.133" stop-color="#6e5d00"/>
      <stop offset="0.471" stop-color="#4b3200"/>
      <stop offset="0.619" stop-color="#383007"/>
      <stop offset="0.934" stop-color="#003138"/>
      <stop offset="1" stop-color="#003138"/>
    </linearGradient>
    <clipPath id="clip-path-3">
      <path id="Trazado_114132" data-name="Trazado 114132" d="M42.716,0a.62.62,0,0,0-.573.452c-4.124,12.736-10.6,25.234-22.6,27.506-.155.022-.155.26-.055.361,2.345,2.357,6.443.757,9.891-1.56-.509.513-1.031,1.023-1.594,1.5-1.9,1.6-4.225,3.966-6.591,4.351-.026,0-.053.006-.079.006s-.028.014-.045.022H21.06a.239.239,0,0,0-.089.063.12.12,0,0,0-.011.027.234.234,0,0,0,.081.342,16.3,16.3,0,0,0,8.793.732,17.524,17.524,0,0,1-4.571,5.3,33.481,33.481,0,0,1-8.406,5.151c-.582.019-1.142.038-1.64.066-.2.009-.262.281-.116.431.128.128.276.244.417.361-.022.3.113.6.409.575.112,0,.234-.027.348-.043,1.819,1.05,4.29,1.165,6.737.861a12.255,12.255,0,0,1-2.965,2.133,9.052,9.052,0,0,1-2.984.076c-.123-.015-.2.19-.119.294.032.034.067.057.095.091-.135-.014-.165.214-.07.3a2.873,2.873,0,0,0,1.208.683,5.491,5.491,0,0,0,2.779.952,16.625,16.625,0,0,1-7.112,2c-.286-.018-.572-.056-.863-.1-.316-.12-.633-.248-.943-.386-.561-.256-.865.589-.58,1.078,1.566,2.7,4.946,3.792,7.865,4.218-.335.448-.683.885-1.053,1.3a27.463,27.463,0,0,1-9.933,6.892,16.638,16.638,0,0,1-4.485-.493.2.2,0,0,0-.2.29,6.407,6.407,0,0,0,4.986,3.2c-1.258.3-2.525.561-3.8.814-.211.042-.146.375.023.413a17.971,17.971,0,0,0,7.54-.123c-.747.593-1.473,1.13-2.124,1.605A14.429,14.429,0,0,1,2,74.4c-.612-.151-1.22-.294-1.837-.422-.142-.03-.205.21-.124.324a.842.842,0,0,0,.065.076.18.18,0,0,0-.1.174v.006a.184.184,0,0,0,.061.138,7.678,7.678,0,0,0,.842.641c2.736,2.975,6.51,3.8,10.4,3.615a12.567,12.567,0,0,1-4.877.937c-.641-.082-1.263-.177-1.85-.286-.428-.081-.511.623-.24.879,5.6,5.353,14.727,2.926,21.624.193a64.588,64.588,0,0,1-2.834,7.55c-.073.169.091.359.219.222.494-.522.983-1.035,1.465-1.564-.236.333-.46.675-.711.994-.1.129.04.317.156.205,3.111-3.136,6.115-5.864,8.492-9.772a19.3,19.3,0,0,0,2.009,5.995c.074.152.276.027.2-.13A15.693,15.693,0,0,1,33.8,80.457c.277.527.564,1.025.848,1.487,1.481,2.394,3.432,4.194,4.973,6.5a7.9,7.9,0,0,0,3.062,3.065c.12.061.181-.123.123-.224a23.02,23.02,0,0,1-1.244-2.6c-.741-2.561-.665-5.614-.862-8.2-.074-.941-.111-1.9-.145-2.86,1.238,3.263,3.512,5.984,5.478,8.555.09.114.233-.048.15-.166a37.517,37.517,0,0,1-2.693-4.638,24.171,24.171,0,0,0,4.134,3.679c3.837,2.64,8.285,3.2,12.6,3.981.584.1.684-.955.188-1.192-1.177-.552-2.356-1.008-3.524-1.445a.368.368,0,0,0-.148-.461,7.745,7.745,0,0,1-3.182-2.851c6.669,5.626,16.095,7.432,22.983,2.447.256-.184.129-.725-.181-.616-.288.1-.582.171-.878.256a.321.321,0,0,0-.124-.047,20.042,20.042,0,0,1-9.637-4.475c.673.3,1.348.594,2.027.892.328.148.466-.443.166-.612a24.549,24.549,0,0,1-4.85-3.231,22.593,22.593,0,0,0,5.661,1.473c3.1.342,8.639.765,10.725-2.727.209-.342-.143-.793-.444-.592a7.872,7.872,0,0,1-1.662.816.586.586,0,0,0-.462-.6c-4.037-.692-8.227-5.581-11.046-9.01-.959-1.164-1.849-2.357-2.695-3.579,1.994,1.094,4.124,1.72,6.194,2.646.25.115.433-.341.208-.514-2.571-1.9-5.6-2.545-8.039-4.764-.071-.07-.142-.143-.214-.208-.322-.529-.646-1.056-.955-1.6a24.837,24.837,0,0,0,13.563.052c.586-.161.518-1.245-.081-1.268-.408-.016-.821-.034-1.228-.052a.466.466,0,0,0-.366-.42A23.788,23.788,0,0,1,60.7,51.372c-.369-.322-.74-.673-1.1-1.029a15.485,15.485,0,0,0,11.283-1.834c.423-.257.2-.979-.228-.941.02-.275-.109-.585-.377-.585-6.2.053-10.891-3.577-14.646-8.6,3.139,2.136,6.227,3.234,9.869,1.976.3-.1.2-.623-.1-.561-2.414.493-5.052-.908-7.26-2.747a11.824,11.824,0,0,0,3.955.238c.4-.042.458-.727.036-.785a14.119,14.119,0,0,1-9.627-6.359c-.217-.347-.44-.689-.663-1.021-.238-.409-.448-.827-.656-1.24a18.285,18.285,0,0,0,7.521,4.87c.463.156.656-.619.236-.851a19.664,19.664,0,0,1-6.6-6.294A15.082,15.082,0,0,0,59.9,27.652c.322.006.352-.579.028-.61-3.845-.319-7.483-4.391-10.013-7.8a7.7,7.7,0,0,0,3.07,1.59c.135.028.205-.209.068-.252-6.343-1.9-7.563-12.346-8.836-18.593a.736.736,0,0,0-.94-.6c-.019-.294-.034-.585-.067-.879A.506.506,0,0,0,42.716,0Z" fill="none"/>
    </clipPath>
    <linearGradient id="linear-gradient-2" x1="0.077" y1="1.176" x2="0.088" y2="1.176" gradientUnits="objectBoundingBox">
      <stop offset="0" stop-color="#057046"/>
      <stop offset="0.014" stop-color="#057046"/>
      <stop offset="1" stop-color="#169300"/>
    </linearGradient>
    <clipPath id="clip-path-4">
      <rect id="Rectángulo_15063" data-name="Rectángulo 15063" width="79.52" height="101.729" fill="none"/>
    </clipPath>
    <clipPath id="clip-path-5">
      <rect id="Rectángulo_15052" data-name="Rectángulo 15052" width="33.942" height="25.472" fill="none"/>
    </clipPath>
    <clipPath id="clip-path-6">
      <path id="Trazado_114133" data-name="Trazado 114133" d="M64.963,39.9c-3.641,1.258-6.729.161-9.869-1.976a27.078,27.078,0,0,0,4.8,5.049,18.363,18.363,0,0,0,2.716,1.791c-.541-.1-1.068-.22-1.562-.333a19.094,19.094,0,0,1-4.624-1.682,39.394,39.394,0,0,1-5.691-4.437c.815,3.188,3.816,7.629,3.535,7.407a19.74,19.74,0,0,1-5.988-7.242c-.2,4.211.257,8.463-.254,12.675-.051.41.186,1.316-.064,1.013-1.1-1.336-5.309-12.251-5.938-13.487-.967,3.035-3.939,8.571-4.008,8.314-.625-2.414-.158-5.026.071-7.545-1.953,1.864-7.26,4.114-6.861,3.7,3.569-3.743,7.032-8.793,7.713-14.618a60.855,60.855,0,0,1,1.3,8.17c1.773-2.787,2.532-10.312,2.713-9.927,1.667,3.569,2.506,7.567,3.946,11.253.573-2.835-.362-9.663-.081-9.368a36.362,36.362,0,0,1,2.545,3.306,14.423,14.423,0,0,0,2.446,2.5,48.785,48.785,0,0,1-2.469-6.171,12.789,12.789,0,0,0,6.083,5.082,13.538,13.538,0,0,0,1.712,1.141,12.511,12.511,0,0,0,4.464,1.532c.423.058.371.743-.035.785a11.822,11.822,0,0,1-3.955-.238c2.209,1.839,4.846,3.24,7.259,2.747.3-.062.4.456.1.561" transform="translate(-31.202 -26.754)" fill="none"/>
    </clipPath>
    <linearGradient id="linear-gradient-3" x1="-0.759" y1="1.959" x2="-0.732" y2="1.959" gradientUnits="objectBoundingBox">
      <stop offset="0" stop-color="#ffe23a"/>
      <stop offset="0.986" stop-color="#004227"/>
      <stop offset="1" stop-color="#004227"/>
    </linearGradient>
    <clipPath id="clip-path-7">
      <rect id="Rectángulo_15054" data-name="Rectángulo 15054" width="26.215" height="27.529" fill="none"/>
    </clipPath>
    <clipPath id="clip-path-8">
      <path id="Trazado_114134" data-name="Trazado 114134" d="M59.32,27.65c-.086,0-.167-.019-.252-.019-.128-.052-.256-.09-.386-.151a.409.409,0,0,1-.2.018c-3.839-.551-7.257-3.454-10.5-5.947a19.831,19.831,0,0,0,2.08,2.584c.275.318.023,1.022-.375.945-2.431-.489-4.678-2.478-6.4-4.712.154,1.135.424,2.242.477,3.4a.45.45,0,0,1-.789.353,27.67,27.67,0,0,1-2.236-5.131,29.085,29.085,0,0,1-2.482,5.381c-.24.342-.678.21-.683-.266-.014-1.439.151-2.849.267-4.276a13.4,13.4,0,0,0-3.9,3.359c-.329.4-.8-.237-.48-.642,2.332-2.831,3.444-6.628,5.181-9.957a.328.328,0,0,1,.622.133,21.324,21.324,0,0,0,.418,2.731,10.417,10.417,0,0,0,1.08-4.628c.019-.394.437-.579.651-.29.856,1.174,1.464,2.557,2.252,3.777C43.414,11.522,42.8,8.8,42.6,6A58.255,58.255,0,0,1,42.455.121a.607.607,0,0,1,.176.385c.034.294.048.584.067.878a.659.659,0,0,1,.479.03.779.779,0,0,1,.461.571c1.274,6.247,2.493,16.7,8.836,18.593.136.044.067.281-.068.252a7.676,7.676,0,0,1-3.069-1.591,31.036,31.036,0,0,0,4.924,5.4A9.667,9.667,0,0,0,59.3,27.033c.018,0,.034.006.052.006a.23.23,0,0,1,.179.118c.106.18.031.493-.207.493" transform="translate(-33.358 -0.121)" fill="none"/>
    </clipPath>
    <linearGradient id="linear-gradient-4" x1="-0.738" y1="2.833" x2="-0.711" y2="2.833" xlink:href="#linear-gradient-3"/>
    <clipPath id="clip-path-9">
      <rect id="Rectángulo_15056" data-name="Rectángulo 15056" width="58.2" height="28.566" fill="none"/>
    </clipPath>
    <clipPath id="clip-path-10">
      <path id="Trazado_114135" data-name="Trazado 114135" d="M18.625,63.456c1.566-.438,3.055-.77,4.5-1.208,1.508-1.482,3.217-2.585,4.737-4.062,1.584-1.535,2.565-3.815,4.162-5.235.29-.256.73-.085.71.4a10.043,10.043,0,0,1-.221,1.929c-.158.879-.756,3.6.64,1.468a18.712,18.712,0,0,1,1.8-2.894c.187-.189.419-.113.544.115.763,1.42.262,2.974.061,4.532.954-1.7,1.391-3.725,2.428-5.388a.317.317,0,0,1,.591.034c.906,2.009.724,4.313.582,6.566.661-2.028,1.086-4.137,1.7-6.214a.311.311,0,0,1,.6-.062c1.151,2.685,1.477,5.7,2.282,8.533.246-3.065.07-6.115.017-9.2,0-.347.429-.551.6-.267a72.411,72.411,0,0,1,6.209,13.677,79.59,79.59,0,0,0-1.339-11.82c-.074-.4.36-.674.583-.37A53.134,53.134,0,0,0,55.4,61.033c1.653,1.6,3.37,3.107,5.078,4.632A36.7,36.7,0,0,1,57.706,61.2c-1.249-2.647-2.908-5.126-3.872-7.949-.08-.237.136-.57.337-.374a73.056,73.056,0,0,0,5.7,5.634c.209.166.435.313.656.471.151.251.3.509.455.76.071.066.143.138.214.209.1.091.212.166.317.257,2.376,2,5.26,2.684,7.72,4.508.227.172.044.628-.207.514-2.07-.927-4.2-1.553-6.2-2.647.846,1.222,1.737,2.414,2.7,3.579,2.337,2.849,5.621,6.688,8.979,8.312a7.626,7.626,0,0,0,2.066.7.829.829,0,0,1,.121.049c-4.515,1.315-9.783-.467-13.651-2.85A26.807,26.807,0,0,1,58,68.354c-.588-.594-1.14-1.225-1.688-1.872a10.08,10.08,0,0,1-.94-1.245l-.261.993a13.663,13.663,0,0,0,.576,1.915,34.042,34.042,0,0,0,2.686,6.015c1.3,2.189,2.987,3.972,4.338,6.109.267.423-.183.9-.5.551-2.945-3.188-6.9-4.471-10.327-6.709a18.132,18.132,0,0,1-6.4-7.572c.412,2.841,1.555,5.507,1.923,8.37.058.427-.386.77-.638.409a31.334,31.334,0,0,1-3.025-6.338c-.859-2.1-1.589-4.741-2.872-6.561-.985,2.969-1.272,6.542-3.374,8.708a.364.364,0,0,1-.629-.243c-.288-1.965.675-5.353-.2-7.2-.8,2.034-1.831,4.19-3.693,4.818a.391.391,0,0,1-.461-.357c-.153-1.89.638-3.445,1.139-5.144a13.424,13.424,0,0,1-2.366,2.313c-.244.177-.446-.148-.4-.413a13.088,13.088,0,0,1,.845-2.836c.722-1.848.434-1.364-.649-.337-1.393,1.315-2.662,2.37-4.455,2.57a.187.187,0,0,1-.165-.289,24.889,24.889,0,0,0,2.142-3.579c-2.955,2.4-6.38,3.925-9.956,3.445a.221.221,0,0,1-.031-.417" transform="translate(-18.491 -52.376)" fill="none"/>
    </clipPath>
    <linearGradient id="linear-gradient-5" x1="-0.316" y1="1.036" x2="-0.298" y2="1.036" xlink:href="#linear-gradient-3"/>
    <clipPath id="clip-path-11">
      <rect id="Rectángulo_15058" data-name="Rectángulo 15058" width="21.741" height="12.381" fill="none"/>
    </clipPath>
    <clipPath id="clip-path-12">
      <path id="Trazado_114136" data-name="Trazado 114136" d="M50.785,45.167c.322.319.648.628.974.937a29.275,29.275,0,0,0,2.685,1.972,23.005,23.005,0,0,1-3.1-2.674c-.034-.035.018-.106.052-.072A30.53,30.53,0,0,0,56.142,48.6a51.238,51.238,0,0,1,4.714,3.93,19.147,19.147,0,0,0,5.593,3.046c.911.332,1.909.509,2.867.774a24.874,24.874,0,0,0,2.872.39c.095,0,.1.175.014.2-.343.091-.687.142-1.031.2a.242.242,0,0,1-.163.355,15.556,15.556,0,0,1-2.859-.189c-6.779-.374-13.668-5.568-17.592-11.815-.11-.18.065-.489.228-.323" transform="translate(-50.523 -45.119)" fill="none"/>
    </clipPath>
    <linearGradient id="linear-gradient-6" x1="-4.203" y1="2.734" x2="-4.126" y2="2.734" xlink:href="#linear-gradient-3"/>
    <clipPath id="clip-path-13">
      <rect id="Rectángulo_15060" data-name="Rectángulo 15060" width="76.685" height="75.644" fill="none"/>
    </clipPath>
    <clipPath id="clip-path-14">
      <path id="Trazado_114137" data-name="Trazado 114137" d="M.039,74.03c-.081-.114-.017-.352.125-.324.617.128,1.225.271,1.837.422a15.045,15.045,0,0,0,6.056-1.358,13.7,13.7,0,0,0,2.229-1.3c.65-.475,1.377-1.011,2.123-1.605a17.983,17.983,0,0,1-7.539.123c-.171-.038-.234-.371-.023-.414,1.271-.252,2.537-.513,3.8-.812a6.677,6.677,0,0,1-4.048-1.934,6.5,6.5,0,0,1-.938-1.263.2.2,0,0,1,.2-.29,16.638,16.638,0,0,0,4.485.493,16.13,16.13,0,0,0,2.15-.945,29.45,29.45,0,0,0,7.782-5.947c.371-.418.719-.856,1.054-1.3-2.778-.408-5.954-1.429-7.608-3.857-.083-.123-.181-.233-.256-.361-.285-.489.019-1.335.58-1.079.31.138.626.267.943.386.291.047.577.085.863.1a16.656,16.656,0,0,0,7.112-2c-.225-.014-.437-.049-.652-.081a5.571,5.571,0,0,1-1.709-.623,4.108,4.108,0,0,1-.419-.247,2.889,2.889,0,0,1-1.207-.684c-.095-.085-.066-.313.07-.3-.027-.033-.063-.057-.095-.091-.084-.1,0-.309.12-.294a9.048,9.048,0,0,0,2.983-.076,12.223,12.223,0,0,0,2.964-2.133c-.111.014-.224.022-.337.034a10.7,10.7,0,0,1-6.4-.894c-.114.015-.236.038-.348.043a.322.322,0,0,1-.34-.2.743.743,0,0,1-.069-.37c-.141-.117-.288-.233-.417-.361-.148-.151-.085-.423.116-.431.5-.029,1.058-.047,1.639-.066a22.538,22.538,0,0,0,4.775-2.523c1.237-.823,2.444-1.725,3.632-2.627a17.524,17.524,0,0,0,4.571-5.3,16.966,16.966,0,0,1-7.844-.387,9.141,9.141,0,0,1-.949-.347.234.234,0,0,1-.081-.342c.005-.009.005-.019.011-.027a.232.232,0,0,1,.087-.063h.01c.016-.008.028-.022.045-.022s.053-.006.079-.006c2.365-.385,4.689-2.756,6.592-4.351.562-.474,1.084-.984,1.593-1.5-3.45,2.314-7.546,3.915-9.891,1.558-.1-.1-.1-.339.054-.361.292-.057.567-.148.851-.214.031.019.059.043.087.061a5.787,5.787,0,0,0,.954-.071,19.742,19.742,0,0,0,5.959-2.238c3.915-2.127,6.29-5.815,9.1-9.538.158-.205.476.039.38.294a22.639,22.639,0,0,1-3.491,6.052,18.67,18.67,0,0,1-2.447,4.076c.228-.157.46-.313.677-.479a31.829,31.829,0,0,1,3.932-3.06c.263-.142.473.233.276.485-.512.664-1.051,1.292-1.6,1.886a28.234,28.234,0,0,1-7.1,6.274,15.756,15.756,0,0,0,1.951-.241,14.981,14.981,0,0,0,9.421-5.619c.158-.2.443.093.3.312a33.633,33.633,0,0,1-2.122,3.017c-2.983,5.187-6.746,9.7-11.089,12.575a39.149,39.149,0,0,0,9.454-7.135c.252-.257.537.156.328.442-.94,1.3-1.786,2.5-2.739,3.6-2.776,3.956-6.155,7.91-10.019,10.038h0a18.169,18.169,0,0,0,8.335-4.964c.163-.171.439.086.292.3a17.137,17.137,0,0,1-1.921,2.314,16.173,16.173,0,0,1-2.4,2.845,20.342,20.342,0,0,1-4.233,2.765c5.036-1.1,10.253-4.88,13.851-9.287.3-.367.678.141.516.536a10.589,10.589,0,0,1-1.795,2.813c-.681,1.238-1.31,2.488-1.975,3.7a.134.134,0,0,1,.054.177c-.432.755-.868,1.506-1.331,2.228,1.254-1.278,2.456-2.637,3.64-4.005a16.245,16.245,0,0,0,.8-1.763c.056-.152.287-.137.257.057A16.063,16.063,0,0,1,33.747,53.2c-.251.322-.693-.057-.572-.452a14.1,14.1,0,0,1,1.092-2.584,30.09,30.09,0,0,1-3.952,4.727,17.912,17.912,0,0,1-2.251,1.767c-1.082,1.2-2.191,2.37-3.35,3.525a22.874,22.874,0,0,1-6.993,4.356,28.358,28.358,0,0,1-7.494,2.285c4.175.561,8.768.774,12.441-1.723.194-.134.46.181.3.408a6.579,6.579,0,0,1-1.8,1.786,26.561,26.561,0,0,1-9.809,6.247c-1,.356-2.054.713-3.132,1.026,5.905-.637,12.269-.452,16.753-5.767.15-.177.407.08.273.285-.4.622-.836,1.419-1.311,2.157a.2.2,0,0,1-.015.1c-2.255,4.014-4.9,6.656-8.19,8.133.743.005,1.484-.006,2.223-.054a14.954,14.954,0,0,0,6.482-1.757c1.692-.944,2.756-2.964,3.874-4.67a.112.112,0,0,1,.207.081,8.651,8.651,0,0,1-.171,1.151.077.077,0,0,1,.015.075c-.645,2.2-1.081,5.068-1.879,7.653.433-.537.867-1.068,1.29-1.625,2.305-3.017,3.473-6.775,4.874-10.4.023-.058.107-.091.131-.015s.03.129.044.2c.039-.043.107-.035.1.043-.009.1-.009.213-.015.316a5.564,5.564,0,0,1,.048,1.3,22.019,22.019,0,0,0,1.564,4.861c.692,1.8,1.42,3.591,2.26,5.3a28.208,28.208,0,0,0,3.392,5.245,21.925,21.925,0,0,1-.807-5.507c-.061-4.014-.182-9.178,1.618-12.722.078-.152.245-.028.216.123-.037.2-.061.414-.095.619.1-.029.212.022.2.184-.242,2.485,1.4,5.25,2.38,7.331a16.089,16.089,0,0,0,4.762,5.782,24.418,24.418,0,0,0,6.582,3.563A20.866,20.866,0,0,1,48.705,74.9c-.038-.2.189-.286.264-.119.324.7.67,1.4,1.035,2.1.12-.246.372-.39.621-.193,4.279,3.4,8.484,6.365,13.487,8.043a17.049,17.049,0,0,0,8.434.365c.572-.1,1.17-.275,1.776-.447.35.081.695.152,1.041.215a.336.336,0,0,1,.125.047c.3-.085.589-.153.879-.256.309-.109.436.431.18.616-.312.229-.637.422-.959.628-6.58,4.039-15.1,2.391-21.417-2.6.064.081.125.162.187.232A12.518,12.518,0,0,0,56.5,85.545c.083.039.157.1.242.13.047.016.063.069.091.108.431.305.875.584,1.326.845.751.29,1.5.6,2.255.951a.538.538,0,0,1,.257.3c.16.388,0,.974-.447.9-3.671-.664-7.429-1.178-10.831-2.936a15.86,15.86,0,0,1-1.771-1.045,24.094,24.094,0,0,1-4.135-3.678,37.517,37.517,0,0,0,2.693,4.638c.083.118-.06.28-.15.166-1.881-2.46-4.037-5.07-5.3-8.154.016,1.131.028,2.244.026,3.333.055,1.016.094,2.089.165,3.158a20.066,20.066,0,0,0,.642,4.167,22.84,22.84,0,0,0,1.243,2.6c.058.1,0,.286-.123.224a7.9,7.9,0,0,1-3.062-3.065c-1.122-1.682-2.458-3.093-3.673-4.664a21.458,21.458,0,0,1-1.3-1.838c-.286-.461-.573-.96-.849-1.487a15.647,15.647,0,0,0,1.155,3.718c.071.159-.129.282-.2.13a19.333,19.333,0,0,1-2.009-5.995c-2.376,3.908-5.38,6.636-8.492,9.772-.116.112-.254-.076-.155-.205.223-.284.427-.593.64-.889-.208.216-.412.432-.621.633-.26.276-.516.546-.774.826a.108.108,0,0,1-.153.019.191.191,0,0,1-.066-.241,65.3,65.3,0,0,0,2.614-6.87c.071-.229.149-.453.22-.681-6.9,2.732-16.021,5.16-21.624-.194-.271-.256-.188-.959.239-.878.554.1,1.146.19,1.752.271a.438.438,0,0,1,.309-.171c.84-.072,1.682-.1,2.527-.1a13.32,13.32,0,0,0,2.14-.651c-3.633.175-7.156-.561-9.836-3.083-.188-.177-.379-.337-.561-.532a7.574,7.574,0,0,1-.841-.641A.2.2,0,0,1,.1,74.105a.876.876,0,0,1-.066-.075" transform="translate(0 -15.61)" fill="none"/>
    </clipPath>
    <linearGradient id="linear-gradient-7" x1="0.119" y1="0.98" x2="0.13" y2="0.98" gradientUnits="objectBoundingBox">
      <stop offset="0" stop-color="#004b14"/>
      <stop offset="0.71" stop-color="#0c498d"/>
      <stop offset="1" stop-color="#005667"/>
    </linearGradient>
    <clipPath id="clip-path-15">
      <rect id="Rectángulo_15062" data-name="Rectángulo 15062" width="20.04" height="8.444" fill="none"/>
    </clipPath>
    <clipPath id="clip-path-16">
      <path id="Trazado_114138" data-name="Trazado 114138" d="M52.693,41.417c.641.519,1.231,1.054,1.81,1.587a25.877,25.877,0,0,0,7.1,2.974c3.65,1.025,7.25.7,10.953.935.085.005.107.148.031.2a9.021,9.021,0,0,1-3.154,1.244C63.676,51.679,54.68,49.488,52.6,41.5c-.015-.06.053-.112.1-.079" transform="translate(-52.595 -41.407)" fill="none"/>
    </clipPath>
    <linearGradient id="linear-gradient-8" x1="-2.319" y1="3.37" x2="-2.274" y2="3.37" xlink:href="#linear-gradient-7"/>
  </defs>
  <g id="Grupo_57137" data-name="Grupo 57137" transform="translate(-609.084 -9965.5)">
    <g id="Grupo_55619" data-name="Grupo 55619" transform="translate(609.084 9991.134)">
      <g id="Grupo_55655" data-name="Grupo 55655" clip-path="url(#clip-path)">
        <g id="Grupo_55620" data-name="Grupo 55620" transform="translate(35.115 72.746)">
          <g id="Grupo_55619-2" data-name="Grupo 55619" clip-path="url(#clip-path-2)">
            <rect id="Rectángulo_15049" data-name="Rectángulo 15049" width="31.058" height="9.297" transform="translate(-1.019 30.767) rotate(-88.103)" fill="url(#linear-gradient)"/>
          </g>
        </g>
        <g id="Grupo_55622" data-name="Grupo 55622">
          <g id="Grupo_55621" data-name="Grupo 55621" clip-path="url(#clip-path-3)">
            <rect id="Rectángulo_15050" data-name="Rectángulo 15050" width="94.161" height="82.695" transform="translate(-3.071 91.472) rotate(-88.103)" fill="url(#linear-gradient-2)"/>
          </g>
        </g>
        <g id="Grupo_55654" data-name="Grupo 55654">
          <g id="Grupo_55653" data-name="Grupo 55653" clip-path="url(#clip-path-4)">
            <g id="Grupo_55627" data-name="Grupo 55627" transform="translate(31.742 27.216)" opacity="0.5" style="mix-blend-mode: screen;isolation: isolate">
              <g id="Grupo_55626" data-name="Grupo 55626">
                <g id="Grupo_55625" data-name="Grupo 55625" clip-path="url(#clip-path-5)">
                  <g id="Grupo_55624" data-name="Grupo 55624" transform="translate(0 0)">
                    <g id="Grupo_55623" data-name="Grupo 55623" clip-path="url(#clip-path-6)">
                      <rect id="Rectángulo_15051" data-name="Rectángulo 15051" width="38.599" height="42.41" transform="matrix(0.441, -0.897, 0.897, 0.441, -10.704, 20.64)" fill="url(#linear-gradient-3)"/>
                    </g>
                  </g>
                </g>
              </g>
            </g>
            <g id="Grupo_55632" data-name="Grupo 55632" transform="translate(33.935 0.123)" opacity="0.6" style="mix-blend-mode: screen;isolation: isolate">
              <g id="Grupo_55631" data-name="Grupo 55631">
                <g id="Grupo_55630" data-name="Grupo 55630" clip-path="url(#clip-path-7)">
                  <g id="Grupo_55629" data-name="Grupo 55629" transform="translate(0 0)">
                    <g id="Grupo_55628" data-name="Grupo 55628" clip-path="url(#clip-path-8)">
                      <rect id="Rectángulo_15053" data-name="Rectángulo 15053" width="37.928" height="37.724" transform="translate(-13.447 17.558) rotate(-53)" fill="url(#linear-gradient-4)"/>
                    </g>
                  </g>
                </g>
              </g>
            </g>
            <g id="Grupo_55637" data-name="Grupo 55637" transform="translate(18.811 53.281)" opacity="0.4" style="mix-blend-mode: screen;isolation: isolate">
              <g id="Grupo_55636" data-name="Grupo 55636">
                <g id="Grupo_55635" data-name="Grupo 55635" clip-path="url(#clip-path-9)">
                  <g id="Grupo_55634" data-name="Grupo 55634" transform="translate(0 0)">
                    <g id="Grupo_55633" data-name="Grupo 55633" clip-path="url(#clip-path-10)">
                      <rect id="Rectángulo_15055" data-name="Rectángulo 15055" width="58.693" height="63.729" transform="translate(-14.112 17.811) rotate(-51.975)" fill="url(#linear-gradient-5)"/>
                    </g>
                  </g>
                </g>
              </g>
            </g>
            <g id="Grupo_55642" data-name="Grupo 55642" transform="translate(51.397 45.9)" opacity="0.4" style="mix-blend-mode: screen;isolation: isolate">
              <g id="Grupo_55641" data-name="Grupo 55641">
                <g id="Grupo_55640" data-name="Grupo 55640" clip-path="url(#clip-path-11)">
                  <g id="Grupo_55639" data-name="Grupo 55639" transform="translate(0 0)">
                    <g id="Grupo_55638" data-name="Grupo 55638" clip-path="url(#clip-path-12)">
                      <rect id="Rectángulo_15057" data-name="Rectángulo 15057" width="13.235" height="22.247" transform="translate(-0.49 12.387) rotate(-88.103)" fill="url(#linear-gradient-6)"/>
                    </g>
                  </g>
                </g>
              </g>
            </g>
            <g id="Grupo_55647" data-name="Grupo 55647" transform="translate(0 15.88)" opacity="0.4">
              <g id="Grupo_55646" data-name="Grupo 55646">
                <g id="Grupo_55645" data-name="Grupo 55645" clip-path="url(#clip-path-13)">
                  <g id="Grupo_55644" data-name="Grupo 55644" transform="translate(0 0)">
                    <g id="Grupo_55643" data-name="Grupo 55643" clip-path="url(#clip-path-14)">
                      <rect id="Rectángulo_15059" data-name="Rectángulo 15059" width="100.849" height="100.323" transform="translate(-27.958 12.131) rotate(-23.71)" fill="url(#linear-gradient-7)"/>
                    </g>
                  </g>
                </g>
              </g>
            </g>
            <g id="Grupo_55652" data-name="Grupo 55652" transform="translate(53.504 42.123)" opacity="0.5">
              <g id="Grupo_55651" data-name="Grupo 55651">
                <g id="Grupo_55650" data-name="Grupo 55650" clip-path="url(#clip-path-15)">
                  <g id="Grupo_55649" data-name="Grupo 55649" transform="translate(0 0)">
                    <g id="Grupo_55648" data-name="Grupo 55648" clip-path="url(#clip-path-16)">
                      <rect id="Rectángulo_15061" data-name="Rectángulo 15061" width="22.534" height="19.011" transform="translate(-4.493 2.591) rotate(-30.257)" fill="url(#linear-gradient-8)"/>
                    </g>
                  </g>
                </g>
              </g>
            </g>
          </g>
        </g>
      </g>
    </g>
    <line id="Línea_611" data-name="Línea 611" y2="153" transform="translate(718.5 9965.5)" fill="none" stroke="#707070" stroke-width="3" stroke-dasharray="5" opacity="0.5"/>
  </g>
</svg>
