<svg xmlns="http://www.w3.org/2000/svg" xmlns:xlink="http://www.w3.org/1999/xlink" width="144" height="153" viewBox="0 0 144 153">
  <defs>
    <clipPath id="clip-path">
      <rect id="Rectángulo_15071" data-name="Rectángulo 15071" width="131" height="110.875" fill="none"/>
    </clipPath>
  </defs>
  <g id="Grupo_57141" data-name="Grupo 57141" transform="translate(-576 -10796.5)">
    <line id="Línea_615" data-name="Línea 615" y2="153" transform="translate(718.5 10796.5)" fill="none" stroke="#707070" stroke-width="3" stroke-dasharray="5" opacity="0.5"/>
    <g id="Grupo_55661" data-name="Grupo 55661" transform="translate(576 10816.761)">
      <g id="Grupo_55660" data-name="Grupo 55660" clip-path="url(#clip-path)">
        <path id="Trazado_114170" data-name="Trazado 114170" d="M313.473,190.375s4.817-10.533,5.208-11.225-3.331-2.8-6.468-.688-6.2,10.15-6.2,10.15Z" transform="translate(-199.531 -115.766)" fill="#e5a67c"/>
        <path id="Trazado_114171" data-name="Trazado 114171" d="M307.621,194.8s4.495-11.018,4.187-11.752c-.738-1.762-3.411-1.841-5.609.5-2.587,2.757-6.038,9.488-6.038,9.488Z" transform="translate(-195.715 -118.509)" fill="#e29b6a"/>
        <path id="Trazado_114172" data-name="Trazado 114172" d="M238.873,210.832s16.041-18.671,17.56-19.992-1.82-5.183-6.127-3.525-10.009,9.953-12.639,12.611-12.306,3.908-14.2,3.672-23.186-.365-24.641,2.529,32.465,6.246,32.465,6.246Z" transform="translate(-129.609 -121.87)" fill="#e5b189"/>
        <path id="Trazado_114173" data-name="Trazado 114173" d="M235.81,217s16.04-18.67,17.56-19.992-1.82-5.182-6.127-3.525S237.233,203.438,234.6,206.1,222.3,210,220.4,209.768s-23.186-.364-24.641,2.529,32.464,6.246,32.464,6.246Z" transform="translate(-127.611 -125.893)" fill="#e0a47c"/>
        <path id="Trazado_114174" data-name="Trazado 114174" d="M258,30.994s-1-6.107,3.68-9.871,9.276.753,13.8-1.254C272.384,26.308,267.7,33.254,258,30.994" transform="translate(-168.164 -12.759)" fill="#9bdd1b"/>
        <path id="Trazado_114175" data-name="Trazado 114175" d="M257.962,31.556a9.472,9.472,0,0,1,3.6-8.9c4.684-3.764,9.36-.219,13.88-2.226-3.091,6.44-7.776,13.385-17.477,11.125" transform="translate(-168.129 -13.322)" fill="#7bc208"/>
        <path id="Trazado_114176" data-name="Trazado 114176" d="M219.728,18.671s4.579-6.083,2.5-12.628S208.52,5.436,205.175,0c.585,6.44,2.425,10.007,6.44,12.74s7.471,1.689,8.113,5.931" transform="translate(-133.781)" fill="#9bdd1b"/>
        <path id="Trazado_114177" data-name="Trazado 114177" d="M219.728,18.671a14.183,14.183,0,0,0,1.127-11.436C218.775.69,208.52,5.436,205.175,0c.585,6.44,2.425,10.007,6.44,12.74s7.471,1.689,8.113,5.931" transform="translate(-133.781)" fill="#7bc208"/>
        <path id="Trazado_114178" data-name="Trazado 114178" d="M193.03,40.79s-1.819-6.983-8.552-8.238-6.691,6.482-12.838,7.862a22.357,22.357,0,0,0,13.3.627c2.462-.885,5.394-1.5,8.092-.251" transform="translate(-111.915 -21.136)" fill="#9bdd1b"/>
        <path id="Trazado_114179" data-name="Trazado 114179" d="M193.03,43.224a11.574,11.574,0,0,0-8.719-6.915c-6.733-1.254-6.524,5.159-12.671,6.538a22.357,22.357,0,0,0,13.3.627c2.462-.885,5.394-1.5,8.092-.251" transform="translate(-111.915 -23.569)" fill="#7bc208"/>
        <path id="Trazado_114180" data-name="Trazado 114180" d="M230.278,22.689c-6.626,2.342-10,8.6-11.712,14.728a53.851,53.851,0,0,0-.144-8.581c-1.059-6.189-4.161-9.409-9.053-10.329,2.959,1.034,7.3,4.358,7.995,11.2a54.394,54.394,0,0,1-.652,11.246,19.924,19.924,0,0,0-2.074-8.252c-3.429-6.022-11.124-5.073-12.713-4.487,4.1-.167,9.66,1.087,11.583,6.523,1.633,4.616,1.807,13.242,1.566,15.893l-.053.263a4.718,4.718,0,0,0,5.192-.539c-1.966-17.786,5.107-23.571,10.065-27.661" transform="translate(-131.662 -12.067)" fill="#5a8931"/>
        <path id="Trazado_114181" data-name="Trazado 114181" d="M230.278,22.689c-6.626,2.342-10.289,10.627-11.7,17.971a62.369,62.369,0,0,0-.157-11.824c-1.059-6.189-4.161-9.409-9.053-10.329,2.959,1.034,7.611,3.68,8.489,11.646A125.524,125.524,0,0,1,217.2,47.78C217.576,40,215.949,35,214.638,32.7c-3.429-6.022-11.124-5.073-12.713-4.487,4.1-.167,10.454,1.045,12.378,6.482,1.612,4.557,1.79,13.746,1.563,16.533,1.5.438,3.368.476,4.5-.546-1.966-17.786,4.952-23.9,9.909-27.989" transform="translate(-131.662 -12.067)" fill="#7baa39"/>
        <path id="Trazado_114182" data-name="Trazado 114182" d="M226.3,130.3a25.429,25.429,0,1,1-25.429-25.429A25.429,25.429,0,0,1,226.3,130.3" transform="translate(-114.393 -68.378)" fill="#d57539"/>
        <path id="Trazado_114183" data-name="Trazado 114183" d="M268.283,104.18a5,5,0,0,1,1.5-3.134c1.37-1.179,3.234-1.75,4.148-1.294a5.059,5.059,0,0,0-4.795,4.566.676.676,0,0,1-.851-.138" transform="translate(-174.929 -64.939)" fill="#7baa39"/>
        <path id="Trazado_114184" data-name="Trazado 114184" d="M274.919,98a2.533,2.533,0,0,1,2.111-1.884c1.789-.285,2.8.571,2.492,1.884s-3.234,1.522-3.6,1.046-.342-.723.4-.856,1.5-.666,1.294-.818a2.993,2.993,0,0,0-1.9.533c-.495.38-.883.363-.8.095" transform="translate(-179.248 -62.635)" fill="#f7af69"/>
        <path id="Trazado_114185" data-name="Trazado 114185" d="M274.919,98.845a2.573,2.573,0,0,1,2.178-1.427c1.788-.285,2.587.485,2.426,1.427-.228,1.328-3.234,1.522-3.6,1.046s-.342-.723.4-.856,1.5-.666,1.294-.818a2.993,2.993,0,0,0-1.9.533c-.495.38-.883.363-.8.095" transform="translate(-179.248 -63.481)" fill="#e68952"/>
        <path id="Trazado_114186" data-name="Trazado 114186" d="M209.128,104.869a25.4,25.4,0,0,0-21.021,11.12,3.775,3.775,0,0,0,1.071,2.272,7.18,7.18,0,0,0,7.214.984c15.33-10.9,30.127-7.5,36.617,2.3a25.439,25.439,0,0,0-23.881-16.674" transform="translate(-122.652 -68.378)" fill="#e68952"/>
        <path id="Trazado_114187" data-name="Trazado 114187" d="M211.387,103.272a7.183,7.183,0,0,0-2.152-4.5c-1.967-1.695-4.645-2.514-5.957-1.858a7.266,7.266,0,0,1,6.886,6.558.972.972,0,0,0,1.223-.2" transform="translate(-132.544 -63.043)" fill="#7baa39"/>
        <path id="Trazado_114188" data-name="Trazado 114188" d="M204.485,94.4a3.639,3.639,0,0,0-3.033-2.705c-2.569-.41-4.017.82-3.58,2.705s4.646,2.186,5.165,1.5.492-1.038-.574-1.23-2.159-.956-1.858-1.175a4.3,4.3,0,0,1,2.733.765c.711.547,1.268.521,1.148.137" transform="translate(-128.969 -59.734)" fill="#f7af69"/>
        <path id="Trazado_114189" data-name="Trazado 114189" d="M204.575,95.61s-.56-1.64-3.129-2.05-3.716.7-3.484,2.05c.328,1.908,4.646,2.186,5.165,1.5s.492-1.038-.574-1.23-2.159-.956-1.858-1.175a4.3,4.3,0,0,1,2.733.765c.711.547,1.268.521,1.148.137" transform="translate(-129.059 -60.948)" fill="#e68952"/>
        <path id="Trazado_114190" data-name="Trazado 114190" d="M217.646,149.379c-8.526-4.591-16.724.328-23.938,5.9-4.263,2.951-10.494.984-15.085-2.3a8.683,8.683,0,0,1-2.146-2.036,25.429,25.429,0,1,0,49.821,7.187q0-.658-.033-1.308c-3.059-2.133-5.072-5.558-8.619-7.45" transform="translate(-114.393 -96.217)" fill="#5a8931"/>
        <path id="Trazado_114191" data-name="Trazado 114191" d="M213.016,165.577a2.247,2.247,0,0,0-1.834-.7l.549-1.21c-.518.007-1.225-.145-1.195-.6.022-.331.44-.5.745-.7s.49-.678.141-.8a4.22,4.22,0,0,1-1.342.223,1.308,1.308,0,0,1-1.116-.6,1.247,1.247,0,0,1-.011-.889,4.34,4.34,0,0,1,.836-1.6c.257-.313.559-.6.784-.93a2.387,2.387,0,0,0,.4-1.221,57.871,57.871,0,0,0-6.721,4.587c-3.258,2.256-7.664,1.636-11.61-.243-.649.047-1.273.68-.935,1.168a1.438,1.438,0,0,0,.77.439,10.2,10.2,0,0,0,3.495.688q0,.267-.006.534a.655.655,0,0,0-.326,1.071,2.409,2.409,0,0,0,1.3.617,2.251,2.251,0,0,1,1.282.639,2.937,2.937,0,0,0,.319.452c.66.6,2.058-.407,2.683.219.35.351.1.912.273,1.354a1.647,1.647,0,0,0,1.308.788c.859.156,1.935.025,2.318-.668.2-.362.277-.9.732-.941a.851.851,0,0,1,.429.108,3.235,3.235,0,0,1,.926.662c.427.441.715,1.006,1.27,1.32a1.816,1.816,0,0,0,2.531-.959,1.7,1.7,0,0,1,.136-.536c.276-.468,1.068-.391,1.581-.665a1.082,1.082,0,0,0,.287-1.617" transform="translate(-124.938 -102.082)" fill="#7bc208"/>
        <path id="Trazado_114192" data-name="Trazado 114192" d="M195.946,181.5a3.1,3.1,0,0,0-1.269.335,14.248,14.248,0,0,0-2.765,1.618,5.469,5.469,0,0,1-1.952,1.143,4.4,4.4,0,0,1-2.377-.335.815.815,0,0,1-.445-.276.828.828,0,0,1,0-.671q.286-1,.572-2c.049-.171.088-.379-.038-.5a.5.5,0,0,0-.317-.105l-2.294-.209c-.454-.8.482-1.669.656-2.57.234-1.209-.978-2.231-2.161-2.571s-2.489-.323-3.556-.938a1.292,1.292,0,0,1-.581-.577,1.447,1.447,0,0,1,0-.878,7.714,7.714,0,0,1,.514-1.5c.257-.558.588-1.19.338-1.752a3.1,3.1,0,0,0-.643-.76,2.544,2.544,0,0,1-.354-2.854c.3-.549.816-1.035.808-1.659-.011-.849-.941-1.326-1.681-1.741a8.08,8.08,0,0,1-2.246-1.875,25.409,25.409,0,0,0,12.492,28.262,12.157,12.157,0,0,0,1.515.078,5.28,5.28,0,0,0,1.314-.155c.666-.181,1.261-.558,1.911-.79a13.122,13.122,0,0,0,1.3-.442,2.767,2.767,0,0,0,1.532-2.248l-.529-.1a2.915,2.915,0,0,1,.893-1.6,1.688,1.688,0,0,0,.466-1.706,1.228,1.228,0,0,0-1.1-.609" transform="translate(-114.393 -104.857)" fill="#7bc208"/>
        <path id="Trazado_114193" data-name="Trazado 114193" d="M293.336,165.913a36.4,36.4,0,0,1-4.631-4.326,3.918,3.918,0,0,0-.393-.091,5.191,5.191,0,0,0-.5,2.461,2.92,2.92,0,0,1-.186,1.756,2.754,2.754,0,0,1-.846.7,6.381,6.381,0,0,0-2.311,2.744,1.385,1.385,0,0,1-.305.507,1.3,1.3,0,0,1-.693.24,16.543,16.543,0,0,0-4.144,1.195,2.192,2.192,0,0,0-.769.482.823.823,0,0,0-.2.842,1.083,1.083,0,0,0,1.02.506,3.9,3.9,0,0,0,1.907-.435,1.379,1.379,0,0,0,.667,1.162,1.99,1.99,0,0,0,1.95-.144,16.112,16.112,0,0,0,1.615-1.26,2.609,2.609,0,0,1,1.888-.643,1.244,1.244,0,0,1,1.082,1.445c-.132.427-.539.7-.824,1.041a2.107,2.107,0,0,0-.475,1.141c-.045.469.2,1.057.669,1.06.022.622-.93.99-.829,1.6.079.482.71.6,1.2.6a2.117,2.117,0,0,0,1.682-.526l1.6-1.181a25.341,25.341,0,0,0,1.87-9.572q0-.658-.033-1.308" transform="translate(-181.464 -105.301)" fill="#7bc208"/>
        <path id="Trazado_114194" data-name="Trazado 114194" d="M262.129,149.678c.293.192.7.122,1,.3.483.293.413,1,.281,1.553q-.149.619-.3,1.239a3.049,3.049,0,0,1-.313.887c-.191.314-.51.608-.46.972.606.115,1.37.166,1.7-.356.3-.474.021-1.111.18-1.648a1.72,1.72,0,0,1,1.776-.96,7.9,7.9,0,0,0,2.162.031,7.422,7.422,0,0,0-.365-2.007c.294-.157.639.062.911.255s.661.366.912.146a.5.5,0,0,0,.068-.607.987.987,0,0,0-.509-.4c-1.063-.432-2.247.125-3.393.2a2.275,2.275,0,0,0-.046-1.565,17.559,17.559,0,0,0-3.83.768,1.508,1.508,0,0,0-.09.293.879.879,0,0,0,.314.894" transform="translate(-170.7 -96.32)" fill="#7bc208"/>
        <path id="Trazado_114195" data-name="Trazado 114195" d="M285.075,174.512a.2.2,0,0,0-.1.045c-.5.332-1.2.2-1.7.523a5.892,5.892,0,0,0-.629.595.757.757,0,0,1-.793.2,3.949,3.949,0,0,1-.337-.252.3.3,0,0,0-.385.009c-.046.056-.06.138-.12.178s-.173.009-.259.026c-.193.04-.2.322-.11.5s.25.333.24.53a.455.455,0,0,1-.278.364,1.284,1.284,0,0,1-.469.09q-.677.041-1.356.037a1.341,1.341,0,0,0-.626.094.44.44,0,0,0-.243.527q1.315-.12,2.635-.142a2.165,2.165,0,0,0,1.443-.363,1.161,1.161,0,0,1,1.207-.52,1.078,1.078,0,0,0,.872-1.085l.327-.335c.348-.181.738-.417.793-.8.013-.09-.024-.212-.114-.21" transform="translate(-181.19 -113.787)" fill="#7bc208"/>
        <path id="Trazado_114196" data-name="Trazado 114196" d="M127.48,194.546c-4.592-.07-12.925,8.077-17.778,13.48-1.466.65-5.564.631-13.192,3.849-5.317,1.155-12.918-1.52-23.448.252.982-.8,8.656-3.239,13.474-3.421s11.838.837,19.6-1.744,7.752-7.606,5.723-9.764-10.817-2.757-14.991-1.534-9.446,1.433-26.676-1.679-22.587,2.338-33.661,7.955C31.879,204.3,16.393,206.946,0,209.221v27.547c25.9-9.628,45.434-13.055,50.16-12.636,7.333.651,24.968,6.155,31.687,6.942s10.562-4.519,15.653-6.4,16.505-6.91,19.552-10.3,12.246-14.146,13.19-15.549,1.831-4.212-2.762-4.282" transform="translate(0 -125.893)" fill="#f7caa9"/>
        <path id="Trazado_114197" data-name="Trazado 114197" d="M126.259,201.949c-4.592-.07-11.093,6.976-15.945,12.379-1.466.65-6.175-.3-13.8,2.917-5.317,1.155-12.918-1.52-23.448.252.982-.8,8.656-3.239,13.474-3.421s11.838.836,19.6-1.744,6.452-7.283,4.423-9.44-9.721-1.838-13.9-.615-9.126,2.949-26.356-.164-23.877,4.112-34.951,9.728C30.774,214.166,15.882,216.7,0,218.87v23.268c25.9-9.628,45.435-13.055,50.161-12.635,7.333.65,24.968,6.154,31.687,6.942s10.562-4.519,15.653-6.4,16.505-6.91,19.552-10.3S129.3,205.6,130.242,204.2s.609-2.18-3.983-2.25" transform="translate(0 -131.264)" fill="#e8b38b"/>
        <path id="Trazado_114198" data-name="Trazado 114198" d="M126.259,201.949c-4.592-.07-11.093,6.976-15.945,12.379-1.466.65-6.175-.3-13.8,2.917-5.317,1.155-17.878-2.23-28.408-.458.982-.8,9.356-4.081,14.175-4.263s16.1,2.388,23.86-.193,6.452-7.283,4.423-9.44-9.721-1.838-13.9-.615-9.126,2.949-26.356-.164-23.877,4.112-34.951,9.728C30.774,214.166,15.882,216.7,0,218.87v12.071c23.031-6.359,40.053-7.136,44.429-6.748,7.333.65,29.243,8.722,35.962,9.51s12.069-3.587,17.161-5.465,16.453-5.1,19.5-8.489S129.3,205.6,130.242,204.2s.609-2.18-3.983-2.25" transform="translate(0 -131.264)" fill="#eec29c"/>
        <path id="Trazado_114199" data-name="Trazado 114199" d="M301.82,202.29a6.624,6.624,0,0,1,.809,5.527c-4.3,1.43-7.143.917-8.066.648s-1.137-4.711-.609-5.962c1.585-1.475,7.865-.213,7.865-.213" transform="translate(-191.483 -131.572)" fill="#f7d5bf"/>
        <path id="Trazado_114200" data-name="Trazado 114200" d="M293.889,204.388a11.148,11.148,0,0,0,.157,5.028c.776-1.817,1.336-3.781-.157-5.028" transform="translate(-191.484 -133.268)" fill="#ffe8dc"/>
        <path id="Trazado_114201" data-name="Trazado 114201" d="M367.521,205.124a2.634,2.634,0,0,1-.906.238c-.926.255-3.548,3.887-3.741,4.317-.129.285.223.813.589,1.15,1.715-2.043,3.039-3.658,3.367-4.146a4.676,4.676,0,0,0,.692-1.559" transform="translate(-236.587 -133.748)" fill="#f7d5bf"/>
      </g>
    </g>
  </g>
</svg>
