<svg xmlns="http://www.w3.org/2000/svg" xmlns:xlink="http://www.w3.org/1999/xlink" width="78.596" height="78.595" viewBox="0 0 78.596 78.595">
  <defs>
    <clipPath id="clip-path">
      <rect id="Rectángulo_11820" data-name="Rectángulo 11820" width="47.055" height="45.534" fill="#fff"/>
    </clipPath>
  </defs>
  <g id="Grupo_57139" data-name="Grupo 57139" transform="translate(-658 -1990)">
    <g id="Grupo_15903" data-name="Grupo 15903" transform="translate(-2429.952 -6220.533)">
      <g id="Grupo_15901" data-name="Grupo 15901" transform="translate(3087.952 8210.533)">
        <g id="Grupo_15894" data-name="Grupo 15894">
          <circle id="Elipse_1187" data-name="Elipse 1187" cx="37.896" cy="37.896" r="37.896" transform="translate(0.604 2.138)" fill="#fff"/>
          <path id="Trazado_41393" data-name="Trazado 41393" d="M3127.25,8289.128a39.3,39.3,0,1,1,39.3-39.3A39.343,39.343,0,0,1,3127.25,8289.128Zm0-75.793a36.5,36.5,0,1,0,36.5,36.5A36.537,36.537,0,0,0,3127.25,8213.335Z" transform="translate(-3087.952 -8210.533)" fill="#a0a603"/>
          <circle id="Elipse_1188" data-name="Elipse 1188" cx="30.973" cy="30.973" r="30.973" transform="translate(8.325 8.324)" fill="#a0a603"/>
        </g>
      </g>
      <g id="Grupo_51766" data-name="Grupo 51766" transform="translate(3103.952 8227.533)">
        <g id="Grupo_51765" data-name="Grupo 51765" transform="translate(0 0)" clip-path="url(#clip-path)">
          <path id="Trazado_89791" data-name="Trazado 89791" d="M22.766,45.534a22.767,22.767,0,1,1,21.386-30.59l-3.2,1.172A19.36,19.36,0,1,0,37.576,35.23l2.61,2.2a22.729,22.729,0,0,1-17.419,8.106" transform="translate(0 0)" fill="#fff"/>
          <path id="Trazado_89792" data-name="Trazado 89792" d="M34.632,14.276l6.773,7.635,3.227-9.682Z" transform="translate(2.422 0.856)" fill="#fff"/>
          <path id="Trazado_89793" data-name="Trazado 89793" d="M24.575,22.011a3.094,3.094,0,1,1-3.094-3.094,3.095,3.095,0,0,1,3.094,3.094" transform="translate(1.286 1.324)" fill="#fff"/>
          <path id="Trazado_89794" data-name="Trazado 89794" d="M34.962,27.782l-15.309-3.93V10.587h3.412V21.205L35.81,24.478Z" transform="translate(1.375 0.741)" fill="#fff"/>
        </g>
      </g>
    </g>
  </g>
</svg>
