<svg xmlns="http://www.w3.org/2000/svg" xmlns:xlink="http://www.w3.org/1999/xlink" width="210.428" height="210.428" viewBox="0 0 210.428 210.428">
  <defs>
    <clipPath id="clip-path">
      <rect id="Rectángulo_13433" data-name="Rectángulo 13433" width="169.075" height="174.264" fill="none"/>
    </clipPath>
    <clipPath id="clip-path-2">
      <path id="Trazado_105103" data-name="Trazado 105103" d="M8.161,89.937A75.071,75.071,0,1,0,83.232,14.865,75.072,75.072,0,0,0,8.161,89.937" transform="translate(-8.161 -14.865)" fill="none"/>
    </clipPath>
    <radialGradient id="radial-gradient" cx="0.711" cy="0.202" r="0.635" gradientTransform="matrix(1, 0, 0, -1, 0, 2.159)" gradientUnits="objectBoundingBox">
      <stop offset="0" stop-color="#e4f5fe"/>
      <stop offset="0.048" stop-color="#e4f5fe"/>
      <stop offset="0.108" stop-color="#acdefa"/>
      <stop offset="0.232" stop-color="#9acdea"/>
      <stop offset="0.481" stop-color="#6ea3c1"/>
      <stop offset="0.825" stop-color="#265f80"/>
      <stop offset="1" stop-color="#003b5d"/>
    </radialGradient>
    <clipPath id="clip-path-3">
      <path id="Trazado_105104" data-name="Trazado 105104" d="M148.973,104.683a19.955,19.955,0,0,0-1.161,2.275c-.01-.094-.017-.192-.025-.286-.581-.066-.521.684-.891.994-.529.441-.725.253-1.081.857-.163.278-.25.818-.406,1.2-.193.466-.531.9-.751,1.379s-.559.982-.77,1.486c-.079.188.052.5-.043.675-.124.231-.531.5-.69.717a15.778,15.778,0,0,0-1.484,2.4c-.224.473-1.262,2.67.12,1.9.582-.321,1.006-1.078,1.45-1.543a13.74,13.74,0,0,0,1.9-2.356,14.029,14.029,0,0,0,1.382-2.816,11.346,11.346,0,0,1,1.123-2.024c.627-1.151,1.191-2.3,1.793-3.479l.956-2.578c-.252-.529.737-1.426.066-1.914-.524,1.034-.891,2.081-1.484,3.112M8.161,90.047A74.837,74.837,0,0,0,30.223,143.2a3.5,3.5,0,0,0,.057-.539,24.564,24.564,0,0,0-1.274-5.532c-.238-.691-1.017-1.16-1.242-1.677-.21-.482.168-1.066-.355-1.977-.15-.263-.964.054-1.438-1.055,0,0,.742-1.487.794-1.6-1.5-.923.975-2.781-.808-4.336a7.027,7.027,0,0,0,.5-2.346c.063.064.122.131.186.195-.021-.121-.041-.233-.056-.326-.033-.219-.069-.445-.1-.668,0-.484-.018-.949-.054-1.359-.078-.882-.515-2.139-.532-3.163a5.042,5.042,0,0,1,1.106-.7c.289-.165.043-.526.434-.7a1.1,1.1,0,0,1,.462,0c.2.022.4.044.47-.022.477-.457.4-.261.538-1.079.286-1.749-.869-3.634-.955-5.517a13.665,13.665,0,0,0-.414-2.755c-.187-.748-.884-1.739-.785-2.513,1.185,1.487,2.024-1.992,2.194-2.371a9.533,9.533,0,0,0,.785-4.353c-.012-1.681-1.56-2.489-2.637-3.354a8.563,8.563,0,0,1-2.852-3.1,2.258,2.258,0,0,1-1.1-.485c-.927.351-1.061-.366-1.88-.52a5.789,5.789,0,0,0-2.3.129c.666-1.692-2.288-2.557-2.5-3.928-.678.236-1.09.971-1.459,1.291-.03-.921.639-1.928.366-2.721a4.275,4.275,0,0,1-1.464-.019,21.593,21.593,0,0,0-.013-2.287c.083-.78.543-1.676-.17-2.477-.094.18-.289.367-.379.527-.607-1.48-.661-3.02-1.531-4.508-1.425,1.406-1.536-2.411-1.468-3.131a10.159,10.159,0,0,0-.054-1.984A75.268,75.268,0,0,0,8.161,90.047M127.055,39.027c.53.16,1.458.654,1.768-.065l-.273-.54c-.509.12-1.277,0-1.5.6m-9.62-1.573c.4.062.486.355.812.534a3.3,3.3,0,0,0,.953.256c.382.088,2.159.486,1.843-.24l-.068-.121a5.89,5.89,0,0,1-1.523-.288,7.5,7.5,0,0,0-1.568-.294c-.218,0-.379.043-.449.154M90.2,31.38c-.138.036-.533.282-.542.453.391.052.4.439.812.369.285-.048.409-.474.658-.642a.451.451,0,0,0-.146-.168l-.051-.046a1,1,0,0,1-.325,0,.98.98,0,0,0-.136-.011,1.019,1.019,0,0,0-.269.043m6.88-.522c.142.244.38.509.141.8.484.405.2,1.177,1.082,1.074-.054.006.05-.052.166-.11a1.6,1.6,0,0,1,.241-.109c.18-.123.29-.086.36-.314.133-.436-.516-.566-.108-.984-.45.039-.319-.355-.661-.5l-.256-.269c-.323.134-.652.283-.965.41m-.093-1.771a1.906,1.906,0,0,1,.351.9,1.064,1.064,0,0,0,.6.314,1.783,1.783,0,0,0-.043-1.026l-.46-.36a.717.717,0,0,0-.444.168M79.043,20.053c-.239-.228-.528-.044-.807.056-.123-.152-.285-.125-.467-.1a.99.99,0,0,1-.345.009c.071.2-.045.2.193.316-.123.176-.429.129-.761.08-.364-.052-.762-.1-.983.138.355.066.407.331.052.447.1.04.255.181.361.213-.3.175-.874.2-.668.59a.452.452,0,0,0-.5.188,3.444,3.444,0,0,0,1.424.118,5.147,5.147,0,0,1,.97.01c-.022-.4.21-.536.608-.664.3.4,1.353-.3,1.49-.582-.667.048-.114-.308.11-.41l-.1-.405a.772.772,0,0,0-.364-.152.227.227,0,0,0-.21.147m2.519-1.52a2.408,2.408,0,0,0-1.074-.139l-.563-.089c-.209.093-.479.186-.557.4a.786.786,0,0,1,.2.007.817.817,0,0,0,.2.007c-.087.19-.243.354-.242.57a1.248,1.248,0,0,1,.256.1c-.534.162-.192.444.195.494a7.708,7.708,0,0,0,1.018-.043c-.082.057-.176.237-.242.3a.879.879,0,0,0,.92-.11c.041.237.225.266.459.17-.07.111-.01.173-.251.274.128.178.139.214.394.188-.011.373-1.132.106-1.422.336a2.039,2.039,0,0,1,.4.061c.049.345-.327.193-.405.388a.937.937,0,0,0-.26.007,1.042,1.042,0,0,1-.239.01c-.079.242.034.42.334.4a1.747,1.747,0,0,0-.4.179,1,1,0,0,0,.463.1c-.2.131-.265.316-.092.487a1.118,1.118,0,0,0-.1.171,6.1,6.1,0,0,0,1.685.133,1.427,1.427,0,0,0,.713-.127c.251-.091.762-.44.621.04a3.794,3.794,0,0,0,2.187-.437c.188.392.776.189.983-.014.146-.144.1-.287-.4-.223-.011-.385.493-.121.586-.48a.96.96,0,0,1-.13-.052c.061-.031.162-.151.244-.195a.753.753,0,0,0-.707-.115,1.645,1.645,0,0,1-.4.031c.081-.513-.5-.29-.818-.269a.921.921,0,0,0-.308-.18c.047-.088.009-.2.089-.3a1.351,1.351,0,0,0-.649-.024c.068-.386-.4-.329-.719-.443a1.517,1.517,0,0,1-.016-.21c-.345,0-.292-.178-.555-.232a1.19,1.19,0,0,0-.285.007c-.184.016-.386.032-.446-.049-.115-.154.858-.554.981-.86a.713.713,0,0,0-.692-.059c-.275.068-.544.135-.729-.152.189-.061.254-.213.346-.284a.377.377,0,0,0-.111-.016.641.641,0,0,0-.446.247M98.516,17.2c0,.043.081.347.081.348.423-.036.559.749,1.169.9a1.244,1.244,0,0,0,.4.022,1,1,0,0,1,.421.037c.327.115.186.65.722.333.227.382.773.337,1.33.292a1.892,1.892,0,0,1,1.269.158,10.688,10.688,0,0,1-1.183-.034,7.708,7.708,0,0,0-1.53,0c.113.308.4.234.59.527.129.2.093.606.161.833a1.061,1.061,0,0,1,.679.254.964.964,0,0,0,.735.247c-.305.726-1.481,0-2.308-.091-.07-.016-.137-.03-.193-.045a2.691,2.691,0,0,0-1.393.169c-.316.08-.379.22-.694.137-.166-.044-.2-.478-.612-.184a.377.377,0,0,0-.525-.126.491.491,0,0,0-.614-.056c-.2-.2-.459-.11-.731-.017a.8.8,0,0,1-.749.012.458.458,0,0,1,.446-.178.393.393,0,0,0,.029-.309c.341-.414-1.69-.566-.883.224a.694.694,0,0,1-.42.312c-.2-.389-.532-.207-.821-.31.12-.044.3-.195.421-.224-.181-.2-.459-.31-.58-.049-.1-.1-.1-.148-.085-.3.082-.027.143-.071.2-.094-.082-.033-.176-.145-.3-.183.124-.032.2-.139.3-.179-.341-.382-.726-1.067-.939-.183-.381-.36-.666-.146-1.007.058.432.3.292.562.568.883-.057-.066.166.009.341.083.134.057.24.114.173.107a.742.742,0,0,0,.6-.1c.917.631-1.378.456-1.445.452a3.393,3.393,0,0,0-1.064.046c-.335.153-.165.585-.6.58-.093-.9-.251-.279-.572-.037-.184.138-.337.037-.516.132-.155.083-.28.272-.473.348a.6.6,0,0,1-.265.034.655.655,0,0,0-.233.022c-.237.076-.343.219-.614.271a1.732,1.732,0,0,1-.373.019c-.293-.007-.486-.015-.4.468-.316,0-.482.321-.76.41-.151.049-.307.058-.461.093-.124.029-.37.124-.5.147-.406.066-1.524-.133-1.35.519a1,1,0,0,1-.545-.046c.015-.121-.078-.227-.067-.345-.853.053-1.831.175-2.7.314a.623.623,0,0,0,0,.258,2.031,2.031,0,0,1,.76.275c.254.13.6.2.881.315.5.215.941.572,1.368.778a1.122,1.122,0,0,1,.717,1.292c-.026.278.063,1.056-.305,1.3l-.358-.09a3.23,3.23,0,0,1-.614.305c-.431.072-.319-.078-.627-.173A4.222,4.222,0,0,0,81,28.109a8.192,8.192,0,0,1-1.266.054c-.532-.061-.64-.292-1.284-.273.032.409-.514.441-.871.481,0-.53-1.762-.317-2.2-.254-.319.047-.786.226-.821.521.014-.113.25.437.259.459a.923.923,0,0,1,.1.5,4.086,4.086,0,0,1-.41,1.9c-.2.3-.522.561-.676.8-.32.495-.242.4.206.767.17.139.238.305.45.413.011.258-.464.673.052.718-.138.56,1.287.364,1.7.351a8.585,8.585,0,0,1,.973,0c.485.049.391.114.651.459.084.11.331.507.512.541.416.081.382-.33.643-.5a2.5,2.5,0,0,1,.854-.224c.336-.067.387-.226.812-.138.125.215.611.165,1.064.115a3.282,3.282,0,0,1,.685-.034c.581.088,1.4.332,1.832-.178.2-.235-.047-.431.315-.643.191-.11.5-.066.771-.247.225-.15.423-.358.717-.55a2.327,2.327,0,0,0,.658-.632c-.6-.292-.765-.743-.314-1.222.213-.226.517-.23.719-.528.269-.4-.084-.385.522-.5a1.407,1.407,0,0,1,.383.007,1.209,1.209,0,0,0,.436-.006,8.286,8.286,0,0,0,.82-.405c.416-.176,1.157-.546.453-1.035a1.82,1.82,0,0,1,.517-.272c.038-.014.7-.216.669-.216.221,0,.274.191.51.22a.423.423,0,0,0,.166-.028.381.381,0,0,1,.142-.029c.007,0,.4.044.358.049a5.543,5.543,0,0,1,.666-.13c.222.01.3.159.51.183.581.066.708-.2,1.129-.351a1.242,1.242,0,0,1,.655-.029,1.332,1.332,0,0,0,.521.008c.18-.038.4-.247.614-.3a5.74,5.74,0,0,0,.624-.165,3.579,3.579,0,0,0,.4.165c1.047.359,1.248,1.122,2.044,1.635a4.484,4.484,0,0,0,1.576.283,4.725,4.725,0,0,1,1.5.527,21.925,21.925,0,0,0,2.866,1.272c1.026.324,1.486,1.133,2.174,1.676-.115.681-1.473.627-2.106.6a9.522,9.522,0,0,0-1.365-.06c-.437.049-.67.318-1.152.25a.881.881,0,0,1,.075.162c.46.124.975.412,1.487.566s1.077.025,1.573.159c.375.1.931.662,1.245.247.182-.24-.31-.939-.215-1.314.01.006.225,0,.251,0a1.746,1.746,0,0,0,.167.28c.672-.249.54-.964,1.065-1.021a2.247,2.247,0,0,0-.206-.518c-.375-.238-.947-.545-.866-1.021a5.7,5.7,0,0,1,2.095.761.934.934,0,0,0,0-.4,3.362,3.362,0,0,1-1.493-.607c-.429-.209-.9-.406-1.346-.615a7.559,7.559,0,0,0-2.939-.956c-.117-.405-.8-.591-1.1-.77-.34-.2-.757-.477-1.142-.676a2.579,2.579,0,0,1-.92-.75c-.237-.321-.441-1.057.333-.911-.025-.049-.1-.061-.12-.122a1.4,1.4,0,0,1,.655-.157c.118.258.133.579.378.8a6.237,6.237,0,0,0,1.369.71c-.208-.308-.453-.71.049-.871.362.975,1.106,1.207,2.129,1.655a26.59,26.59,0,0,0,2.87,1.337,4.129,4.129,0,0,1,1.361.558c.462.351.443.694.872,1.119a5.665,5.665,0,0,0,.545.435,6.424,6.424,0,0,1,.562.4c.16.155.238.4.409.544.084.071.107.227.2.3.048.039.122.026.2.013a.287.287,0,0,1,.265.042c.295.309.074.7.55.789.023.043-.02.133.02.163a1.015,1.015,0,0,1,.938.139,1.04,1.04,0,0,1-.052.22c.022.023.057.016.093.011a.114.114,0,0,1,.093.007c.06.847,1.578.663,1.454,1.6.463.043.979.046,1.412.119.027-.093.052-.147.07-.233a.786.786,0,0,1-.206-.011.722.722,0,0,0-.319.007c.05-.129-.007-.334.046-.462a.888.888,0,0,1-.88-.547c.387-.14.7.08,1.085.108-.064-.659-1.468-.693-1.876-1.133.83-.029,1.537.586,2.422.654-.016-.633-1.677-.5-2.1-1.118.283.011.519.022.8.039-.113-.229-.646-.3-.93-.485a2.24,2.24,0,0,1-.692-.817,3.152,3.152,0,0,1,1.187.176,2.933,2.933,0,0,0,1.256.165c-.1-.15-.093-.373-.192-.521a2.276,2.276,0,0,1,.639.089,1.7,1.7,0,0,0,.775.068c.4-.1.627-.4,1.011-.482-.532-.373-1.3-.5-1.679-.944-.365-.43-.249-1.083-.346-1.576a1.886,1.886,0,0,0,.052-.4c-.011-.2-.207-.313-.181-.542a.713.713,0,0,1,.54-.583c.811-.285,1.28.355,1.97.416a.657.657,0,0,0,.355.452c.234.2.76.483,1.006.676.283.225,1.16.8,1.37.2-.684.231-.586-.219-.875-.5-.243-.241-.757-.289-.5-.776.179-.338.361-.278.57-.218a.754.754,0,0,0,.332.042c.388-.057.507-.268.934-.248-.064.37.351.377.44.724.059.23-.147.509-.131.77.176.01.3.124.461.142-.083.061-.167.264-.26.332.476.163.348.562.74.8.295.178.89.067,1.233.188a13.015,13.015,0,0,1,1.224.541c.266.136.327.43.618.532a.835.835,0,0,0,.379,0,.877.877,0,0,1,.374,0c.4.13.625.463,1.017.619.375.15.788.222,1.165.342.006,0,.621.244.614.24.1.075.281.38.354.421.3.17.761.224,1,.527-.6.072-2.989-.217-3.074-.758a1.482,1.482,0,0,0-.527,0c.033.09.015.258.048.344a36.813,36.813,0,0,1-4.288-1.43c-.99-.363-1.29.016-2.114.285a1.809,1.809,0,0,1-.681.039,2.764,2.764,0,0,0-.409-.011,9.126,9.126,0,0,0-1.083.153c-.132-.607-1.529-.749-1.387-.059a.961.961,0,0,1-.513-.076.591.591,0,0,0-.631.015.168.168,0,0,0,.093.007.141.141,0,0,1,.1.013c-.17.74.873,1.088,1.253,1.465a.844.844,0,0,1,.317-.026c-.037.133.055.329.021.463a.747.747,0,0,1,.228.008.777.777,0,0,0,.228.007c-.037.133.057.329.02.463a.564.564,0,0,1,.475.165.534.534,0,0,0,.528.154c-.143.541.631.764,1.036.889a1.5,1.5,0,0,0,.461.029c.336-.011.684-.023.777.321a.85.85,0,0,1,.268-.022.853.853,0,0,0,.257-.019c-.034.177.106.356.089.523a.954.954,0,0,0,.686-.266.864.864,0,0,1,.6-.268,1.88,1.88,0,0,1,1.238.953,3.821,3.821,0,0,1,.566.057c.576.084,1.226.167,1.138-.459a8.014,8.014,0,0,1,1.531.3c.01.525.642,1.287.835,1.686.233.483.46.828.7,1.247.272.483.084,1.039.219,1.487.056.185.306.46.383.672.1.269-.17.3.124.617a2.311,2.311,0,0,1-.791.165,8.206,8.206,0,0,1-1.846-.247,1.967,1.967,0,0,0-1.379.063c-.334.128-.208.3-.669.3-.278,0-.562-.234-.818-.316-.559-.178-1.145-.215-1.707-.362-.729-.192-1.177-.652-1.893-.821-1.22-.287-2.373-.745-3.567-1.021-.566-.13-1.075-.255-1.638-.42a1.255,1.255,0,0,0-1.5.346c-.7.576-.628.512-.255,1.215a1.184,1.184,0,0,1,.047,1.256s-.006.006-.009.012c-.28-.1-.575-.181-.739-.25-.27-.114-.526-.174-.819-.3a.65.65,0,0,0-.251-.027.519.519,0,0,1-.228-.027c-.164-.084-.152-.3-.267-.352a9.239,9.239,0,0,0-3.545-.861c.395-.827-1.213-.907-1.853-1.129-.708-.246-1.368-.719-2.11-.916a2.266,2.266,0,0,0-.748-.04,2.773,2.773,0,0,1-.553,0,6.168,6.168,0,0,1-1.16-.361,8.919,8.919,0,0,1-2.057-.836c.5-.44.981-.011,1.122-.738.023-.12-.282-.084-.3-.224-.015-.109.183-.278.161-.347a2.226,2.226,0,0,0-.307-.734c-.107-.16-.508-.475-.518-.658-.012-.26.486-.493.386-.649-.113-.176-.356-.139-.561-.1a1.052,1.052,0,0,1-.247.029,1.861,1.861,0,0,0-.26,0,1.1,1.1,0,0,1-.563-.1c-.153-.063-.335-.332-.487-.36-.431-.075-.338.127-.722.182a6.759,6.759,0,0,1-1.038.04c-.206,0-.413,0-.615,0a11.1,11.1,0,0,1-1.424-.063,6.933,6.933,0,0,0-2.329.063,7.149,7.149,0,0,0-1.5.368c-.518-.471-1.509.1-2.179.112-.232,0-.465-.007-.7-.018a4.821,4.821,0,0,0-1.693.121c-.74.233-.877.7-1.693.856a2.787,2.787,0,0,0-.921.241c-.19.093-.391.343-.612.406-.4.111-.5-.057-.853-.065a8.527,8.527,0,0,0-1.453.137,3.8,3.8,0,0,1-1.828-.192,4.908,4.908,0,0,1-.68-.169c-.258-.127-.364-.45-.7-.527-.915-.208-.831.509-1.156.951a11.317,11.317,0,0,1-2.617,2.02,6.208,6.208,0,0,1-1.43.483c-.811.265-.69.611-1.142,1.139-.414.486-1,.764-.871,1.448.133.7.578.558-.018,1.2a8.922,8.922,0,0,1-2.8,2.1,4.9,4.9,0,0,0-1.588.6,13.784,13.784,0,0,0-1.466,1.141c-.788.823-1.527,1.758-2.338,2.59A19.44,19.44,0,0,0,61,52.215c-.357.524-.876.957-1.261,1.5-.311.441-.928.825-1.077,1.319-.184.6.335.757.481,1.319a9.394,9.394,0,0,1,0,1.5,8.731,8.731,0,0,1-.272,3.534c-.134.334-.327.461-.409.839-.078.36.085.778-.079,1.126a5.935,5.935,0,0,1-1.062,1.4c-.161.1-.657.075-.757.186-.4.45.127.348.26.543.224.328.3.178.409.635a3.094,3.094,0,0,1,0,.793,14.634,14.634,0,0,1-.058,1.91c.658.047.618.811,1,1.1.49.375,1.3.186,1.784.453-.341-.012-1,.071-.884.494.093.34.553.161.817.31.381.217.353.6.629.83.147.12.45.041.536.114.1.088.2.3.287.366.641.509,2.6,2.106,1.7,2.817.812.537.677,1.077,1.059,1.741-.25-.058-.62-.053-.659.177-.07.406.316.264.546.363.059.026.5.065.631.1a6.5,6.5,0,0,1,.8.362,14.227,14.227,0,0,1,2.8,1.39c.464.361.8.817,1.293,1.142.406.266,1.175.335,1.486.658.219.228.019.522.2.723.165.182.433.144.648.281.63.4.836.653,1.622.433a4.2,4.2,0,0,1,1.569-.281,3.593,3.593,0,0,0,1.568-.374,7.2,7.2,0,0,1,3.808-.552,5.342,5.342,0,0,0,1.041.176c.437-.029.64-.35,1.022-.407a13.9,13.9,0,0,1,1.638.195,14.741,14.741,0,0,0,3.67-.479,2.147,2.147,0,0,0,.83-.191c.362-.191.468-.427.891-.529a3.238,3.238,0,0,1,.858-.045,3.343,3.343,0,0,0,.848-.043c.525-.121,1.178-.234,1.69-.4a4.823,4.823,0,0,1,1.16-.436c.057-.007.116,0,.174,0,.17.049.36.1.593.141a5.375,5.375,0,0,1,3.345,1.8c.369.463.43,1.07,1.092,1.137.688.068.8-.439,1.31-.589.671-.194,3.378.178,3.673.647.4.643-.626,1.178.267,1.5a1.517,1.517,0,0,0,.615.07.973.973,0,0,1,.809.241c.26.233-.235.518.344.6a2.059,2.059,0,0,1-.055.352l-.139,0a2.634,2.634,0,0,1-.13.889l-.007.024h0c-.042.124-.089.254-.152.405a3.022,3.022,0,0,1-.452.948c.465.172.479.423.418.792-.043.253-.339.206-.413.419-.057.169.049.378-.014.54-.136.349-.389,1.617-.671,1.672-.048-.054-.1-.131-.148-.179-.64.632.469,2.09,1.028,2.588a10.863,10.863,0,0,1,1.3,1c.144.186.1.468.216.613.212.256.49.254.671.418.212.191.265.434.459.649s.5.351.684.554a10.334,10.334,0,0,1,.9,1.256,2.791,2.791,0,0,1,.288.661c.024.1.256.135.265.3s-.332.215-.337.314a2.744,2.744,0,0,0,.534,1.486c.459.816,1.2,1.82,1.081,2.868-.2,0-.427.121-.659.079-.077.513.427,1.092.535,1.6.117.545.091,1.088.2,1.634.13.636.24.62.018,1.26-.23.668-.243.79-.9,1.154-.976.536-1.168,1.694-1.843,2.626a4.522,4.522,0,0,0-.871,1.557,8.135,8.135,0,0,1-.631,1.314,1.474,1.474,0,0,0-.206,1.324,5.6,5.6,0,0,0,.7,1.316,17.356,17.356,0,0,1,.753,1.783,14.906,14.906,0,0,1,.87,1.7,5.512,5.512,0,0,1,.274,1.56c-.02.2-.316.414-.342.658-.03.282.2.5.22.78.078.921-.586,1.944-.306,2.879.61,2.031,2.266,3.325,1.85,5.567-.9-.172-.354.7-.278,1.074.1.509-.188.767.7.8a2.917,2.917,0,0,0,1.5-.5,5.636,5.636,0,0,1,1.64-.4c.591-.132,1.053-.456,1.633-.614a9.342,9.342,0,0,0,1.78-.527,11.2,11.2,0,0,1,1.5-.658c.282-.086.522,0,.819-.134.4-.178.426-.5.747-.7a17.952,17.952,0,0,1,1.78-.533,5.235,5.235,0,0,0,1.364-.75c.467-.36.97-.555,1.433-.868a4.433,4.433,0,0,0,.887-1.169c1.092-1.519,3.9-2.768,3.628-4.775,1.295.094,2.736-1.314,3.606-2.05.952-.8.944-1.667,1.362-2.7a7.43,7.43,0,0,0,.77-1.605c.127-.849-.467-.89.375-1.513.6-.442,1.176-.773,1.725-1.259.566-.5,1.174-.853,1.762-1.332.5-.406.75-.971,1.245-1.442a17.945,17.945,0,0,0,1.432-1.3,4.9,4.9,0,0,0,1.089-2.952,12.563,12.563,0,0,1,.629-1.833c.154-.5.148-.983.272-1.5a4.726,4.726,0,0,0,.331-1.511c-.025-.518-.071-1.038-.071-1.572a10.041,10.041,0,0,1,.614-3.406c.1-.3.482-.54.55-.839.074-.33-.166-.6-.194-.9-.062-.685.375-.886.532-1.44.206-.722-.332-1.191.336-1.816.264-.247.494-.084.69-.476.138-.276-.158-.737.007-1.007.149-.244.591-.219.742-.433s.025-.515.067-.765a4.558,4.558,0,0,1,.126-.492c.523-.828.883-1.937,1.324-2.491a16.7,16.7,0,0,0,1.893-3.193c.485-.972.629-2.022,1.112-2.985a1.658,1.658,0,0,0,.17-1.45c-.07-.312-.341-1.988.278-.916.087-.63-.164-1.2-.043-1.845a3.851,3.851,0,0,0-.086-1.919,19.625,19.625,0,0,1-.211-3.707c-.462-.035-.781.36-1.128.754-.365.415-.758.83-1.377.745-.357.789-1.429-.4-1.593-.72a2.7,2.7,0,0,0-1-.259.984.984,0,0,0,.271-.587c.75-.506-.469-1.119-.762-1.562-.348-.525-.423-1.274-.864-1.786a18.484,18.484,0,0,1-1.333-1.436c-.4-.573-.617-.993-.935-1.515-.492-.81-.865-1.7-1.3-2.577-.26-.52-.02-.2-.475-.482-.308-.188-.423-.04-.684-.362-.322-.4-.291-.957-.608-1.436s-.536-.884-.825-1.379c-.3-.513-.651-.774-.951-1.261-.164-.266-.276-.692-.547-.889-.144-.1-.507-.048-.7-.176-.489-.318-.7-.875-1.2-1.227.382-.507-.674-1.922-1.016-2.431-.3-.45-.694-.846-1.043-1.272a8.321,8.321,0,0,1-.561-1.066c-.927-1.428-2.78-2.183-3.6-3.666,1.038.438,1.8,2.149,2.973,2.266-.324-.53.034-.8.354-.625.022.034.044.071.066.1.2.308.412.97.83,1.143a1.232,1.232,0,0,0,.2.062,13.9,13.9,0,0,0,1.358,1.78c.323.434.433.894.916,1.244a12.28,12.28,0,0,1,1.335.808,10.963,10.963,0,0,1,1.09,1.305,3.778,3.778,0,0,1,.513,1.364,11.135,11.135,0,0,0,3.451,4.283c-.115.966.924,2.092,1.459,2.868a20.9,20.9,0,0,1,1.557,2.039c.186.359.188.907.406,1.259.093.149.454.357.485.479.042.156-.145.463-.143.66.008.722,1.061,1.737.76,2.21.807.287,1.071-.369,1.512-.817a9.788,9.788,0,0,0,1.672-2.651c.194-.39.767-.957.768-1.38,0-.271-.409-.452-.351-.72.07-.314.523-.267.622-.539.141-.386-.152-1.006-.137-1.441,0-.093.011-.184.018-.275a74.775,74.775,0,0,0-3.668-7.426,2.862,2.862,0,0,1-.364-.644c-.038-.066-.079-.132-.118-.2a2.369,2.369,0,0,0-.318,1.282c-.529-.181-1.261-1.28-1.542-1.744a9.662,9.662,0,0,0-1.637-2.508,11.059,11.059,0,0,1-2.941-3.768c.462.016,1.388,1.079,1.749,1.431a21.078,21.078,0,0,1,1.311,1.812,6.524,6.524,0,0,0,2.395,1.853,75.327,75.327,0,0,0-9.054-11.87,5.8,5.8,0,0,1-.914-.429,15.648,15.648,0,0,1-2.406-1.92c-.817-.79-1.058-1.766-2.1-2.386-.853-.509-3.906-2.217-3.553-3.453A74.739,74.739,0,0,0,99.343,16.714a1.831,1.831,0,0,0-.827.481M72.451,16.056l-1.893.134c-.441-.191-.731.3-.864.577.392-.068.538.109.307.36a11.98,11.98,0,0,0,2.143-.215c.776-.076,1.6-.22,2.355-.274a1.94,1.94,0,0,1,.356.045c.317.052.713.106.812-.131.114-.27-.316-.269-.64-.269a1.744,1.744,0,0,1-.27-.011c-.242-.045-.337-.164-.6-.174a.822.822,0,0,0-.308.066.815.815,0,0,1-.319.065c-.3-.014-.658-.174-1.043-.174h-.033m17.411-.578c.125.315.763.34.845.771a1.57,1.57,0,0,1-.849.31c.084.025.308.179.4.217-.441.446-1.619.1-2.14.505a.711.711,0,0,0,.5.177c-.055.147.011.212-.124.354a3.747,3.747,0,0,0,.74.635c-.038.518.518.195.826.183a8.873,8.873,0,0,1,1.016.118c.035-.252.292-.28.562-.21.156.218,1.269.047,1.6-.041.295-.079.437-.3.767-.191.442.15.155.45-.247.411-.006-.006-.007.027-.007.061s0,.064.007.06a.834.834,0,0,1,.546.285c-.029.114.044.274.016.389.313.038.234.2.5.233A.744.744,0,0,0,95.1,19.7a.832.832,0,0,1,.379-.038c.179.4.812.065.682.705a2.3,2.3,0,0,1,.59.023,1.6,1.6,0,0,0,.733-.016c.314-.108.678-.742.93-.322.337.043.669.119.65-.256a.725.725,0,0,1-.181.014.608.608,0,0,0-.215.02c.018-.253-.184-.324-.464-.271-.208-.636.789-.252.976-.672a2.075,2.075,0,0,0-.921-.227c.008-.109-.071-.2-.068-.3-.4.011-.557.106-.912-.052-.337-.151-.292-.376-.762-.413.084-.286.47-.242.884-.2.387.042.8.083,1-.148-.278-.02-.532.069-.807.075-.216-.206-.542-.654.088-.54-.072-.13-.306-.109-.352-.172.017.023-.2-.085-.209-.089-.048-.036.05-.228.007-.273-.161-.166-.362-.2-.439-.369-1-.18-2-.337-3.012-.477a6.557,6.557,0,0,1-2.02.076c-.01-.055-.01-.11-.016-.165a3.835,3.835,0,0,1-.925-.064,5.552,5.552,0,0,0-.767-.073l-.084,0" transform="translate(-8.161 -15.476)" fill="none"/>
    </clipPath>
    <radialGradient id="radial-gradient-2" cx="0.749" cy="0.232" r="0.802" gradientTransform="matrix(0.88, 0, 0, -1, -0.006, 2.53)" gradientUnits="objectBoundingBox">
      <stop offset="0" stop-color="#fffdeb"/>
      <stop offset="0.22" stop-color="#ffa900"/>
      <stop offset="0.324" stop-color="#f9a400"/>
      <stop offset="0.46" stop-color="#e89700"/>
      <stop offset="0.614" stop-color="#cd8100"/>
      <stop offset="0.78" stop-color="#a86300"/>
      <stop offset="0.955" stop-color="#783d00"/>
      <stop offset="1" stop-color="#6b3300"/>
    </radialGradient>
    <clipPath id="clip-path-5">
      <rect id="Rectángulo_13428" data-name="Rectángulo 13428" width="150.445" height="150.452" fill="none"/>
    </clipPath>
  </defs>
  <g id="Grupo_57149" data-name="Grupo 57149" transform="translate(-443 -8478.172)">
    <path id="Trazado_105101" data-name="Trazado 105101" d="M2710.42,6466.171q5.17,0,10.313.507t10.214,1.516q5.071,1,10.016,2.508t9.722,3.479q4.775,1.978,9.334,4.414t8.856,5.308q4.3,2.872,8.293,6.151t7.65,6.935q3.655,3.656,6.934,7.65t6.151,8.293q2.872,4.3,5.309,8.856t4.414,9.334q1.978,4.774,3.479,9.721t2.509,10.016q1.009,5.071,1.515,10.213t.507,10.313q0,5.171-.507,10.313t-1.515,10.215q-1.009,5.069-2.509,10.015t-3.479,9.722q-1.979,4.775-4.414,9.334t-5.309,8.856q-2.872,4.3-6.151,8.293t-6.934,7.65q-3.654,3.658-7.65,6.934t-8.293,6.151q-4.3,2.872-8.856,5.31t-9.334,4.414q-4.774,1.978-9.722,3.479t-10.016,2.508q-5.068,1.011-10.214,1.516t-10.312.507q-5.168,0-10.313-.507t-10.213-1.516q-5.068-1.009-10.016-2.508t-9.722-3.479q-4.775-1.98-9.333-4.414t-8.856-5.31q-4.3-2.87-8.293-6.151t-7.651-6.934q-3.654-3.655-6.934-7.65t-6.151-8.293q-2.872-4.3-5.307-8.856t-4.414-9.334q-1.98-4.775-3.479-9.722t-2.51-10.015q-1.008-5.071-1.514-10.215t-.506-10.312q0-5.169.506-10.313t1.514-10.213q1.008-5.068,2.51-10.016t3.479-9.721q1.977-4.777,4.414-9.334t5.307-8.856q2.873-4.3,6.151-8.293t6.934-7.65q3.657-3.657,7.651-6.935t8.293-6.151q4.3-2.87,8.856-5.308t9.333-4.414q4.776-1.979,9.722-3.479t10.016-2.508q5.069-1.011,10.213-1.516T2710.42,6466.171Z" transform="translate(-2162.207 2012)" fill="#a0a603"/>
    <circle id="Elipse_1231" data-name="Elipse 1231" cx="98.83" cy="98.83" r="98.83" transform="translate(449.384 8484.557)" fill="#fff"/>
    <path id="shutterstock_662641069" d="M89.9,0A89.9,89.9,0,1,1,0,89.9,89.9,89.9,0,0,1,89.9,0Z" transform="translate(458.31 8493.482)" fill="#d8df25"/>
    <g id="Grupo_55446" data-name="Grupo 55446" transform="translate(463.4 8496.026)">
      <g id="Grupo_55445" data-name="Grupo 55445" clip-path="url(#clip-path)">
        <g id="Grupo_55437" data-name="Grupo 55437" transform="translate(6.684 12.174)">
          <g id="Grupo_55436" data-name="Grupo 55436" clip-path="url(#clip-path-2)">
            <rect id="Rectángulo_13426" data-name="Rectángulo 13426" width="150.143" height="150.144" transform="translate(0 0)" fill="url(#radial-gradient)"/>
          </g>
        </g>
        <g id="Grupo_55439" data-name="Grupo 55439" transform="translate(6.684 12.674)">
          <g id="Grupo_55438" data-name="Grupo 55438" clip-path="url(#clip-path-3)">
            <rect id="Rectángulo_13427" data-name="Rectángulo 13427" width="145.119" height="127.727" transform="translate(0 0)" fill="url(#radial-gradient-2)"/>
          </g>
        </g>
        <g id="Grupo_55444" data-name="Grupo 55444">
          <g id="Grupo_55443" data-name="Grupo 55443" clip-path="url(#clip-path)">
            <g id="Grupo_55442" data-name="Grupo 55442" transform="translate(6.532 12.02)" style="mix-blend-mode: multiply;isolation: isolate">
              <g id="Grupo_55441" data-name="Grupo 55441">
                <g id="Grupo_55440" data-name="Grupo 55440" clip-path="url(#clip-path-5)">
                  <path id="Trazado_105105" data-name="Trazado 105105" d="M83.2,14.676A75.226,75.226,0,1,0,158.422,89.9,75.31,75.31,0,0,0,83.2,14.676M141.115,89.9c0,36.491-20.36,66.956-47.186,73.47,22.385-7.418,39.188-37.54,39.188-73.47s-16.8-66.053-39.188-73.471c26.826,6.514,47.186,36.979,47.186,73.471m-44.428-73.2c30,7.062,52.618,37.2,52.618,73.2s-22.614,66.133-52.618,73.2c25.71-7.865,44.892-37.7,44.892-73.2S122.4,24.572,96.687,16.707m35.966,73.2c0,37.346-18.208,68.384-41.908,73.892,18.586-6.624,32.682-37.236,32.682-73.892s-14.1-67.269-32.682-73.893c23.7,5.509,41.908,36.546,41.908,73.893m-9.691,0c0,38-15.159,69.475-34.705,74.159,14.211-6.023,25.068-36.983,25.068-74.159S102.468,21.766,88.256,15.743C107.8,20.428,122.962,51.9,122.962,89.9m-10.1,0c0,38.639-11.691,70.527-26.624,74.372,9.681-5.481,17.124-36.744,17.124-74.372S95.918,21.011,86.237,15.529C101.17,19.375,112.86,51.262,112.86,89.9m-9.963,0c0,39.444-8.091,71.848-18.3,74.572,5.113-4.815,8.941-35.839,8.941-74.572S89.706,20.145,84.593,15.33c10.213,2.723,18.3,35.127,18.3,74.572m46.872,0c0-34.051-20.126-62.886-47.641-72.124,30.457,8.667,52.91,37.716,52.91,72.124s-22.453,63.456-52.91,72.123c27.515-9.238,47.641-38.072,47.641-72.123m-56.7,0c0,40.525-4.521,74.762-9.87,74.762s-9.87-34.238-9.87-74.762S77.849,15.14,83.2,15.14s9.87,34.238,9.87,74.763m-67.785,0c0-36.492,20.359-66.957,47.185-73.471C50.085,23.85,33.282,53.973,33.282,89.9s16.8,66.052,39.187,73.47c-26.826-6.514-47.185-36.978-47.185-73.47m44.427,73.2c-30-7.063-52.618-37.2-52.618-73.2s22.613-66.134,52.618-73.2C44,24.572,24.82,54.4,24.82,89.9S44,155.233,69.711,163.1M33.746,89.9c0-37.347,18.208-68.384,41.907-73.893C57.068,22.632,42.973,53.245,42.973,89.9s14.1,67.27,32.681,73.892c-23.7-5.508-41.907-36.546-41.907-73.892m9.691,0c0-38,15.159-69.475,34.7-74.161C63.931,21.766,53.074,52.725,53.074,89.9s10.857,68.136,25.068,74.16c-19.545-4.685-34.7-36.157-34.7-74.16m10.1,0c0-38.64,11.69-70.527,26.624-74.373C70.481,21.011,63.037,52.274,63.037,89.9s7.444,68.891,17.124,74.372C65.228,160.429,53.538,128.542,53.538,89.9m9.963,0c0-39.445,8.091-71.849,18.3-74.572-5.113,4.815-8.941,35.839-8.941,74.572s3.828,69.758,8.941,74.572C71.592,161.751,63.5,129.348,63.5,89.9m-46.872,0c0,34.052,20.127,62.886,47.641,72.123-30.457-8.667-52.91-37.715-52.91-72.123s22.453-63.456,52.91-72.124C36.756,27.016,16.629,55.85,16.629,89.9m-8.188,0A74.879,74.879,0,0,1,54.3,20.955C28.775,32.58,10.9,59.108,10.9,89.9s17.879,57.322,43.4,68.947A74.875,74.875,0,0,1,8.441,89.9M112.1,158.85c25.523-11.625,43.4-38.153,43.4-68.948s-17.88-57.323-43.4-68.948a74.761,74.761,0,0,1,0,137.9" transform="translate(-7.976 -14.677)" fill="#bababa"/>
                </g>
              </g>
            </g>
            <path id="Trazado_105106" data-name="Trazado 105106" d="M96.548,211.336a2.406,2.406,0,0,0,.465-.02,1.6,1.6,0,0,0,.89-.413,1.869,1.869,0,0,0,.563-1.133h-.02a1.247,1.247,0,0,1-1,.459,1.233,1.233,0,0,1-1.257-1.3,1.46,1.46,0,0,1,1.454-1.513c.871,0,1.408.708,1.408,1.794a2.69,2.69,0,0,1-.734,2,2.126,2.126,0,0,1-1.237.569,2.685,2.685,0,0,1-.531.033Zm.21-2.45a.82.82,0,0,0,.819.9.952.952,0,0,0,.838-.446.381.381,0,0,0,.052-.21c0-.726-.269-1.283-.871-1.283-.491,0-.838.432-.838,1.034" transform="translate(-17.414 -37.55)" fill="#161615"/>
            <path id="Trazado_105107" data-name="Trazado 105107" d="M103.139,209.568c0,1.446-.536,2.246-1.479,2.246-.832,0-1.395-.779-1.409-2.187,0-1.427.616-2.213,1.481-2.213.9,0,1.407.8,1.407,2.155m-2.311.065c0,1.107.341,1.735.865,1.735.589,0,.871-.688.871-1.774,0-1.047-.269-1.735-.865-1.735-.5,0-.871.616-.871,1.774" transform="translate(-18.149 -37.55)" fill="#161615"/>
            <path id="Trazado_105108" data-name="Trazado 105108" d="M104.395,207.54a.618.618,0,0,1,.668-.622.608.608,0,0,1,.649.615.661.661,0,0,1-1.317.007m1-.013a.333.333,0,1,0-.662.013.332.332,0,1,0,.662-.013" transform="translate(-18.899 -37.46)" fill="#161615"/>
            <path id="Trazado_105109" data-name="Trazado 105109" d="M203.587,106.483c0,1.447-.537,2.246-1.479,2.246-.832,0-1.395-.779-1.408-2.187,0-1.428.615-2.214,1.48-2.214.9,0,1.407.8,1.407,2.155m-2.311.066c0,1.107.341,1.735.864,1.735.59,0,.871-.688.871-1.776,0-1.047-.269-1.735-.866-1.735-.5,0-.87.615-.87,1.775" transform="translate(-36.334 -18.887)" fill="#161615"/>
            <path id="Trazado_105110" data-name="Trazado 105110" d="M204.843,104.454a.619.619,0,0,1,.669-.622.608.608,0,0,1,.648.616.661.661,0,0,1-1.317.007m1-.013a.333.333,0,1,0-.662.013.332.332,0,1,0,.662-.013" transform="translate(-37.084 -18.798)" fill="#161615"/>
            <path id="Trazado_105111" data-name="Trazado 105111" d="M192.275,85.954h-.013l-.74.4-.111-.438.93-.5h.491v4.256h-.557Z" transform="translate(-34.653 -15.464)" fill="#161615"/>
            <path id="Trazado_105112" data-name="Trazado 105112" d="M197.859,87.484c0,1.446-.536,2.246-1.479,2.246-.832,0-1.395-.779-1.408-2.187,0-1.427.616-2.213,1.48-2.213.9,0,1.407.8,1.407,2.155m-2.311.065c0,1.107.341,1.735.865,1.735.589,0,.871-.688.871-1.774,0-1.047-.269-1.735-.865-1.735-.5,0-.871.616-.871,1.774" transform="translate(-35.297 -15.448)" fill="#161615"/>
            <path id="Trazado_105113" data-name="Trazado 105113" d="M199.115,85.456a.618.618,0,0,1,.668-.622.607.607,0,0,1,.649.615.661.661,0,0,1-1.317.007m1-.013a.333.333,0,1,0-.663.013.333.333,0,1,0,.663-.013" transform="translate(-36.047 -15.358)" fill="#161615"/>
            <path id="Trazado_105114" data-name="Trazado 105114" d="M192.275,122.287h-.013l-.74.4-.111-.439.93-.5h.491v4.256h-.557Z" transform="translate(-34.653 -22.041)" fill="#161615"/>
            <path id="Trazado_105115" data-name="Trazado 105115" d="M197.859,123.817c0,1.447-.536,2.246-1.479,2.246-.832,0-1.395-.779-1.408-2.187,0-1.428.616-2.214,1.48-2.214.9,0,1.407.8,1.407,2.155m-2.311.066c0,1.107.341,1.735.865,1.735.589,0,.871-.688.871-1.776,0-1.047-.269-1.735-.865-1.735-.5,0-.871.615-.871,1.775" transform="translate(-35.297 -22.025)" fill="#161615"/>
            <path id="Trazado_105116" data-name="Trazado 105116" d="M199.115,121.788a.619.619,0,0,1,.668-.622.608.608,0,0,1,.649.616.661.661,0,0,1-1.317.007m1-.013a.333.333,0,1,0-.663.013.332.332,0,1,0,.663-.013" transform="translate(-36.047 -21.936)" fill="#161615"/>
            <path id="Trazado_105117" data-name="Trazado 105117" d="M186.106,69.365v-.354l.452-.438c1.087-1.034,1.578-1.585,1.584-2.227a.759.759,0,0,0-.844-.831,1.452,1.452,0,0,0-.9.36l-.183-.406a1.873,1.873,0,0,1,1.206-.432,1.2,1.2,0,0,1,1.3,1.238c0,.785-.569,1.42-1.467,2.285l-.34.314v.013h1.912v.478Z" transform="translate(-33.692 -11.774)" fill="#161615"/>
            <path id="Trazado_105118" data-name="Trazado 105118" d="M193.026,67.192c0,1.447-.537,2.246-1.48,2.246-.831,0-1.395-.779-1.409-2.187,0-1.428.616-2.214,1.481-2.214.9,0,1.408.8,1.408,2.155m-2.311.066c0,1.107.34,1.735.864,1.735.589,0,.871-.688.871-1.776,0-1.047-.268-1.735-.865-1.735-.5,0-.87.615-.87,1.775" transform="translate(-34.422 -11.774)" fill="#161615"/>
            <path id="Trazado_105119" data-name="Trazado 105119" d="M194.282,65.163a.619.619,0,0,1,.669-.622.608.608,0,0,1,.648.616.661.661,0,0,1-1.317.007m1-.013a.332.332,0,1,0-.661.013.332.332,0,1,0,.661-.013" transform="translate(-35.172 -11.684)" fill="#161615"/>
            <path id="Trazado_105120" data-name="Trazado 105120" d="M186.106,146.2v-.354l.452-.439c1.087-1.034,1.578-1.584,1.584-2.227a.759.759,0,0,0-.844-.83,1.447,1.447,0,0,0-.9.36l-.183-.405a1.864,1.864,0,0,1,1.206-.432,1.2,1.2,0,0,1,1.3,1.237c0,.786-.569,1.421-1.467,2.286l-.34.314v.014h1.912v.477Z" transform="translate(-33.692 -25.684)" fill="#161615"/>
            <path id="Trazado_105121" data-name="Trazado 105121" d="M193.026,144.025c0,1.446-.537,2.246-1.48,2.246-.831,0-1.395-.779-1.409-2.187,0-1.427.616-2.213,1.481-2.213.9,0,1.408.8,1.408,2.155m-2.311.065c0,1.107.34,1.735.864,1.735.589,0,.871-.688.871-1.774,0-1.047-.268-1.735-.865-1.735-.5,0-.87.616-.87,1.774" transform="translate(-34.422 -25.684)" fill="#161615"/>
            <path id="Trazado_105122" data-name="Trazado 105122" d="M194.282,142a.619.619,0,0,1,.669-.622.607.607,0,0,1,.648.615.661.661,0,0,1-1.317.007m1-.013a.332.332,0,1,0-.661.013.332.332,0,1,0,.661-.013" transform="translate(-35.172 -25.594)" fill="#161615"/>
            <path id="Trazado_105123" data-name="Trazado 105123" d="M177.406,52.2a1.915,1.915,0,0,0,.943.269c.74,0,.97-.471.963-.825-.007-.6-.544-.851-1.1-.851h-.321v-.432h.321c.419,0,.95-.216.95-.72,0-.341-.216-.642-.747-.642a1.546,1.546,0,0,0-.851.283l-.151-.419a2.023,2.023,0,0,1,1.113-.329c.839,0,1.218.5,1.218,1.016a1.055,1.055,0,0,1-.785,1v.014a1.108,1.108,0,0,1,.948,1.094c0,.681-.53,1.277-1.552,1.277a2.159,2.159,0,0,1-1.106-.288Z" transform="translate(-32.089 -8.787)" fill="#161615"/>
            <path id="Trazado_105124" data-name="Trazado 105124" d="M184.193,50.692c0,1.447-.536,2.246-1.479,2.246-.832,0-1.395-.779-1.408-2.187,0-1.428.616-2.214,1.48-2.214.9,0,1.407.8,1.407,2.155m-2.311.066c0,1.107.341,1.735.865,1.735.589,0,.871-.688.871-1.776,0-1.047-.269-1.735-.865-1.735-.5,0-.871.615-.871,1.775" transform="translate(-32.823 -8.787)" fill="#161615"/>
            <path id="Trazado_105125" data-name="Trazado 105125" d="M185.449,48.663a.619.619,0,0,1,.668-.622.608.608,0,0,1,.649.616.661.661,0,0,1-1.317.007m1-.013a.333.333,0,1,0-.663.013.332.332,0,1,0,.663-.013" transform="translate(-33.573 -8.697)" fill="#161615"/>
            <path id="Trazado_105126" data-name="Trazado 105126" d="M177.406,161.7a1.924,1.924,0,0,0,.943.269c.74,0,.97-.472.963-.826-.007-.6-.544-.851-1.1-.851h-.321v-.432h.321c.419,0,.95-.216.95-.72,0-.341-.216-.641-.747-.641a1.552,1.552,0,0,0-.851.282l-.151-.419a2.023,2.023,0,0,1,1.113-.328c.839,0,1.218.5,1.218,1.016a1.057,1.057,0,0,1-.785,1v.013a1.109,1.109,0,0,1,.948,1.094c0,.681-.53,1.277-1.552,1.277a2.159,2.159,0,0,1-1.106-.288Z" transform="translate(-32.089 -28.61)" fill="#161615"/>
            <path id="Trazado_105127" data-name="Trazado 105127" d="M184.193,160.192c0,1.447-.536,2.246-1.479,2.246-.832,0-1.395-.779-1.408-2.187,0-1.428.616-2.214,1.48-2.214.9,0,1.407.8,1.407,2.155m-2.311.066c0,1.107.341,1.735.865,1.735.589,0,.871-.688.871-1.775,0-1.047-.269-1.735-.865-1.735-.5,0-.871.615-.871,1.775" transform="translate(-32.823 -28.611)" fill="#161615"/>
            <path id="Trazado_105128" data-name="Trazado 105128" d="M185.449,158.163a.619.619,0,0,1,.668-.622.608.608,0,0,1,.649.616.661.661,0,0,1-1.317.007m1-.013a.333.333,0,1,0-.663.013.332.332,0,1,0,.663-.013" transform="translate(-33.573 -28.521)" fill="#161615"/>
            <path id="Trazado_105129" data-name="Trazado 105129" d="M167.053,39.881V38.722h-1.977v-.38l1.9-2.717h.622V38.27h.6v.452h-.6v1.159Zm0-1.611V36.849q0-.334.02-.668h-.02c-.131.249-.236.432-.354.629l-1.041,1.447v.013Z" transform="translate(-29.885 -6.449)" fill="#161615"/>
            <path id="Trazado_105130" data-name="Trazado 105130" d="M172.236,37.692c0,1.447-.537,2.246-1.48,2.246-.831,0-1.395-.779-1.408-2.187,0-1.428.616-2.214,1.48-2.214.9,0,1.408.8,1.408,2.155m-2.311.066c0,1.107.34,1.735.864,1.735.589,0,.871-.688.871-1.776,0-1.047-.268-1.735-.865-1.735-.5,0-.87.615-.87,1.775" transform="translate(-30.658 -6.434)" fill="#161615"/>
            <path id="Trazado_105131" data-name="Trazado 105131" d="M173.491,35.663a.619.619,0,0,1,.669-.622.608.608,0,0,1,.648.616.661.661,0,0,1-1.317.007m1-.013a.338.338,0,0,0-.341-.36.335.335,0,0,0-.321.373.332.332,0,1,0,.662-.013" transform="translate(-31.408 -6.344)" fill="#161615"/>
            <path id="Trazado_105132" data-name="Trazado 105132" d="M167.72,175.714v-1.159h-1.978v-.38l1.9-2.717h.622V174.1h.6v.452h-.6v1.159Zm0-1.611v-1.421c0-.223.007-.445.019-.668h-.019c-.131.249-.236.433-.354.629l-1.041,1.446v.014Z" transform="translate(-30.006 -31.04)" fill="#161615"/>
            <path id="Trazado_105133" data-name="Trazado 105133" d="M172.9,173.525c0,1.446-.536,2.246-1.479,2.246-.832,0-1.395-.779-1.409-2.187,0-1.427.616-2.213,1.481-2.213.9,0,1.407.8,1.407,2.155m-2.311.065c0,1.107.341,1.735.865,1.735.589,0,.871-.688.871-1.774,0-1.047-.269-1.735-.865-1.735-.5,0-.871.616-.871,1.774" transform="translate(-30.779 -31.024)" fill="#161615"/>
            <path id="Trazado_105134" data-name="Trazado 105134" d="M174.158,171.5a.618.618,0,0,1,.668-.622.608.608,0,0,1,.649.615.661.661,0,0,1-1.317.007m1-.013a.333.333,0,1,0-.662.013.332.332,0,1,0,.662-.013" transform="translate(-31.529 -30.935)" fill="#161615"/>
            <path id="Trazado_105135" data-name="Trazado 105135" d="M155.6,25.819h-1.624l-.164,1.094a2.161,2.161,0,0,1,.347-.027,1.8,1.8,0,0,1,.916.229,1.211,1.211,0,0,1,.609,1.093,1.477,1.477,0,0,1-1.585,1.454,2.081,2.081,0,0,1-1.061-.262l.144-.438a1.9,1.9,0,0,0,.91.236.941.941,0,0,0,1.009-.924c-.007-.55-.373-.942-1.225-.942a4.572,4.572,0,0,0-.589.044l.275-2.042H155.6Z" transform="translate(-27.706 -4.586)" fill="#161615"/>
            <path id="Trazado_105136" data-name="Trazado 105136" d="M159.986,27.4c0,1.447-.537,2.246-1.48,2.246-.831,0-1.395-.779-1.408-2.187,0-1.428.616-2.214,1.48-2.214.9,0,1.408.8,1.408,2.155m-2.311.066c0,1.107.34,1.735.864,1.735.589,0,.871-.688.871-1.776,0-1.047-.268-1.735-.865-1.735-.5,0-.87.615-.87,1.775" transform="translate(-28.441 -4.57)" fill="#161615"/>
            <path id="Trazado_105137" data-name="Trazado 105137" d="M161.241,25.372a.619.619,0,0,1,.669-.622.608.608,0,0,1,.648.616.661.661,0,0,1-1.317.007m1-.013A.338.338,0,0,0,161.9,25a.335.335,0,0,0-.321.373.332.332,0,1,0,.662-.013" transform="translate(-29.191 -4.481)" fill="#161615"/>
            <path id="Trazado_105138" data-name="Trazado 105138" d="M156.6,182.652h-1.624l-.164,1.093a2.3,2.3,0,0,1,.347-.025,1.8,1.8,0,0,1,.916.228,1.212,1.212,0,0,1,.609,1.094A1.476,1.476,0,0,1,155.1,186.5a2.082,2.082,0,0,1-1.061-.261l.144-.439a1.9,1.9,0,0,0,.91.236.94.94,0,0,0,1.009-.923c-.007-.55-.373-.943-1.225-.943a4.392,4.392,0,0,0-.589.046l.275-2.043H156.6Z" transform="translate(-27.887 -32.979)" fill="#161615"/>
            <path id="Trazado_105139" data-name="Trazado 105139" d="M160.986,184.234c0,1.446-.537,2.246-1.48,2.246-.831,0-1.395-.779-1.408-2.187,0-1.427.616-2.213,1.48-2.213.9,0,1.408.8,1.408,2.155m-2.311.065c0,1.107.34,1.735.864,1.735.589,0,.871-.688.871-1.774,0-1.047-.268-1.735-.865-1.735-.5,0-.87.616-.87,1.774" transform="translate(-28.622 -32.963)" fill="#161615"/>
            <path id="Trazado_105140" data-name="Trazado 105140" d="M162.241,182.206a.619.619,0,0,1,.669-.622.607.607,0,0,1,.648.615.661.661,0,0,1-1.317.007m1-.013a.333.333,0,1,0-.662.013.332.332,0,1,0,.662-.013" transform="translate(-29.372 -32.874)" fill="#161615"/>
            <path id="Trazado_105141" data-name="Trazado 105141" d="M143.6,18.351a2.133,2.133,0,0,0-.432.025,1.732,1.732,0,0,0-1.48,1.513h.02a1.3,1.3,0,0,1,2.311.884,1.423,1.423,0,0,1-1.415,1.5c-.91,0-1.505-.707-1.505-1.814a2.68,2.68,0,0,1,.72-1.919,2.32,2.32,0,0,1,1.362-.628,2.768,2.768,0,0,1,.419-.033Zm-.164,2.455a.864.864,0,0,0-.877-.975.948.948,0,0,0-.826.523.493.493,0,0,0-.066.256c.013.7.334,1.219.936,1.219.5,0,.832-.413.832-1.022" transform="translate(-25.545 -3.237)" fill="#161615"/>
            <path id="Trazado_105142" data-name="Trazado 105142" d="M148.111,20.026c0,1.447-.537,2.246-1.48,2.246-.831,0-1.395-.779-1.408-2.187,0-1.428.616-2.214,1.48-2.214.9,0,1.408.8,1.408,2.155m-2.311.066c0,1.107.34,1.735.864,1.735.589,0,.871-.688.871-1.776,0-1.047-.268-1.735-.865-1.735-.5,0-.87.615-.87,1.775" transform="translate(-26.291 -3.235)" fill="#161615"/>
            <path id="Trazado_105143" data-name="Trazado 105143" d="M149.366,18a.619.619,0,0,1,.669-.622.608.608,0,0,1,.648.616.661.661,0,0,1-1.317.007m1-.013a.338.338,0,0,0-.341-.36A.335.335,0,0,0,149.7,18a.332.332,0,1,0,.662-.013" transform="translate(-27.041 -3.146)" fill="#161615"/>
            <path id="Trazado_105144" data-name="Trazado 105144" d="M143.6,189.851a2.133,2.133,0,0,0-.432.025,1.732,1.732,0,0,0-1.48,1.513h.02a1.3,1.3,0,0,1,2.311.884,1.423,1.423,0,0,1-1.415,1.5c-.91,0-1.505-.707-1.505-1.814a2.68,2.68,0,0,1,.72-1.919,2.32,2.32,0,0,1,1.362-.628,2.767,2.767,0,0,1,.419-.033Zm-.164,2.455a.864.864,0,0,0-.877-.975.948.948,0,0,0-.826.523.493.493,0,0,0-.066.256c.013.7.334,1.219.936,1.219.5,0,.832-.413.832-1.022" transform="translate(-25.545 -34.285)" fill="#161615"/>
            <path id="Trazado_105145" data-name="Trazado 105145" d="M148.111,191.526c0,1.447-.537,2.246-1.48,2.246-.831,0-1.395-.779-1.408-2.187,0-1.428.616-2.214,1.48-2.214.9,0,1.408.8,1.408,2.155m-2.311.065c0,1.107.34,1.735.864,1.735.589,0,.871-.688.871-1.775,0-1.047-.268-1.735-.865-1.735-.5,0-.87.615-.87,1.775" transform="translate(-26.291 -34.283)" fill="#161615"/>
            <path id="Trazado_105146" data-name="Trazado 105146" d="M149.366,189.5a.619.619,0,0,1,.669-.622.608.608,0,0,1,.648.616.661.661,0,0,1-1.317.007m1-.013a.338.338,0,0,0-.341-.36.335.335,0,0,0-.321.373.332.332,0,1,0,.662-.013" transform="translate(-27.041 -34.194)" fill="#161615"/>
            <path id="Trazado_105147" data-name="Trazado 105147" d="M128.846,12.459v.38l-1.853,3.876h-.6l1.847-3.765v-.013h-2.083v-.478Z" transform="translate(-22.84 -2.256)" fill="#161615"/>
            <path id="Trazado_105148" data-name="Trazado 105148" d="M132.986,14.526c0,1.447-.537,2.246-1.48,2.246-.831,0-1.395-.779-1.408-2.187,0-1.428.616-2.214,1.48-2.214.9,0,1.408.8,1.408,2.155m-2.311.066c0,1.107.34,1.735.864,1.735.589,0,.871-.688.871-1.776,0-1.047-.268-1.735-.865-1.735-.5,0-.87.615-.87,1.775" transform="translate(-23.553 -2.24)" fill="#161615"/>
            <path id="Trazado_105149" data-name="Trazado 105149" d="M134.241,12.5a.619.619,0,0,1,.669-.622.608.608,0,0,1,.648.616.661.661,0,0,1-1.317.007m1-.013a.338.338,0,0,0-.341-.36.335.335,0,0,0-.321.373.332.332,0,1,0,.662-.013" transform="translate(-24.303 -2.15)" fill="#161615"/>
            <path id="Trazado_105150" data-name="Trazado 105150" d="M113.377,13.494a1.217,1.217,0,0,1,.844-1.14l-.007-.019a1.055,1.055,0,0,1-.675-.957,1.192,1.192,0,0,1,1.316-1.133,1.1,1.1,0,0,1,1.238,1.047,1.081,1.081,0,0,1-.7,1v.02a1.179,1.179,0,0,1,.857,1.1,1.31,1.31,0,0,1-1.446,1.238c-.891,0-1.427-.53-1.427-1.152m2.291-.026c0-.517-.36-.767-.936-.93a.924.924,0,0,0-.767.877.786.786,0,0,0,.852.812.77.77,0,0,0,.851-.759m-1.585-2.128c0,.426.321.654.812.785a.839.839,0,0,0,.649-.772.662.662,0,0,0-.721-.694.677.677,0,0,0-.74.681" transform="translate(-20.526 -1.855)" fill="#161615"/>
            <path id="Trazado_105151" data-name="Trazado 105151" d="M120.361,12.4c0,1.447-.537,2.246-1.48,2.246-.831,0-1.395-.779-1.408-2.187,0-1.428.616-2.214,1.48-2.214.9,0,1.408.8,1.408,2.155m-2.311.066c0,1.107.34,1.735.864,1.735.589,0,.871-.688.871-1.776,0-1.047-.268-1.735-.865-1.735-.5,0-.87.615-.87,1.775" transform="translate(-21.267 -1.855)" fill="#161615"/>
            <path id="Trazado_105152" data-name="Trazado 105152" d="M121.616,10.372a.619.619,0,0,1,.669-.622.608.608,0,0,1,.648.616.661.661,0,0,1-1.317.007m1-.013a.338.338,0,0,0-.341-.36.335.335,0,0,0-.321.373.332.332,0,1,0,.662-.013" transform="translate(-22.017 -1.765)" fill="#161615"/>
            <path id="Trazado_105153" data-name="Trazado 105153" d="M96.518,4.418a2.4,2.4,0,0,0,.465-.019,1.612,1.612,0,0,0,.89-.413,1.876,1.876,0,0,0,.563-1.133h-.02a1.25,1.25,0,0,1-1,.458,1.233,1.233,0,0,1-1.257-1.3A1.459,1.459,0,0,1,97.612.5c.871,0,1.408.707,1.408,1.8a2.686,2.686,0,0,1-.734,2,2.114,2.114,0,0,1-1.237.57,2.685,2.685,0,0,1-.531.033Zm.21-2.449a.819.819,0,0,0,.818.9.954.954,0,0,0,.838-.445.377.377,0,0,0,.053-.21c0-.728-.269-1.285-.871-1.285-.491,0-.838.433-.838,1.035" transform="translate(-17.408 -0.09)" fill="#161615"/>
            <path id="Trazado_105154" data-name="Trazado 105154" d="M103.111,2.651c0,1.447-.537,2.246-1.48,2.246-.831,0-1.395-.779-1.408-2.187,0-1.428.616-2.214,1.48-2.214.9,0,1.408.8,1.408,2.155m-2.311.066c0,1.107.34,1.735.864,1.735.589,0,.871-.688.871-1.776,0-1.047-.268-1.735-.865-1.735-.5,0-.87.615-.87,1.775" transform="translate(-18.144 -0.09)" fill="#161615"/>
            <path id="Trazado_105155" data-name="Trazado 105155" d="M104.366.622A.619.619,0,0,1,105.035,0a.608.608,0,0,1,.648.616.661.661,0,0,1-1.317.007m1-.013a.338.338,0,0,0-.341-.36.335.335,0,0,0-.321.373.332.332,0,1,0,.662-.013" transform="translate(-18.894)" fill="#161615"/>
            <rect id="Rectángulo_13429" data-name="Rectángulo 13429" width="1.16" height="149.735" transform="translate(81.175 12.378)" fill="#adbf00"/>
            <line id="Línea_594" data-name="Línea 594" y2="1.16" transform="translate(81.755 5.993)" fill="none" stroke="#161615" stroke-miterlimit="10" stroke-width="0.283"/>
            <line id="Línea_595" data-name="Línea 595" y2="159.139" transform="translate(81.755 7.849)" fill="none" stroke="#161615" stroke-miterlimit="10" stroke-width="0.283" stroke-dasharray="2.826 0.848"/>
            <line id="Línea_596" data-name="Línea 596" y2="1.16" transform="translate(81.755 167.336)" fill="none" stroke="#161615" stroke-miterlimit="10" stroke-width="0.283"/>
            <line id="Línea_597" data-name="Línea 597" x2="149.735" y2="0.002" transform="translate(6.891 87.245)" fill="none" stroke="#d9000d" stroke-miterlimit="10" stroke-width="1.417"/>
            <line id="Línea_598" data-name="Línea 598" x2="163.516" y2="0.002" transform="translate(0 87.245)" fill="none" stroke="#161615" stroke-miterlimit="10" stroke-width="0.283" stroke-dasharray="2.835 0.85"/>
            <path id="Trazado_105156" data-name="Trazado 105156" d="M152.933,67.668l-21.395-.94c-3.209-.131-6.683-.323-10.361-.429l-11.57-.347-3.033-.09-3.078-.029q-3.1-.032-6.263-.059c-4.217-.04-8.491-.114-12.774,0l-12.782.124q-1.581.016-3.147.035-1.566.048-3.115.1l-6.109.191c-4.012.139-7.892.219-11.567.395l-10.36.5-8.755.435-6.748.372-5.881.322s2.136-.152,5.874-.42l6.743-.482c2.6-.2,5.543-.373,8.751-.539l10.359-.561c3.676-.2,7.559-.3,11.572-.461l6.114-.225,3.117-.117,3.146-.052c4.217-.065,8.5-.13,12.782-.194,4.281-.086,8.574.012,12.787.075l6.268.1c1.032.014,2.06.031,3.079.046l3.034.107,11.573.413c3.679.128,7.154.341,10.363.487,6.418.3,11.759.667,15.5.891l5.879.362" transform="translate(-2.895 -11.796)" fill="#fff"/>
            <path id="Trazado_105157" data-name="Trazado 105157" d="M157.125,87.4,134.1,86.462c-3.454-.129-7.194-.322-11.153-.428l-12.451-.347-3.265-.09-3.314-.029q-3.334-.031-6.739-.059c-4.539-.039-9.139-.113-13.749,0l-13.755.124-3.388.035-3.351.1-6.575.192c-4.317.139-8.493.218-12.449.393l-11.15.5-9.423.436-7.264.371-6.33.323,6.324-.421,7.258-.482c2.8-.2,5.966-.373,9.42-.54l11.149-.56c3.957-.2,8.135-.3,12.454-.46l6.58-.226,3.353-.116,3.388-.052,13.754-.194c4.607-.086,9.225.012,13.76.075l6.743.1,3.314.046,3.265.108,12.455.413c3.959.127,7.7.34,11.153.487,6.909.3,12.658.666,16.686.89l6.327.363" transform="translate(-1.764 -15.369)" fill="#fff"/>
            <path id="Trazado_105158" data-name="Trazado 105158" d="M146.826,51.567l-5.218-.266-13.759-.669c-2.847-.122-5.928-.31-9.192-.409l-10.263-.339-2.691-.094-2.73-.033-5.557-.067c-3.742-.045-7.531-.124-11.332-.019l-11.341.139-2.793.039-2.762.1-5.419.2c-3.558.15-7,.217-10.26.387l-9.189.483c-2.846.152-5.455.273-7.765.428l-5.986.371-5.215.323,5.209-.421,5.978-.482c2.307-.2,4.915-.373,7.76-.545l9.185-.58c3.261-.2,6.706-.315,10.267-.468l5.425-.219,2.765-.111,2.793-.049,11.339-.178c3.8-.092,7.609,0,11.348.058l5.56.086,2.734.043,2.692.1,10.267.421c3.263.133,6.345.352,9.191.505,5.693.311,10.429.67,13.747.9l5.213.363" transform="translate(-4.59 -8.88)" fill="#fff"/>
            <path id="Trazado_105159" data-name="Trazado 105159" d="M139.528,38.559l-4.4-.251-5.052-.288L123.52,37.7c-2.4-.107-5-.275-7.755-.357l-8.658-.283-2.269-.08-2.3-.026L97.846,36.9c-3.158-.036-6.353-.1-9.56-.011L78.718,37c-1.579,0-3.143.053-4.687.122L69.46,37.3c-3,.133-5.9.185-8.654.338l-7.751.437c-2.4.137-4.6.244-6.55.4l-5.046.355-4.4.31,4.39-.406,5.04-.467c1.944-.2,4.143-.355,6.544-.513l7.749-.533c2.749-.188,5.657-.283,8.661-.418l4.577-.194c1.545-.075,3.111-.131,4.689-.142l9.568-.156c3.2-.076,6.421,0,9.574.051l4.693.073,2.306.036,2.272.09,8.662.364c2.754.117,5.353.317,7.754.454s4.6.278,6.549.438l5.045.4,4.395.348" transform="translate(-6.709 -6.567)" fill="#fff"/>
            <path id="Trazado_105160" data-name="Trazado 105160" d="M131.239,28.692l-3.508-.28-4.028-.32-5.225-.384c-1.915-.131-3.985-.327-6.182-.437l-6.906-.356-1.812-.093-1.839-.032L98,26.727c-2.521-.043-5.069-.12-7.629-.013l-7.638.133-1.882.039-1.858.1-3.647.2c-2.394.143-4.711.224-6.9.4l-6.177.509c-1.913.161-3.668.289-5.219.45l-4.021.386-3.5.336,3.5-.406,4.014-.465c1.548-.2,3.3-.36,5.214-.524l6.177-.553c2.192-.195,4.513-.292,6.909-.452l3.651-.221,1.862-.114,1.881-.051,7.637-.185c2.558-.088,5.128,0,7.646.065l3.746.09,1.841.044,1.812.1,6.912.4c2.2.126,4.267.335,6.182.479,3.83.295,7.011.643,9.24.859l3.5.35" transform="translate(-8.965 -4.754)" fill="#fff"/>
            <path id="Trazado_105161" data-name="Trazado 105161" d="M123.609,22.292l-2.7-.286-3.1-.327-4.025-.39c-1.476-.133-3.069-.328-4.763-.441l-5.327-.36-1.4-.094-1.42-.033L97.987,20.3c-1.947-.043-3.911-.121-5.888-.016l-5.9.138c-.973.006-1.934.066-2.884.142l-2.811.2c-1.845.145-3.634.225-5.322.409l-4.757.513c-1.472.16-2.825.292-4.018.456l-3.093.391-2.7.342,2.688-.4L66.4,22.01c1.19-.192,2.539-.353,4.013-.518l4.757-.549c1.688-.2,3.48-.289,5.327-.448l2.816-.22c.951-.084,1.915-.151,2.888-.164l5.895-.18c1.974-.09,3.961,0,5.9.06l2.892.088,1.421.043,1.4.1,5.331.4c1.694.124,3.288.332,4.763.476,2.952.292,5.4.631,7.115.845l2.7.343" transform="translate(-10.975 -3.602)" fill="#fff"/>
            <path id="Trazado_105162" data-name="Trazado 105162" d="M116.632,18.446l-1.972-.184-2.264-.21-2.94-.23c-1.077-.076-2.241-.2-3.478-.245l-3.887-.2-4.161-.073c-1.417-.049-2.852.032-4.295.057s-2.882.041-4.3.093l-4.153.242c-1.348.072-2.651.152-3.882.282L77.83,18.3c-2.153.192-3.938.428-5.191.559l-1.969.22,1.963-.26c1.253-.147,3.032-.443,5.183-.644l3.474-.342c1.231-.138,2.533-.227,3.884-.308l4.159-.272c1.417-.06,2.857-.079,4.3-.12,1.439-.015,2.883-.088,4.3-.028l4.165.1,3.889.224c1.238.055,2.4.184,3.481.268,2.156.166,3.942.387,5.2.527l1.968.222" transform="translate(-12.794 -3.092)" fill="#fff"/>
            <path id="Trazado_105163" data-name="Trazado 105163" d="M112.292,16.815l-1.549-.187-1.777-.214c-.686-.086-1.465-.142-2.31-.234-.847-.075-1.761-.2-2.735-.252l-3.058-.2c-1.061-.047-2.16-.052-3.275-.081-1.115-.048-2.244.013-3.381.046l-3.386.086-3.266.242c-1.06.075-2.085.148-3.051.278l-2.728.319c-1.69.189-3.089.426-4.074.555l-1.545.219,1.539-.259c.981-.146,2.373-.441,4.064-.64l2.728-.342c.966-.138,1.992-.22,3.054-.3l3.273-.27,3.385-.114c1.132-.025,2.272-.076,3.391-.017,1.116.038,2.218.053,3.281.109l3.061.227c.974.056,1.889.194,2.736.276,1.7.168,3.1.393,4.079.535l1.544.224" transform="translate(-13.787 -2.791)" fill="#fff"/>
            <path id="Trazado_105164" data-name="Trazado 105164" d="M152.933,144.1l-5.879.363c-3.741.224-9.082.592-15.5.891-3.21.147-6.684.36-10.363.486l-11.573.414-3.034.107-3.079.046-6.268.1c-4.214.061-8.507.161-12.787.074-4.282-.064-8.565-.129-12.782-.194l-3.146-.052-3.117-.117c-2.065-.076-4.107-.152-6.114-.225-4.013-.165-7.9-.265-11.572-.461l-10.359-.56c-3.208-.167-6.149-.337-8.751-.54l-6.743-.482-5.874-.421,5.881.323,6.748.371,8.755.436,10.36.5c3.676.177,7.555.255,11.567.394l6.109.192,3.115.1,3.147.036c4.217.04,8.5.083,12.782.123,4.283.11,8.557.037,12.774,0q3.162-.029,6.263-.059l3.078-.029,3.033-.09,11.57-.347c3.679-.106,7.153-.3,10.361-.429,12.837-.563,21.395-.941,21.395-.941" transform="translate(-2.895 -25.983)" fill="#fff"/>
            <path id="Trazado_105165" data-name="Trazado 105165" d="M157.125,124.361l-6.327.363c-4.028.224-9.777.592-16.686.89-3.454.147-7.194.36-11.153.487l-12.455.413-3.265.108-3.314.046-6.743.1c-4.535.062-9.153.161-13.76.075l-13.754-.194-3.388-.052-3.353-.116-6.58-.226c-4.319-.163-8.5-.264-12.454-.46l-11.149-.56c-3.454-.167-6.618-.337-9.42-.54l-7.258-.482-6.324-.421,6.33.323,7.264.371,9.423.436,11.15.5c3.956.175,8.132.254,12.449.393l6.575.192,3.351.1,3.388.035,13.755.124c4.61.11,9.21.036,13.749,0q3.4-.029,6.739-.059l3.314-.029,3.265-.09,12.451-.347c3.959-.106,7.7-.3,11.153-.428l23.026-.942" transform="translate(-1.764 -22.41)" fill="#fff"/>
            <path id="Trazado_105166" data-name="Trazado 105166" d="M147.1,160.2l-5.244.363c-3.337.227-8.1.586-13.828.9-2.863.153-5.963.372-9.246.505l-10.327.421-2.708.1-2.749.043-5.594.086c-3.76.057-7.593.15-11.414.058L74.589,162.5l-2.811-.049L69,162.335l-5.457-.219c-3.581-.152-7.047-.264-10.326-.468l-9.241-.58c-2.862-.173-5.485-.343-7.806-.545l-6.014-.482-5.239-.421,5.246.323,6.021.371c2.324.156,4.949.276,7.811.428l9.243.483c3.28.17,6.742.237,10.321.387l5.451.2,2.779.1,2.81.039L86,162.093c3.823.1,7.634.026,11.4-.019l5.589-.067,2.746-.033,2.707-.094,10.324-.339c3.282-.1,6.382-.287,9.247-.409l13.84-.669,5.25-.266" transform="translate(-4.511 -28.897)" fill="#fff"/>
            <path id="Trazado_105167" data-name="Trazado 105167" d="M139.767,173.256l-4.422.348-5.074.4c-1.959.161-4.173.287-6.589.439-2.415.136-5.029.336-7.8.453l-8.715.364-2.284.09-2.32.036-4.72.073c-3.172.049-6.409.127-9.632.051l-9.624-.156c-1.588-.011-3.161-.067-4.718-.142l-4.6-.194c-3.022-.135-5.946-.231-8.714-.418l-7.795-.533c-2.414-.159-4.626-.316-6.583-.514l-5.07-.467-4.416-.406,4.424.31,5.078.355c1.959.152,4.174.26,6.589.4l7.8.437c2.766.153,5.688.2,8.707.338l4.6.174c1.552.069,3.125.118,4.714.122l9.625.118c3.227.089,6.441.025,9.618-.011l4.715-.054,2.318-.026,2.283-.08,8.71-.283c2.769-.082,5.385-.25,7.8-.357l6.593-.322,5.082-.288,4.428-.251" transform="translate(-6.642 -31.262)" fill="#fff"/>
            <path id="Trazado_105168" data-name="Trazado 105168" d="M131.8,183.09l-3.565.35c-2.269.216-5.505.564-9.4.859-1.948.144-4.056.353-6.291.479l-7.032.4-1.844.1-1.873.044-3.811.09c-2.561.06-5.176.153-7.779.065l-7.77-.185-1.915-.051-1.893-.114-3.715-.221c-2.438-.161-4.8-.257-7.029-.452l-6.286-.553c-1.947-.164-3.73-.328-5.306-.524L52.2,182.92l-3.558-.406,3.565.336,4.092.386c1.579.161,3.365.29,5.312.45l6.286.509c2.23.18,4.588.26,7.024.4l3.71.2,1.892.1,1.914.039,7.771.133c2.605.106,5.2.029,7.764-.013l3.807-.064,1.871-.032,1.843-.093,7.028-.356c2.234-.11,4.342-.305,6.29-.436l5.317-.384,4.1-.32,3.57-.28" transform="translate(-8.806 -33.042)" fill="#fff"/>
            <path id="Trazado_105169" data-name="Trazado 105169" d="M124.327,189.5l-2.775.343c-1.766.214-4.286.553-7.323.845-1.519.144-3.16.351-4.9.476l-5.485.4-1.438.1-1.463.043-2.976.088c-2,.059-4.043.15-6.074.06l-6.067-.18c-1-.013-1.992-.08-2.971-.164l-2.9-.22c-1.9-.158-3.745-.252-5.482-.448l-4.9-.549c-1.518-.164-2.907-.326-4.132-.518l-3.177-.459-2.767-.4,2.775.342,3.184.391c1.228.165,2.621.3,4.137.456l4.9.513c1.738.183,3.579.263,5.477.408l2.893.2c.977.077,1.967.136,2.969.142l6.067.138c2.034.1,4.056.027,6.059-.016l2.972-.067,1.46-.033,1.438-.094,5.481-.36c1.744-.112,3.385-.308,4.9-.441l4.143-.39,3.193-.327,2.781-.286" transform="translate(-10.771 -34.202)" fill="#fff"/>
            <path id="Trazado_105170" data-name="Trazado 105170" d="M118.1,193.257l-2.157.256c-1.373.162-3.332.411-5.7.609-1.18.1-2.457.248-3.814.314l-4.264.265-4.568.119c-1.556.071-3.14-.01-4.717-.032l-4.712-.137-4.558-.322c-1.48-.1-2.909-.2-4.259-.36l-3.8-.4c-1.18-.111-2.256-.26-3.21-.4l-2.469-.346-2.151-.3,2.156.262c1.374.152,3.329.436,5.688.659l3.806.38c1.348.156,2.777.24,4.254.333l4.553.294,4.713.108c1.581.032,3.155.122,4.709.061l4.562-.091,4.261-.238c1.357-.058,2.633-.2,3.813-.292l3.222-.274,2.481-.248,2.161-.217" transform="translate(-12.26 -34.853)" fill="#fff"/>
            <path id="Trazado_105171" data-name="Trazado 105171" d="M113.768,195.2l-1.708.224c-1.087.142-2.637.367-4.51.536-.935.081-1.946.219-3.022.275l-3.38.227c-1.174.056-2.389.07-3.623.109-1.233.058-2.491.007-3.74-.017l-3.737-.113-3.615-.271c-1.173-.084-2.305-.166-3.374-.3l-3.016-.341c-1.869-.2-3.409-.5-4.5-.642l-1.7-.259,1.708.22c1.088.129,2.637.367,4.505.555l3.015.319c1.068.129,2.2.2,3.372.278l3.608.242,3.736.085c1.255.033,2.5.094,3.734.046,1.231-.029,2.444-.034,3.616-.081l3.377-.2c1.076-.047,2.085-.177,3.021-.251.934-.093,1.794-.149,2.553-.235l1.965-.214,1.712-.187" transform="translate(-13.369 -35.233)" fill="#fff"/>
            <path id="Trazado_105172" data-name="Trazado 105172" d="M131.013,195.124v.38l-1.853,3.876h-.6l1.847-3.765V195.6h-2.083v-.478Z" transform="translate(-23.232 -35.325)" fill="#161615"/>
            <path id="Trazado_105173" data-name="Trazado 105173" d="M135.153,197.191c0,1.446-.537,2.246-1.48,2.246-.831,0-1.395-.779-1.408-2.187,0-1.427.616-2.213,1.48-2.213.9,0,1.408.8,1.408,2.155m-2.311.065c0,1.107.34,1.735.864,1.735.589,0,.871-.688.871-1.774,0-1.047-.268-1.735-.865-1.735-.5,0-.87.616-.87,1.774" transform="translate(-23.945 -35.309)" fill="#161615"/>
            <path id="Trazado_105174" data-name="Trazado 105174" d="M136.408,195.163a.619.619,0,0,1,.669-.622.607.607,0,0,1,.648.615.661.661,0,0,1-1.317.007m1-.013a.333.333,0,1,0-.662.013.332.332,0,1,0,.662-.013" transform="translate(-24.695 -35.219)" fill="#161615"/>
            <path id="Trazado_105175" data-name="Trazado 105175" d="M115.544,201.826a1.217,1.217,0,0,1,.844-1.14l-.007-.019a1.055,1.055,0,0,1-.675-.957,1.192,1.192,0,0,1,1.316-1.133,1.1,1.1,0,0,1,1.238,1.047,1.081,1.081,0,0,1-.7,1v.02a1.179,1.179,0,0,1,.857,1.1,1.31,1.31,0,0,1-1.446,1.238c-.891,0-1.427-.53-1.427-1.152m2.291-.026c0-.517-.36-.767-.936-.93a.924.924,0,0,0-.767.877.786.786,0,0,0,.852.812.77.77,0,0,0,.851-.759m-1.585-2.128c0,.426.321.654.812.785a.839.839,0,0,0,.649-.772.662.662,0,0,0-.721-.694.677.677,0,0,0-.74.681" transform="translate(-20.918 -35.95)" fill="#161615"/>
            <path id="Trazado_105176" data-name="Trazado 105176" d="M122.528,200.733c0,1.447-.537,2.246-1.48,2.246-.831,0-1.395-.779-1.408-2.187,0-1.428.616-2.214,1.48-2.214.9,0,1.408.8,1.408,2.155m-2.311.066c0,1.107.34,1.735.864,1.735.589,0,.871-.688.871-1.776,0-1.047-.268-1.735-.865-1.735-.5,0-.87.615-.87,1.775" transform="translate(-21.659 -35.95)" fill="#161615"/>
            <path id="Trazado_105177" data-name="Trazado 105177" d="M123.783,198.7a.619.619,0,0,1,.669-.622.608.608,0,0,1,.648.616.661.661,0,0,1-1.317.007m1-.013a.338.338,0,0,0-.341-.36.335.335,0,0,0-.321.373.332.332,0,1,0,.662-.013" transform="translate(-22.409 -35.86)" fill="#161615"/>
            <path id="Trazado_105178" data-name="Trazado 105178" d="M81.433,33.062V27.545h.777l1.768,2.791a15.413,15.413,0,0,1,.99,1.793l.017-.008c-.066-.737-.083-1.409-.083-2.268V27.545h.672v5.517h-.721l-1.752-2.8a17.512,17.512,0,0,1-1.032-1.842l-.024.009c.041.7.057,1.358.057,2.274v2.358Z" transform="translate(-14.742 -4.987)" fill="#fff"/>
            <path id="Trazado_105179" data-name="Trazado 105179" d="M91.5,31.372a1.936,1.936,0,0,1-1.972,2.1,1.884,1.884,0,0,1-1.9-2.038,1.934,1.934,0,0,1,1.965-2.1A1.876,1.876,0,0,1,91.5,31.372m-3.143.042c0,.867.5,1.522,1.2,1.522.688,0,1.2-.647,1.2-1.539,0-.671-.336-1.522-1.187-1.522s-1.219.785-1.219,1.539" transform="translate(-15.865 -5.311)" fill="#fff"/>
            <path id="Trazado_105180" data-name="Trazado 105180" d="M93.466,30.66c0-.467-.008-.868-.033-1.237h.63l.025.778h.033a1.189,1.189,0,0,1,1.1-.867.822.822,0,0,1,.2.024v.68a1.135,1.135,0,0,0-.246-.024,1.01,1.01,0,0,0-.966.925,2.111,2.111,0,0,0-.033.336v2.111h-.712Z" transform="translate(-16.915 -5.311)" fill="#fff"/>
            <path id="Trazado_105181" data-name="Trazado 105181" d="M97.751,28.054v1.138h1.031v.549H97.751v2.137c0,.491.139.768.54.768a1.6,1.6,0,0,0,.418-.048l.033.54a1.78,1.78,0,0,1-.638.1,1,1,0,0,1-.778-.3,1.467,1.467,0,0,1-.278-1.032V29.74h-.614v-.549h.614v-.948Z" transform="translate(-17.458 -5.079)" fill="#fff"/>
            <path id="Trazado_105182" data-name="Trazado 105182" d="M100.292,27.185h.721v2.472h.016a1.354,1.354,0,0,1,.516-.508,1.486,1.486,0,0,1,.737-.2c.532,0,1.383.328,1.383,1.694V33h-.721V30.72c0-.639-.237-1.178-.916-1.178a1.036,1.036,0,0,0-.966.721.886.886,0,0,0-.048.344V33h-.721Z" transform="translate(-18.157 -4.922)" fill="#fff"/>
            <path id="Trazado_105183" data-name="Trazado 105183" d="M106.18,31.535a1.269,1.269,0,0,0,1.359,1.375,2.6,2.6,0,0,0,1.1-.2l.123.516a3.226,3.226,0,0,1-1.318.245,1.839,1.839,0,0,1-1.948-2,1.923,1.923,0,0,1,1.858-2.137,1.679,1.679,0,0,1,1.637,1.867,2.716,2.716,0,0,1-.025.335Zm2.111-.516a1.024,1.024,0,0,0-1-1.17,1.194,1.194,0,0,0-1.1,1.17Z" transform="translate(-19.098 -5.31)" fill="#fff"/>
            <path id="Trazado_105184" data-name="Trazado 105184" d="M110.846,30.66c0-.467-.009-.868-.033-1.237h.629l.025.778h.033a1.189,1.189,0,0,1,1.1-.867.832.832,0,0,1,.2.024v.68a1.143,1.143,0,0,0-.247-.024,1.011,1.011,0,0,0-.966.925,2.21,2.21,0,0,0-.033.336v2.111h-.711Z" transform="translate(-20.061 -5.311)" fill="#fff"/>
            <path id="Trazado_105185" data-name="Trazado 105185" d="M114.155,30.5c0-.409-.008-.745-.033-1.074h.638l.041.656h.017a1.453,1.453,0,0,1,1.309-.745c.549,0,1.4.328,1.4,1.686v2.365h-.72V31.1c0-.638-.237-1.169-.916-1.169a1.023,1.023,0,0,0-.966.736,1.036,1.036,0,0,0-.049.336v2.382h-.72Z" transform="translate(-20.66 -5.311)" fill="#fff"/>
            <path id="Trazado_105186" data-name="Trazado 105186" d="M75.743,39.185h.72v2.472h.016A1.343,1.343,0,0,1,77,41.149a1.483,1.483,0,0,1,.737-.2c.532,0,1.382.328,1.382,1.694V45h-.72V42.72c0-.638-.238-1.178-.916-1.178a1.035,1.035,0,0,0-.966.721.888.888,0,0,0-.049.344V45h-.72Z" transform="translate(-13.712 -7.094)" fill="#fff"/>
            <path id="Trazado_105187" data-name="Trazado 105187" d="M81.63,43.535a1.269,1.269,0,0,0,1.359,1.375,2.621,2.621,0,0,0,1.1-.2l.122.514a3.192,3.192,0,0,1-1.318.246,1.839,1.839,0,0,1-1.947-2A1.923,1.923,0,0,1,82.8,41.333,1.679,1.679,0,0,1,84.438,43.2a2.687,2.687,0,0,1-.025.336Zm2.112-.516a1.025,1.025,0,0,0-1-1.17,1.193,1.193,0,0,0-1.1,1.17Z" transform="translate(-14.654 -7.483)" fill="#fff"/>
            <path id="Trazado_105188" data-name="Trazado 105188" d="M86.3,42.5c0-.409-.008-.744-.033-1.072h.63l.034.639h.025a1.365,1.365,0,0,1,1.244-.729,1.169,1.169,0,0,1,1.121.794h.016a1.615,1.615,0,0,1,.442-.516,1.35,1.35,0,0,1,.875-.278c.524,0,1.3.344,1.3,1.719v2.332h-.7V43.143c0-.762-.278-1.219-.859-1.219a.933.933,0,0,0-.852.655,1.178,1.178,0,0,0-.057.36v2.447h-.705V43.012c0-.631-.278-1.088-.826-1.088a.983.983,0,0,0-.893.72A1,1,0,0,0,87,43v2.39h-.7Z" transform="translate(-15.617 -7.483)" fill="#fff"/>
            <path id="Trazado_105189" data-name="Trazado 105189" d="M95.425,39.985a.446.446,0,0,1-.892,0,.439.439,0,0,1,.45-.45.428.428,0,0,1,.441.45m-.8,1.113h.721V45.06h-.721Z" transform="translate(-17.114 -7.157)" fill="#fff"/>
            <path id="Trazado_105190" data-name="Trazado 105190" d="M96.823,44.649a1.886,1.886,0,0,0,.949.287c.524,0,.77-.262.77-.59,0-.344-.2-.532-.737-.729-.712-.253-1.047-.646-1.047-1.121a1.222,1.222,0,0,1,1.367-1.162,1.977,1.977,0,0,1,.974.246l-.179.524a1.538,1.538,0,0,0-.812-.23c-.425,0-.663.246-.663.541,0,.328.238.476.753.672.688.262,1.039.605,1.039,1.195,0,.7-.541,1.187-1.482,1.187a2.269,2.269,0,0,1-1.114-.269Z" transform="translate(-17.496 -7.483)" fill="#fff"/>
            <path id="Trazado_105191" data-name="Trazado 105191" d="M100.935,42.717c0-.508-.016-.917-.033-1.293h.647l.033.679h.016a1.559,1.559,0,0,1,1.409-.77,1.8,1.8,0,0,1,1.678,2.014,1.876,1.876,0,0,1-1.8,2.128,1.389,1.389,0,0,1-1.219-.622h-.016v2.152h-.713Zm.713,1.056a1.608,1.608,0,0,0,.032.294,1.11,1.11,0,0,0,1.08.844c.761,0,1.2-.622,1.2-1.53,0-.794-.418-1.474-1.178-1.474a1.147,1.147,0,0,0-1.088.893,1.132,1.132,0,0,0-.048.294Z" transform="translate(-18.267 -7.483)" fill="#fff"/>
            <path id="Trazado_105192" data-name="Trazado 105192" d="M106.633,39.185h.72v2.472h.016a1.343,1.343,0,0,1,.516-.508,1.483,1.483,0,0,1,.737-.2c.532,0,1.382.328,1.382,1.694V45h-.72V42.72c0-.638-.238-1.178-.916-1.178a1.035,1.035,0,0,0-.966.721.888.888,0,0,0-.049.344V45h-.72Z" transform="translate(-19.305 -7.094)" fill="#fff"/>
            <path id="Trazado_105193" data-name="Trazado 105193" d="M112.52,43.535a1.269,1.269,0,0,0,1.359,1.375,2.621,2.621,0,0,0,1.1-.2l.122.514a3.192,3.192,0,0,1-1.318.246,1.839,1.839,0,0,1-1.947-2,1.923,1.923,0,0,1,1.858-2.137,1.679,1.679,0,0,1,1.637,1.866,2.683,2.683,0,0,1-.025.336Zm2.112-.516a1.025,1.025,0,0,0-1-1.17,1.193,1.193,0,0,0-1.1,1.17Z" transform="translate(-20.246 -7.483)" fill="#fff"/>
            <path id="Trazado_105194" data-name="Trazado 105194" d="M117.185,42.66c0-.466-.008-.868-.033-1.236h.63l.025.777h.033a1.189,1.189,0,0,1,1.1-.867.784.784,0,0,1,.2.025v.679a1.131,1.131,0,0,0-.246-.025,1.011,1.011,0,0,0-.966.925,2.121,2.121,0,0,0-.033.336v2.111h-.712Z" transform="translate(-21.209 -7.483)" fill="#fff"/>
            <path id="Trazado_105195" data-name="Trazado 105195" d="M120.7,43.535a1.269,1.269,0,0,0,1.359,1.375,2.617,2.617,0,0,0,1.1-.2l.123.514a3.2,3.2,0,0,1-1.318.246,1.84,1.84,0,0,1-1.948-2,1.923,1.923,0,0,1,1.858-2.137,1.679,1.679,0,0,1,1.637,1.866,2.719,2.719,0,0,1-.025.336Zm2.111-.516a1.024,1.024,0,0,0-1-1.17,1.194,1.194,0,0,0-1.1,1.17Z" transform="translate(-21.727 -7.483)" fill="#fff"/>
            <path id="Trazado_105196" data-name="Trazado 105196" d="M81.067,157.424a2.525,2.525,0,0,0,1.278.36c.728,0,1.154-.384,1.154-.941,0-.515-.3-.81-1.04-1.1-.9-.319-1.457-.785-1.457-1.563a1.588,1.588,0,0,1,1.785-1.5,2.506,2.506,0,0,1,1.219.269l-.2.582a2.189,2.189,0,0,0-1.048-.262c-.753,0-1.039.449-1.039.826,0,.515.336.77,1.1,1.064.933.36,1.408.81,1.408,1.621,0,.851-.63,1.588-1.932,1.588a2.845,2.845,0,0,1-1.408-.352Z" transform="translate(-14.644 -27.642)" fill="#fff"/>
            <path id="Trazado_105197" data-name="Trazado 105197" d="M89.709,156.622a1.936,1.936,0,0,1-1.973,2.1,1.883,1.883,0,0,1-1.9-2.038,1.934,1.934,0,0,1,1.965-2.1,1.876,1.876,0,0,1,1.907,2.038m-3.142.041c0,.868.5,1.522,1.2,1.522.688,0,1.2-.646,1.2-1.539,0-.67-.335-1.522-1.187-1.522s-1.218.786-1.218,1.539" transform="translate(-15.54 -27.986)" fill="#fff"/>
            <path id="Trazado_105198" data-name="Trazado 105198" d="M94.988,157.574c0,.409.008.769.033,1.081h-.639l-.041-.647h-.016a1.491,1.491,0,0,1-1.31.737c-.622,0-1.367-.344-1.367-1.735v-2.317h.721v2.194c0,.753.228,1.26.884,1.26a1.014,1.014,0,0,0,1.015-1.023v-2.432h.721Z" transform="translate(-16.592 -28.005)" fill="#fff"/>
            <path id="Trazado_105199" data-name="Trazado 105199" d="M97.956,153.3v1.138h1.031v.548H97.956v2.136c0,.491.139.769.54.769a1.637,1.637,0,0,0,.418-.048l.033.54a1.777,1.777,0,0,1-.638.1,1,1,0,0,1-.778-.3,1.466,1.466,0,0,1-.278-1.031v-2.16h-.614v-.548h.614v-.951Z" transform="translate(-17.495 -27.754)" fill="#fff"/>
            <path id="Trazado_105200" data-name="Trazado 105200" d="M100.5,152.434h.721v2.472h.016a1.349,1.349,0,0,1,.516-.508,1.486,1.486,0,0,1,.737-.2c.532,0,1.383.328,1.383,1.694v2.358h-.721v-2.277c0-.638-.237-1.178-.916-1.178a1.037,1.037,0,0,0-.966.721.889.889,0,0,0-.048.344v2.391H100.5Z" transform="translate(-18.194 -27.596)" fill="#fff"/>
            <path id="Trazado_105201" data-name="Trazado 105201" d="M106.385,156.784a1.269,1.269,0,0,0,1.359,1.376,2.6,2.6,0,0,0,1.1-.2l.123.515a3.209,3.209,0,0,1-1.318.246,1.84,1.84,0,0,1-1.948-2,1.923,1.923,0,0,1,1.858-2.136,1.679,1.679,0,0,1,1.637,1.866,2.715,2.715,0,0,1-.025.335Zm2.111-.515a1.025,1.025,0,0,0-1-1.171,1.2,1.2,0,0,0-1.1,1.171Z" transform="translate(-19.135 -27.985)" fill="#fff"/>
            <path id="Trazado_105202" data-name="Trazado 105202" d="M111.051,155.91c0-.467-.008-.869-.033-1.237h.63l.025.777h.033a1.188,1.188,0,0,1,1.1-.866.821.821,0,0,1,.2.024v.68a1.083,1.083,0,0,0-.246-.025,1.011,1.011,0,0,0-.966.925,2.109,2.109,0,0,0-.033.335v2.112h-.712Z" transform="translate(-20.098 -27.986)" fill="#fff"/>
            <path id="Trazado_105203" data-name="Trazado 105203" d="M114.36,155.746c0-.409-.008-.744-.033-1.073h.638l.041.655h.017a1.454,1.454,0,0,1,1.309-.744c.549,0,1.4.327,1.4,1.686v2.365h-.72v-2.284c0-.638-.238-1.17-.916-1.17a1.057,1.057,0,0,0-1.016,1.073v2.382h-.72Z" transform="translate(-20.698 -27.986)" fill="#fff"/>
            <path id="Trazado_105204" data-name="Trazado 105204" d="M75.743,164.434h.72v2.472h.016A1.332,1.332,0,0,1,77,166.4a1.483,1.483,0,0,1,.737-.2c.532,0,1.382.327,1.382,1.694v2.358h-.72v-2.277c0-.638-.238-1.178-.916-1.178a1.036,1.036,0,0,0-.966.722.885.885,0,0,0-.049.344v2.39h-.72Z" transform="translate(-13.712 -29.769)" fill="#fff"/>
            <path id="Trazado_105205" data-name="Trazado 105205" d="M81.63,168.784a1.27,1.27,0,0,0,1.359,1.376,2.606,2.606,0,0,0,1.1-.2l.122.515a3.206,3.206,0,0,1-1.318.246,1.84,1.84,0,0,1-1.947-2,1.923,1.923,0,0,1,1.858-2.136,1.678,1.678,0,0,1,1.637,1.866,2.673,2.673,0,0,1-.025.336Zm2.112-.515a1.026,1.026,0,0,0-1-1.171,1.193,1.193,0,0,0-1.1,1.171Z" transform="translate(-14.654 -30.158)" fill="#fff"/>
            <path id="Trazado_105206" data-name="Trazado 105206" d="M86.3,167.745c0-.408-.008-.744-.033-1.072h.63l.034.639h.025a1.366,1.366,0,0,1,1.244-.728,1.168,1.168,0,0,1,1.121.794h.016a1.611,1.611,0,0,1,.442-.515,1.346,1.346,0,0,1,.875-.278c.524,0,1.3.344,1.3,1.718v2.333h-.7v-2.242c0-.762-.278-1.22-.859-1.22a.934.934,0,0,0-.852.656,1.178,1.178,0,0,0-.057.36v2.447h-.705v-2.373c0-.631-.278-1.089-.826-1.089a.983.983,0,0,0-.893.72,1,1,0,0,0-.057.353v2.39h-.7Z" transform="translate(-15.617 -30.158)" fill="#fff"/>
            <path id="Trazado_105207" data-name="Trazado 105207" d="M95.425,165.235a.446.446,0,0,1-.892,0,.438.438,0,0,1,.45-.45.427.427,0,0,1,.441.45m-.8,1.113h.721v3.962h-.721Z" transform="translate(-17.114 -29.832)" fill="#fff"/>
            <path id="Trazado_105208" data-name="Trazado 105208" d="M96.823,169.9a1.886,1.886,0,0,0,.949.287c.524,0,.77-.261.77-.589,0-.344-.2-.533-.737-.73-.712-.252-1.047-.646-1.047-1.121a1.221,1.221,0,0,1,1.367-1.161,1.978,1.978,0,0,1,.974.245l-.179.525a1.53,1.53,0,0,0-.812-.231c-.425,0-.663.247-.663.541,0,.328.238.476.753.672.688.262,1.039.6,1.039,1.195,0,.7-.541,1.187-1.482,1.187a2.269,2.269,0,0,1-1.114-.27Z" transform="translate(-17.496 -30.158)" fill="#fff"/>
            <path id="Trazado_105209" data-name="Trazado 105209" d="M100.935,167.967c0-.509-.016-.918-.033-1.294h.647l.033.68h.016a1.559,1.559,0,0,1,1.409-.77,1.8,1.8,0,0,1,1.678,2.014,1.875,1.875,0,0,1-1.8,2.128,1.387,1.387,0,0,1-1.219-.622h-.016v2.153h-.713Zm.713,1.056a1.616,1.616,0,0,0,.032.294,1.11,1.11,0,0,0,1.08.844c.761,0,1.2-.622,1.2-1.531,0-.794-.418-1.473-1.178-1.473a1.147,1.147,0,0,0-1.088.893,1.127,1.127,0,0,0-.048.294Z" transform="translate(-18.267 -30.158)" fill="#fff"/>
            <path id="Trazado_105210" data-name="Trazado 105210" d="M106.633,164.434h.72v2.472h.016a1.332,1.332,0,0,1,.516-.508,1.483,1.483,0,0,1,.737-.2c.532,0,1.382.327,1.382,1.694v2.358h-.72v-2.277c0-.638-.238-1.178-.916-1.178a1.036,1.036,0,0,0-.966.722.885.885,0,0,0-.049.344v2.39h-.72Z" transform="translate(-19.305 -29.769)" fill="#fff"/>
            <path id="Trazado_105211" data-name="Trazado 105211" d="M112.52,168.784a1.27,1.27,0,0,0,1.359,1.376,2.606,2.606,0,0,0,1.1-.2l.122.515a3.206,3.206,0,0,1-1.318.246,1.84,1.84,0,0,1-1.947-2,1.923,1.923,0,0,1,1.858-2.136,1.678,1.678,0,0,1,1.637,1.866,2.669,2.669,0,0,1-.025.336Zm2.112-.515a1.026,1.026,0,0,0-1-1.171,1.193,1.193,0,0,0-1.1,1.171Z" transform="translate(-20.246 -30.158)" fill="#fff"/>
            <path id="Trazado_105212" data-name="Trazado 105212" d="M117.185,167.91c0-.467-.008-.869-.033-1.237h.63l.025.777h.033a1.189,1.189,0,0,1,1.1-.866.822.822,0,0,1,.2.024v.68a1.127,1.127,0,0,0-.246-.025,1.012,1.012,0,0,0-.966.926,2.112,2.112,0,0,0-.033.336v2.111h-.712Z" transform="translate(-21.209 -30.158)" fill="#fff"/>
            <path id="Trazado_105213" data-name="Trazado 105213" d="M120.7,168.784a1.269,1.269,0,0,0,1.359,1.376,2.6,2.6,0,0,0,1.1-.2l.123.515a3.209,3.209,0,0,1-1.318.246,1.84,1.84,0,0,1-1.948-2,1.923,1.923,0,0,1,1.858-2.136,1.678,1.678,0,0,1,1.637,1.866,2.705,2.705,0,0,1-.025.336Zm2.111-.515a1.025,1.025,0,0,0-1-1.171,1.2,1.2,0,0,0-1.1,1.171Z" transform="translate(-21.727 -30.158)" fill="#fff"/>
            <path id="Trazado_105214" data-name="Trazado 105214" d="M96.163,143.15a4.134,4.134,0,0,1,.242,1.355,2.074,2.074,0,0,1-2.227,2.266,2.213,2.213,0,0,1-2.278-2.39,2.748,2.748,0,0,1,.2-1.1l.465.138a2.286,2.286,0,0,0-.19.976,1.65,1.65,0,0,0,1.775,1.774,1.618,1.618,0,0,0,1.781-1.7,1.854,1.854,0,0,0-.118-.759H94.5v.9h-.459V143.15Z" transform="translate(-16.637 -25.916)" fill="#161615"/>
            <path id="Trazado_105215" data-name="Trazado 105215" d="M94.448,141.762c-.373,0-.694.007-.989.026v-.5l.622-.02v-.026a.95.95,0,0,1-.694-.878.62.62,0,0,1,.02-.163h.544a.818.818,0,0,0-.02.2.807.807,0,0,0,.74.772,1.625,1.625,0,0,0,.269.026h1.689v.57Z" transform="translate(-16.907 -25.381)" fill="#161615"/>
            <path id="Trazado_105216" data-name="Trazado 105216" d="M95.149,138.683a1.015,1.015,0,0,0,1.1-1.087,2.085,2.085,0,0,0-.164-.878l.412-.1a2.551,2.551,0,0,1,.2,1.054,1.472,1.472,0,0,1-1.6,1.558,1.538,1.538,0,0,1-1.708-1.486,1.343,1.343,0,0,1,1.493-1.31,1.994,1.994,0,0,1,.269.02Zm-.413-1.689a.821.821,0,0,0-.937.8.956.956,0,0,0,.937.884Z" transform="translate(-16.907 -24.7)" fill="#161615"/>
            <path id="Trazado_105217" data-name="Trazado 105217" d="M95.149,134.675a1.015,1.015,0,0,0,1.1-1.087,2.085,2.085,0,0,0-.164-.878l.412-.1a2.551,2.551,0,0,1,.2,1.054,1.472,1.472,0,0,1-1.6,1.558,1.538,1.538,0,0,1-1.708-1.486,1.343,1.343,0,0,1,1.493-1.31,2,2,0,0,1,.269.02Zm-.413-1.69a.821.821,0,0,0-.937.8.956.956,0,0,0,.937.884Z" transform="translate(-16.907 -23.975)" fill="#161615"/>
            <path id="Trazado_105218" data-name="Trazado 105218" d="M94.316,130.959c-.327,0-.6.007-.858.026v-.51l.524-.034v-.012a1.168,1.168,0,0,1-.6-1.048c0-.439.263-1.12,1.35-1.12h1.892v.577H94.8c-.511,0-.937.191-.937.734a.816.816,0,0,0,.59.772.805.805,0,0,0,.269.041h1.9v.575Z" transform="translate(-16.906 -23.22)" fill="#161615"/>
            <path id="Trazado_105219" data-name="Trazado 105219" d="M93.475,126.054l1.612-.419c.353-.093.681-.178,1.007-.237v-.019c-.32-.072-.66-.177-1-.282l-1.618-.518v-.485l1.586-.491c.379-.118.713-.21,1.034-.282v-.02a9.755,9.755,0,0,1-1.028-.242l-1.591-.453v-.569l3.169,1.022v.522l-1.513.485a10.272,10.272,0,0,1-1.041.282v.014a9.2,9.2,0,0,1,1.047.287l1.506.511v.523l-3.169.957Z" transform="translate(-16.923 -22.094)" fill="#161615"/>
            <path id="Trazado_105220" data-name="Trazado 105220" d="M92.308,120.549a.357.357,0,0,1,0,.713.351.351,0,0,1-.36-.36.342.342,0,0,1,.36-.353m4.06.641H93.2v-.576h3.169Z" transform="translate(-16.646 -21.824)" fill="#161615"/>
            <path id="Trazado_105221" data-name="Trazado 105221" d="M96.512,116.7a2.125,2.125,0,0,1,.183.91,1.506,1.506,0,0,1-1.617,1.579,1.611,1.611,0,0,1-1.683-1.7,1.93,1.93,0,0,1,.164-.8l.445.132a1.341,1.341,0,0,0-.15.667,1.195,1.195,0,0,0,2.383.02,1.619,1.619,0,0,0-.157-.707Z" transform="translate(-16.908 -21.124)" fill="#161615"/>
            <path id="Trazado_105222" data-name="Trazado 105222" d="M91.668,115.28V114.7h1.978v-.014a1.059,1.059,0,0,1-.406-.413,1.181,1.181,0,0,1-.164-.588c0-.426.262-1.107,1.355-1.107h1.886v.576H94.5c-.511,0-.943.191-.943.735a.829.829,0,0,0,.577.772.709.709,0,0,0,.274.039h1.912v.577Z" transform="translate(-16.595 -20.382)" fill="#161615"/>
            <path id="Trazado_105223" data-name="Trazado 105223" d="M94.316,100.262c-.327,0-.6.007-.858.025v-.5l.511-.026v-.02a1.089,1.089,0,0,1-.583-.994.938.938,0,0,1,.636-.9v-.013a1.3,1.3,0,0,1-.413-.353,1.086,1.086,0,0,1-.224-.7c0-.419.275-1.041,1.376-1.041h1.866V96.3H94.834c-.609,0-.976.223-.976.688a.746.746,0,0,0,.524.681.95.95,0,0,0,.288.046h1.957v.563h-1.9c-.5,0-.871.224-.871.663a.859.859,0,0,0,.857.759h1.912v.563Z" transform="translate(-16.906 -17.332)" fill="#161615"/>
            <path id="Trazado_105224" data-name="Trazado 105224" d="M95.149,93.7a1.016,1.016,0,0,0,1.1-1.088,2.076,2.076,0,0,0-.164-.876l.412-.1a2.551,2.551,0,0,1,.2,1.054,1.473,1.473,0,0,1-1.6,1.559,1.538,1.538,0,0,1-1.708-1.486,1.342,1.342,0,0,1,1.493-1.31,2.178,2.178,0,0,1,.269.02Zm-.413-1.69a.821.821,0,0,0-.937.8.957.957,0,0,0,.937.884Z" transform="translate(-16.907 -16.557)" fill="#161615"/>
            <path id="Trazado_105225" data-name="Trazado 105225" d="M94.448,90.235c-.373,0-.694.007-.989.026v-.5l.622-.02v-.026a.95.95,0,0,1-.694-.878.62.62,0,0,1,.02-.163h.544a.819.819,0,0,0-.02.2.807.807,0,0,0,.74.772,1.624,1.624,0,0,0,.269.026h1.689v.57Z" transform="translate(-16.907 -16.053)" fill="#161615"/>
            <path id="Trazado_105226" data-name="Trazado 105226" d="M92.308,87.149a.357.357,0,0,1,0,.714.351.351,0,0,1-.36-.36.342.342,0,0,1,.36-.354m4.06.642H93.2v-.577h3.169Z" transform="translate(-16.646 -15.777)" fill="#161615"/>
            <path id="Trazado_105227" data-name="Trazado 105227" d="M91.668,82.713H95.5c.282,0,.6-.007.818-.025V83.2l-.55.027v.012a1.17,1.17,0,0,1,.622,1.08,1.445,1.445,0,0,1-1.611,1.356,1.517,1.517,0,0,1-1.7-1.422,1.057,1.057,0,0,1,.485-.955V83.29H91.668Zm2.77.577a1.022,1.022,0,0,0-.242.026.848.848,0,0,0-.667.832c0,.595.523.948,1.224.948.642,0,1.172-.314,1.172-.936a.865.865,0,0,0-.687-.844,1,1,0,0,0-.249-.026Z" transform="translate(-16.595 -14.97)" fill="#161615"/>
            <path id="Trazado_105228" data-name="Trazado 105228" d="M92.308,80.765a.357.357,0,0,1,0,.714.351.351,0,0,1-.36-.36.342.342,0,0,1,.36-.354m4.06.642H93.2v-.576h3.169Z" transform="translate(-16.646 -14.621)" fill="#161615"/>
            <path id="Trazado_105229" data-name="Trazado 105229" d="M96.628,77.419l-.4.044v.021a1.175,1.175,0,0,1,.472.967.9.9,0,0,1-.911.97c-.766,0-1.185-.681-1.178-1.9h-.065a.653.653,0,0,0-.734.72,1.572,1.572,0,0,0,.235.825l-.38.132a1.977,1.977,0,0,1-.281-1.042c0-.97.661-1.2,1.3-1.2h1.184a4.556,4.556,0,0,0,.76-.052Zm-1.617.084c-.013.629.1,1.342.713,1.342a.51.51,0,0,0,.55-.544.788.788,0,0,0-.53-.767.635.635,0,0,0-.183-.032Z" transform="translate(-16.907 -13.921)" fill="#161615"/>
            <path id="Trazado_105230" data-name="Trazado 105230" d="M94.316,75.225c-.327,0-.6.007-.858.026V74.74l.524-.033v-.012a1.17,1.17,0,0,1-.6-1.048c0-.439.263-1.12,1.35-1.12h1.892V73.1H94.8c-.511,0-.937.191-.937.734a.818.818,0,0,0,.59.772.829.829,0,0,0,.269.039h1.9v.577Z" transform="translate(-16.906 -13.13)" fill="#161615"/>
            <rect id="Rectángulo_13430" data-name="Rectángulo 13430" width="4.649" height="0.576" transform="translate(75.073 56.494)" fill="#161615"/>
            <path id="Trazado_105231" data-name="Trazado 105231" d="M92.308,67.014a.357.357,0,0,1,0,.714.352.352,0,0,1-.36-.361.342.342,0,0,1,.36-.353m4.06.642H93.2v-.577h3.169Z" transform="translate(-16.646 -12.132)" fill="#161615"/>
            <path id="Trazado_105232" data-name="Trazado 105232" d="M94.316,65.329c-.327,0-.6.007-.858.025v-.51l.524-.033V64.8a1.167,1.167,0,0,1-.6-1.048c0-.438.263-1.12,1.35-1.12h1.892v.577H94.8c-.511,0-.937.19-.937.734a.817.817,0,0,0,.59.772.828.828,0,0,0,.269.04h1.9v.576Z" transform="translate(-16.906 -11.339)" fill="#161615"/>
            <path id="Trazado_105233" data-name="Trazado 105233" d="M95.149,60.6a1.016,1.016,0,0,0,1.1-1.088,2.081,2.081,0,0,0-.164-.877l.412-.1a2.552,2.552,0,0,1,.2,1.055,1.472,1.472,0,0,1-1.6,1.558,1.538,1.538,0,0,1-1.708-1.486,1.343,1.343,0,0,1,1.493-1.31,2.175,2.175,0,0,1,.269.02Zm-.413-1.69a.821.821,0,0,0-.937.8.957.957,0,0,0,.937.884Z" transform="translate(-16.907 -10.564)" fill="#161615"/>
            <path id="Trazado_105234" data-name="Trazado 105234" d="M127.479,100.959h-1.716v1.591h1.912v.477h-2.481V98.615h2.383v.478h-1.814v1.394h1.716Z" transform="translate(-22.665 -17.853)" fill="#161615"/>
            <path id="Trazado_105235" data-name="Trazado 105235" d="M131.184,102.8h-.013a1.127,1.127,0,0,1-1.034.563,1.445,1.445,0,0,1-1.342-1.6,1.518,1.518,0,0,1,1.434-1.709,1.041,1.041,0,0,1,.975.55h.013l.02-.478h.544c-.013.269-.02.544-.02.871v3.6h-.577Zm0-1.395a1.024,1.024,0,0,0-.025-.242.843.843,0,0,0-.826-.654c-.6,0-.956.5-.956,1.218,0,.628.3,1.178.936,1.178a.857.857,0,0,0,.825-.629.931.931,0,0,0,.046-.274Z" transform="translate(-23.317 -18.112)" fill="#161615"/>
            <path id="Trazado_105236" data-name="Trazado 105236" d="M136.224,102.439c0,.328.007.616.026.865h-.51l-.033-.518h-.013a1.193,1.193,0,0,1-1.048.59c-.5,0-1.093-.275-1.093-1.388v-1.853h.576v1.755c0,.6.184,1.009.708,1.009a.833.833,0,0,0,.758-.524.85.85,0,0,0,.053-.295v-1.945h.576Z" transform="translate(-24.178 -18.128)" fill="#161615"/>
            <path id="Trazado_105237" data-name="Trazado 105237" d="M139.685,103.287l-.046-.4h-.02a1.178,1.178,0,0,1-.969.472.9.9,0,0,1-.97-.911c0-.766.681-1.185,1.906-1.178v-.065a.653.653,0,0,0-.721-.734,1.574,1.574,0,0,0-.824.235l-.132-.38a1.975,1.975,0,0,1,1.042-.281c.969,0,1.2.661,1.2,1.3v1.184a4.465,4.465,0,0,0,.052.76Zm-.085-1.617c-.629-.013-1.342.1-1.342.713a.51.51,0,0,0,.543.55.788.788,0,0,0,.767-.53.611.611,0,0,0,.033-.183Z" transform="translate(-24.925 -18.112)" fill="#161615"/>
            <path id="Trazado_105238" data-name="Trazado 105238" d="M142.424,99.022v.91h.825v.439h-.825v1.709c0,.393.111.616.432.616a1.243,1.243,0,0,0,.335-.04l.026.433a1.436,1.436,0,0,1-.511.079.8.8,0,0,1-.622-.242,1.174,1.174,0,0,1-.222-.825v-1.73h-.491v-.439h.491v-.758Z" transform="translate(-25.593 -17.927)" fill="#161615"/>
            <path id="Trazado_105239" data-name="Trazado 105239" d="M147.227,101.677a1.549,1.549,0,0,1-1.578,1.683,1.507,1.507,0,0,1-1.519-1.631,1.548,1.548,0,0,1,1.572-1.683,1.5,1.5,0,0,1,1.526,1.631m-2.514.033c0,.694.4,1.218.962,1.218s.963-.518.963-1.231c0-.537-.269-1.218-.95-1.218s-.975.629-.975,1.231" transform="translate(-26.093 -18.112)" fill="#161615"/>
            <path id="Trazado_105240" data-name="Trazado 105240" d="M148.8,101.107c0-.373-.007-.694-.026-.989h.5l.019.622h.027a.95.95,0,0,1,.877-.694.622.622,0,0,1,.164.02v.544a.819.819,0,0,0-.2-.02.808.808,0,0,0-.772.74,1.62,1.62,0,0,0-.027.269v1.689H148.8Z" transform="translate(-26.933 -18.112)" fill="#161615"/>
            <rect id="Rectángulo_13431" data-name="Rectángulo 13431" width="0.577" height="4.649" transform="translate(125.394 80.526)" fill="#161615"/>
            <path id="Trazado_105241" data-name="Trazado 105241" d="M155.627,98.967a.357.357,0,0,1-.714,0,.352.352,0,0,1,.36-.36.342.342,0,0,1,.354.36m-.642.89h.577v3.169h-.577Z" transform="translate(-28.045 -17.852)" fill="#161615"/>
            <path id="Trazado_105242" data-name="Trazado 105242" d="M156.867,100.976c0-.326-.007-.6-.025-.858h.51l.033.524h.013a1.169,1.169,0,0,1,1.048-.6c.438,0,1.12.263,1.12,1.349v1.893h-.577V101.46c0-.511-.19-.936-.734-.936a.817.817,0,0,0-.772.59.828.828,0,0,0-.039.268v1.906h-.577Z" transform="translate(-28.394 -18.112)" fill="#161615"/>
            <path id="Trazado_105243" data-name="Trazado 105243" d="M161.583,101.808a1.015,1.015,0,0,0,1.087,1.1,2.081,2.081,0,0,0,.877-.164l.1.412a2.55,2.55,0,0,1-1.054.2,1.472,1.472,0,0,1-1.558-1.6,1.538,1.538,0,0,1,1.486-1.708,1.342,1.342,0,0,1,1.31,1.493,2.176,2.176,0,0,1-.02.269Zm1.69-.413a.822.822,0,0,0-.8-.937.957.957,0,0,0-.884.937Z" transform="translate(-29.153 -18.112)" fill="#161615"/>
            <path id="Trazado_105244" data-name="Trazado 105244" d="M103.074,105.613a4.163,4.163,0,1,0-4.163,4.164,4.162,4.162,0,0,0,4.163-4.164" transform="translate(-17.153 -18.366)" fill="#d9000d"/>
            <path id="Trazado_105245" data-name="Trazado 105245" d="M99.754,105.751c0,1.446-.536,2.245-1.479,2.245-.832,0-1.395-.778-1.408-2.186,0-1.427.616-2.214,1.48-2.214.9,0,1.407.8,1.407,2.156m-2.311.065c0,1.108.341,1.735.865,1.735.589,0,.871-.687.871-1.774,0-1.047-.269-1.735-.865-1.735-.5,0-.871.614-.871,1.773" transform="translate(-17.537 -18.755)" fill="#fff"/>
            <path id="Trazado_105246" data-name="Trazado 105246" d="M101.01,103.722a.619.619,0,0,1,.668-.622.608.608,0,0,1,.649.616.661.661,0,0,1-1.317.007m1-.013a.333.333,0,1,0-.663.013.333.333,0,1,0,.663-.013" transform="translate(-18.287 -18.665)" fill="#fff"/>
          </g>
        </g>
      </g>
    </g>
  </g>
</svg>
