<svg xmlns="http://www.w3.org/2000/svg" xmlns:xlink="http://www.w3.org/1999/xlink" width="1076" height="325.809" viewBox="0 0 1076 325.809">
  <defs>
    <clipPath id="clip-path">
      <rect id="Rectángulo_16841" data-name="Rectángulo 16841" width="276.051" height="191.593" fill="#4463aa"/>
    </clipPath>
    <clipPath id="clip-path-2">
      <rect id="Rectángulo_16840" data-name="Rectángulo 16840" width="276.051" height="191.593" fill="#c2ebee"/>
    </clipPath>
    <clipPath id="clip-path-3">
      <rect id="Rectángulo_16843" data-name="Rectángulo 16843" width="381.431" height="264.751" fill="none"/>
    </clipPath>
  </defs>
  <g id="Grupo_57088" data-name="Grupo 57088" transform="translate(-475 -2901.355)">
    <path id="Trazado_119518" data-name="Trazado 119518" d="M117.792,175.259l-1.212-.019a18.678,18.678,0,0,0-18.4-18.954,18.9,18.9,0,0,0-3.951.365,21.85,21.85,0,0,0-42.3,2.34,17.269,17.269,0,0,0-2.262-.2A17.055,17.055,0,0,0,32.38,175.118,31.393,31.393,0,0,0,10.1,197.183l133.053,2.055c-3.231-13.534-10.846-23.762-25.357-23.979" transform="translate(489.484 2874.734)" fill="#b8e3ff"/>
    <path id="Trazado_119519" data-name="Trazado 119519" d="M49.284,141.213A21.855,21.855,0,0,0,27.392,158.74a17.049,17.049,0,0,1,14.377,15.6l27.942-17.646a21.861,21.861,0,0,0-20.427-15.479" transform="translate(514.298 2874.583)" fill="#b8e3ff"/>
    <path id="Trazado_119520" data-name="Trazado 119520" d="M19.316,164.529l19.66-15.988a17.274,17.274,0,0,0-2.262-.219,17.053,17.053,0,0,0-17.4,16.207" transform="translate(502.712 2884.782)" fill="#b8e3ff"/>
    <path id="Trazado_119521" data-name="Trazado 119521" d="M27.392,148.409l14.374,15.6a17.047,17.047,0,0,0-14.374-15.6" transform="translate(514.298 2884.914)" fill="#b8e3ff"/>
    <path id="Trazado_119522" data-name="Trazado 119522" d="M50.222,147.43a18.748,18.748,0,0,0-3.954.343l-2.537,18.2,24.755.543A18.682,18.682,0,0,0,50.222,147.43" transform="translate(537.738 2883.504)" fill="#b8e3ff"/>
    <path id="Trazado_119523" data-name="Trazado 119523" d="M117.947,155.709l-1.212-.027L32.5,155.456c0-.161.027-.317.034-.48A31.4,31.4,0,0,0,10.1,176.885l134.166,3.007c-3.138-13.554-11.81-23.867-26.318-24.183" transform="translate(489.49 2894.335)" fill="#b8e3ff"/>
    <path id="Trazado_119524" data-name="Trazado 119524" d="M32.593,163.583a17,17,0,0,0,1.763-7.153c.012-.543-.007-1.081-.049-1.614Z" transform="translate(521.76 2894.106)" fill="#b8e3ff"/>
    <path id="Trazado_119525" data-name="Trazado 119525" d="M32.593,163.583a17,17,0,0,0,1.763-7.153c.012-.543-.007-1.081-.049-1.614Z" transform="translate(521.76 2894.106)" fill="#b8e3ff"/>
    <path id="Trazado_119526" data-name="Trazado 119526" d="M27.39,148.662s11.638,3.779,11.056,14.632A15.664,15.664,0,0,1,27.39,177.926a14.632,14.632,0,1,0,0-29.264" transform="translate(514.295 2885.277)" fill="#c6e9ff"/>
    <path id="Trazado_119527" data-name="Trazado 119527" d="M68.96,155.7a21.6,21.6,0,0,0-21.917,21.271s5.79-18.15,21.795-17.05c17.658,1.212,21.393,17.7,21.393,17.7A21.6,21.6,0,0,0,68.96,155.7" transform="translate(542.49 2895.371)" fill="#c6e9ff"/>
    <g id="Grupo_57083" data-name="Grupo 57083" transform="translate(560.55 2973.358)">
      <g id="Grupo_57082" data-name="Grupo 57082" clip-path="url(#clip-path)">
        <g id="Grupo_57081" data-name="Grupo 57081" style="isolation: isolate">
          <g id="Grupo_57080" data-name="Grupo 57080" clip-path="url(#clip-path-2)">
            <path id="Trazado_119562" data-name="Trazado 119562" d="M176.466,171.268v-13a7.2,7.2,0,1,0-14.391,0v15.156a7.183,7.183,0,1,1-14.367,0v-23.8a7.185,7.185,0,0,0-13.137-4.007,7.054,7.054,0,0,0-1.227,4.007v7.742a6.681,6.681,0,0,1-6.676,6.649h-.628a6.663,6.663,0,0,1-6.569-5.724L37.618,274.248c-5.67,8.042-1.064,20.032,8.232,20.714.3.027.626.027.925.027H299.561c.324,0,.626,0,.925-.027,9.3-.682,13.9-12.7,8.2-20.714L219.1,148.263v16a6.677,6.677,0,0,1-6.651,6.649h-.626a6.685,6.685,0,0,1-6.681-6.649v-19.11a7.181,7.181,0,0,0-14.362,0V170.7a7.166,7.166,0,0,1-14.311.57" transform="translate(-35.138 -103.397)" fill="#c2ebee"/>
            <path id="Trazado_119563" data-name="Trazado 119563" d="M134.594,165.537a7.181,7.181,0,0,1,14.362,0v19.109a6.685,6.685,0,0,0,6.681,6.649h.626a6.677,6.677,0,0,0,6.651-6.649v-16l-23.17-32.571a28.273,28.273,0,0,0-23-12.293,28.914,28.914,0,0,0-23.606,12.648L74.3,163.112,78.388,166a7.188,7.188,0,0,1,13.14,4.01V193.8a7.182,7.182,0,1,0,14.364,0V178.65a7.2,7.2,0,1,1,14.391,0v13a7.166,7.166,0,0,0,14.311-.572Z" transform="translate(21.044 -123.778)" fill="#c2ebee"/>
          </g>
        </g>
      </g>
    </g>
    <path id="Trazado_119564" data-name="Trazado 119564" d="M281.373,178.3H64.587L37.67,216.432c-5.656,8.012-1.052,19.991,8.227,20.677.3.024.609.034.918.034H299.372c.309,0,.616-.01.918-.034,9.283-.687,13.875-12.689,8.19-20.685Z" transform="translate(525.498 2927.798)" fill="#007980"/>
    <g id="Grupo_57087" data-name="Grupo 57087" transform="translate(721.909 2901.355)">
      <g id="Grupo_57086" data-name="Grupo 57086" clip-path="url(#clip-path-3)">
        <g id="Grupo_57085" data-name="Grupo 57085">
          <g id="Grupo_57084" data-name="Grupo 57084" clip-path="url(#clip-path-3)">
            <path id="Trazado_119565" data-name="Trazado 119565" d="M321.8,174.919V139.648a10.658,10.658,0,0,0-21.315,0v22.486a10.659,10.659,0,1,1-21.318,0h.083V119.071a10.656,10.656,0,0,0-21.313,0v62.716a10.658,10.658,0,1,1-21.315,0V123.239L104.831,309.925c-7.825,11.095-1.446,27.641,11.394,28.592.407.029.842.056,1.251.056H466.809c.433,0,.842-.027,1.251-.056,12.865-.952,19.19-17.554,11.338-28.592L343.141,118.253v56.666a10.671,10.671,0,0,1-21.342,0" transform="translate(-101.415 -73.823)" fill="#c3ecf6"/>
            <path id="Trazado_119566" data-name="Trazado 119566" d="M156.949,143.923v58.249a10.658,10.658,0,0,0,21.315,0V139.453a10.658,10.658,0,1,1,21.315,0v43.066H199.5a10.658,10.658,0,0,0,21.315,0V160.03a10.658,10.658,0,0,1,21.315,0V195.3a10.671,10.671,0,0,0,21.342,0V138.635l-19.543-27.448c-7.6-10.712-19.353-16.982-31.811-16.982-12.782,0-24.831,6.459-32.624,17.473l-22.542,31.945Z" transform="translate(-21.744 -94.205)" fill="#83b7be"/>
          </g>
        </g>
      </g>
    </g>
    <path id="Trazado_119567" data-name="Trazado 119567" d="M441.908,169.517H142.065l-37.228,52.739c-7.823,11.083-1.456,27.653,11.377,28.6.419.032.84.049,1.268.049H466.8c.426,0,.85-.017,1.268-.049,12.84-.949,19.19-17.554,11.326-28.612Z" transform="translate(620.5 2915.196)" fill="#62898f"/>
    <rect id="Rectángulo_16844" data-name="Rectángulo 16844" width="130.587" height="158.332" transform="translate(1066.623 3008.655)" fill="#615654"/>
    <rect id="Rectángulo_16845" data-name="Rectángulo 16845" width="130.587" height="8.037" transform="translate(1066.623 3065.606)" fill="#d9cbca"/>
    <rect id="Rectángulo_16846" data-name="Rectángulo 16846" width="130.587" height="27.548" transform="translate(1066.623 3095.268)" fill="#d9cbca"/>
    <path id="Trazado_119568" data-name="Trazado 119568" d="M281.449,202.834H297.54V173.389H281.449ZM283,174.93h13v26.362H283Z" transform="translate(878.778 2920.751)" fill="#615654"/>
    <path id="Trazado_119569" data-name="Trazado 119569" d="M269.5,202.834h16.088V173.389H269.5Zm1.549-27.9h12.994v26.362H271.052Z" transform="translate(861.641 2920.751)" fill="#615654"/>
    <path id="Trazado_119570" data-name="Trazado 119570" d="M293.4,202.834h8.67V173.389H293.4Zm1.548-27.9h5.573v26.362h-5.573Z" transform="translate(895.918 2920.751)" fill="#615654"/>
    <path id="Trazado_119571" data-name="Trazado 119571" d="M287.423,202.834h16.091V173.389H287.423Zm1.546-27.9h13v26.362h-13Z" transform="translate(887.35 2920.751)" fill="#615654"/>
    <path id="Trazado_119572" data-name="Trazado 119572" d="M275.475,202.834h16.091V173.389H275.475Zm1.548-27.9h13v26.362h-13Z" transform="translate(870.208 2920.751)" fill="#615654"/>
    <path id="Trazado_119573" data-name="Trazado 119573" d="M242.684,202.834h8.67V173.389h-8.67Zm1.548-27.9h5.57v26.362h-5.57Z" transform="translate(823.165 2920.751)" fill="#615654"/>
    <path id="Trazado_119574" data-name="Trazado 119574" d="M245.608,202.834H261.7V173.389h-16.09Zm1.551-27.9h12.994v26.362H247.159Z" transform="translate(827.359 2920.751)" fill="#615654"/>
    <path id="Trazado_119575" data-name="Trazado 119575" d="M251.582,202.834h16.091V173.389H251.582Zm1.548-27.9h12.994v26.362H253.13Z" transform="translate(835.93 2920.751)" fill="#615654"/>
    <path id="Trazado_119576" data-name="Trazado 119576" d="M263.528,202.834h16.093V173.389H263.528Zm1.548-27.9h13v26.362h-13Z" transform="translate(853.068 2920.751)" fill="#615654"/>
    <path id="Trazado_119577" data-name="Trazado 119577" d="M257.555,202.834h16.091V173.389H257.555Zm1.549-27.9H272.1v26.362H259.1Z" transform="translate(844.499 2920.751)" fill="#615654"/>
    <path id="Trazado_119578" data-name="Trazado 119578" d="M269.9,101.563,258.8,348.794l41.075.487-5.244-247.425Z" transform="translate(846.283 2817.707)" fill="#a3a1a1"/>
    <path id="Trazado_119579" data-name="Trazado 119579" d="M258.8,348.893l20.536.246,2.926-247.33-12.366-.146Z" transform="translate(846.283 2817.85)" fill="#757474"/>
    <path id="Trazado_119580" data-name="Trazado 119580" d="M276.881,126.231l-14.179-.168-.645,14.352,14.657.173,14.652.175-.3-14.367Z" transform="translate(850.957 2852.855)" fill="#edecec"/>
    <path id="Trazado_119581" data-name="Trazado 119581" d="M277.564,140.027l-15.319-.18-.942,20.984,16.013.19,16.015.19-.445-21Z" transform="translate(849.877 2872.63)" fill="#edecec"/>
    <rect id="Rectángulo_16847" data-name="Rectángulo 16847" width="147.449" height="136.798" transform="translate(1296.986 3029.89)" fill="#747176"/>
    <rect id="Rectángulo_16848" data-name="Rectángulo 16848" width="36.661" height="136.798" transform="translate(1407.872 3030.189)" fill="#a3a1a1"/>
    <path id="Trazado_119584" data-name="Trazado 119584" d="M491.725,145.8H338a2.914,2.914,0,0,0,0,5.829H491.725a2.914,2.914,0,0,0,0-5.829" transform="translate(955.73 2881.175)" fill="#525151"/>
    <rect id="Rectángulo_16849" data-name="Rectángulo 16849" width="9.222" height="13.7" transform="translate(1425.131 3056.367)" fill="#edecec"/>
    <rect id="Rectángulo_16850" data-name="Rectángulo 16850" width="9.22" height="13.7" transform="translate(1408.293 3056.367)" fill="#edecec"/>
    <rect id="Rectángulo_16851" data-name="Rectángulo 16851" width="9.222" height="13.7" transform="translate(1391.453 3056.367)" fill="#edecec"/>
    <rect id="Rectángulo_16852" data-name="Rectángulo 16852" width="9.22" height="13.7" transform="translate(1374.615 3056.367)" fill="#edecec"/>
    <rect id="Rectángulo_16853" data-name="Rectángulo 16853" width="9.22" height="13.7" transform="translate(1357.777 3056.367)" fill="#edecec"/>
    <rect id="Rectángulo_16854" data-name="Rectángulo 16854" width="9.222" height="13.7" transform="translate(1340.937 3056.367)" fill="#edecec"/>
    <rect id="Rectángulo_16855" data-name="Rectángulo 16855" width="9.22" height="13.7" transform="translate(1324.099 3056.367)" fill="#edecec"/>
    <rect id="Rectángulo_16856" data-name="Rectángulo 16856" width="9.222" height="13.7" transform="translate(1307.258 3056.367)" fill="#edecec"/>
    <rect id="Rectángulo_16857" data-name="Rectángulo 16857" width="9.222" height="13.7" transform="translate(1425.131 3082.697)" fill="#edecec"/>
    <rect id="Rectángulo_16858" data-name="Rectángulo 16858" width="9.22" height="13.7" transform="translate(1408.293 3082.697)" fill="#edecec"/>
    <rect id="Rectángulo_16859" data-name="Rectángulo 16859" width="9.222" height="13.7" transform="translate(1391.453 3082.697)" fill="#edecec"/>
    <rect id="Rectángulo_16860" data-name="Rectángulo 16860" width="9.22" height="13.7" transform="translate(1374.615 3082.697)" fill="#edecec"/>
    <rect id="Rectángulo_16861" data-name="Rectángulo 16861" width="9.22" height="13.7" transform="translate(1357.777 3082.697)" fill="#edecec"/>
    <rect id="Rectángulo_16862" data-name="Rectángulo 16862" width="9.222" height="13.7" transform="translate(1340.937 3082.697)" fill="#edecec"/>
    <rect id="Rectángulo_16863" data-name="Rectángulo 16863" width="9.22" height="13.7" transform="translate(1324.099 3082.697)" fill="#edecec"/>
    <rect id="Rectángulo_16864" data-name="Rectángulo 16864" width="9.222" height="13.7" transform="translate(1307.258 3082.697)" fill="#edecec"/>
    <rect id="Rectángulo_16865" data-name="Rectángulo 16865" width="9.222" height="13.7" transform="translate(1425.131 3109.031)" fill="#edecec"/>
    <rect id="Rectángulo_16866" data-name="Rectángulo 16866" width="9.22" height="13.7" transform="translate(1408.293 3109.031)" fill="#edecec"/>
    <rect id="Rectángulo_16867" data-name="Rectángulo 16867" width="9.222" height="13.7" transform="translate(1391.453 3109.031)" fill="#edecec"/>
    <rect id="Rectángulo_16868" data-name="Rectángulo 16868" width="9.22" height="13.7" transform="translate(1374.615 3109.031)" fill="#edecec"/>
    <rect id="Rectángulo_16869" data-name="Rectángulo 16869" width="9.22" height="13.7" transform="translate(1357.777 3109.031)" fill="#edecec"/>
    <rect id="Rectángulo_16870" data-name="Rectángulo 16870" width="9.222" height="13.7" transform="translate(1340.937 3109.031)" fill="#edecec"/>
    <rect id="Rectángulo_16871" data-name="Rectángulo 16871" width="9.22" height="13.7" transform="translate(1324.099 3109.031)" fill="#edecec"/>
    <rect id="Rectángulo_16872" data-name="Rectángulo 16872" width="9.222" height="13.7" transform="translate(1307.258 3109.031)" fill="#edecec"/>
    <rect id="Rectángulo_16873" data-name="Rectángulo 16873" width="147.547" height="8.845" transform="translate(1296.82 3156.684)" fill="#525151"/>
    <path id="Trazado_119585" data-name="Trazado 119585" d="M320.436,129.72s-7.65,159.218-24.339,179.168H418.484s-25.033-54.234-29.206-179.168Z" transform="translate(899.793 2858.102)" fill="#7d6660"/>
    <path id="Trazado_119586" data-name="Trazado 119586" d="M321.231,129.72V308.888h61.195S357.393,254.654,353.22,129.72Z" transform="translate(935.852 2858.102)" fill="#97776c"/>
    <path id="Trazado_119587" data-name="Trazado 119587" d="M305.189,150.072l-.682,9.042h76.509l-.84-9.042Z" transform="translate(911.858 2887.3)" fill="#624800"/>
    <path id="Trazado_119588" data-name="Trazado 119588" d="M304.087,164.64l-.908,9.084h84.136l-1.3-9.084Z" transform="translate(909.953 2908.199)" fill="#624800"/>
    <path id="Trazado_119589" data-name="Trazado 119589" d="M306.723,129.72l-.538,10.028,69.012.146-.392-10.174Z" transform="translate(914.266 2858.101)" fill="#624800"/>
    <path id="Trazado_119590" data-name="Trazado 119590" d="M261.589,149.965c-18.192-20.424-40.5-54.02-40.5-54.02l-.195,261.4H290.2s-.971-148.238-2.754-158.2-7.669-28.76-25.861-49.182" transform="translate(791.906 2809.647)" fill="#8f534a"/>
    <path id="Trazado_119591" data-name="Trazado 119591" d="M261.474,149.965c-18.192-20.424-40.5-54.02-40.5-54.02l24.945,55.948c1.057,2.371,19.236,38.913,19.448,77.612l1.193,127.838h23.526s-.971-148.238-2.754-158.2-7.669-28.76-25.861-49.182" transform="translate(792.021 2809.647)" fill="#a5756e"/>
    <rect id="Rectángulo_16874" data-name="Rectángulo 16874" width="67.223" height="12.395" transform="translate(1012.939 3013.495)" fill="#bfa8a6"/>
    <rect id="Rectángulo_16875" data-name="Rectángulo 16875" width="68.216" height="2.973" transform="translate(1012.803 3048.629)" fill="#bfa8a6"/>
    <rect id="Rectángulo_16876" data-name="Rectángulo 16876" width="68.216" height="2.973" transform="translate(1012.803 3055.461)" fill="#bfa8a6"/>
    <rect id="Rectángulo_16877" data-name="Rectángulo 16877" width="68.216" height="2.975" transform="translate(1012.803 3062.295)" fill="#bfa8a6"/>
    <rect id="Rectángulo_16878" data-name="Rectángulo 16878" width="68.216" height="2.975" transform="translate(1012.803 3069.129)" fill="#bfa8a6"/>
    <rect id="Rectángulo_16879" data-name="Rectángulo 16879" width="68.216" height="2.975" transform="translate(1012.803 3075.961)" fill="#bfa8a6"/>
    <path id="Trazado_119592" data-name="Trazado 119592" d="M181.3,188.15c-41.2,0-76.024,15.041-87.447,35.709h174.9c-11.423-20.668-46.248-35.709-87.45-35.709" transform="translate(609.651 2941.928)" fill="#93b033"/>
    <path id="Trazado_119593" data-name="Trazado 119593" d="M236.2,183.062c-40.4,0-74.539,20.463-85.741,48.591H321.946c-11.2-28.127-45.345-48.591-85.743-48.591" transform="translate(690.859 2934.628)" fill="#789c00"/>
    <path id="Trazado_119594" data-name="Trazado 119594" d="M176.146,188.671c-8.056,2.362-12.894,8.312-11.207,11.981s8.395,4.085,15.319,2.057,12.3-5.989,11.737-9.989-7.791-6.41-15.85-4.049" transform="translate(711.148 2941.339)" fill="#93b033"/>
    <path id="Trazado_119595" data-name="Trazado 119595" d="M185.446,188.71c-4.287.032-7.589,2.118-7.4,4.285s3.513,3.62,7.457,3.591,7.277-1.531,7.433-3.7-3.2-4.209-7.489-4.178" transform="translate(730.419 2942.731)" fill="#93b033"/>
    <path id="Trazado_119596" data-name="Trazado 119596" d="M112.913,189.436a13.381,13.381,0,0,0-26.762,0,13.7,13.7,0,0,0,.146,1.882,16.988,16.988,0,1,0,26.467,0,12.971,12.971,0,0,0,.149-1.882" transform="translate(593.424 2924.576)" fill="#dadf4d"/>
    <path id="Trazado_119597" data-name="Trazado 119597" d="M90.162,184.277,89.5,228.31a.655.655,0,0,0,.66.648h.085a.653.653,0,0,0,.657-.648s-.295-44.033-.657-44.033c0,0-.085-.355-.085,0" transform="translate(603.403 2936.145)" fill="#624800"/>
    <path id="Trazado_119598" data-name="Trazado 119598" d="M90.19,192.5a20.12,20.12,0,0,1-3.954-3.932c4.463,7.182,8.567,6.973,8.567,6.973l.088-1.013s-.884.672-4.7-2.028" transform="translate(598.718 2942.535)" fill="#624800"/>
    <path id="Trazado_119599" data-name="Trazado 119599" d="M93.784,191.116c-3.243,2.3-3.993,1.724-3.993,1.724l.075.862s3.484.178,7.28-5.928a17.062,17.062,0,0,1-3.362,3.343" transform="translate(603.818 2941.387)" fill="#624800"/>
    <path id="Trazado_119600" data-name="Trazado 119600" d="M90.065,188.724a13.756,13.756,0,0,1-2.712-2.7c3.063,4.925,5.877,4.782,5.877,4.782l.058-.694s-.606.463-3.223-1.39" transform="translate(600.32 2938.881)" fill="#624800"/>
    <path id="Trazado_119601" data-name="Trazado 119601" d="M232.953,147.446a12.061,12.061,0,0,0-12.614,0c-13.763,8.626-54.222,119.448,6.308,119.448,64.068,0,20.069-110.822,6.306-119.448" transform="translate(753.771 2880.978)" fill="#33a257"/>
    <path id="Trazado_119602" data-name="Trazado 119602" d="M210.481,221.267c-.971-43.663,11.966-76.165,9.86-74.846-13.765,8.626-54.224,119.446,6.308,119.446,0,0-15.2-1.237-16.168-44.6" transform="translate(753.771 2882.006)" fill="#00744c"/>
    <path id="Trazado_119603" data-name="Trazado 119603" d="M211.124,168.721l-4.3,83.438c1.02-.049,7.708.058,8.731,0-.319-35.7-3.552-83.438-4.2-83.438,0,0-.236-.979-.236,0" transform="translate(771.723 2913.431)" fill="#624800"/>
    <path id="Trazado_119604" data-name="Trazado 119604" d="M209.74,191.277A55,55,0,0,1,198.9,180.494c12.239,19.689,23.482,19.114,23.482,19.114l.239-2.773s-2.418,1.845-12.877-5.558" transform="translate(760.345 2930.944)" fill="#624800"/>
    <path id="Trazado_119605" data-name="Trazado 119605" d="M219.586,187.466c-8.889,6.291-10.946,4.723-10.946,4.723l.2,2.357s9.558.489,19.957-16.244a46.771,46.771,0,0,1-9.213,9.164" transform="translate(774.324 2927.8)" fill="#624800"/>
    <path id="Trazado_119606" data-name="Trazado 119606" d="M209.394,180.906a37.731,37.731,0,0,1-7.438-7.4c8.395,13.507,16.112,13.113,16.112,13.113l.161-1.9s-1.66,1.266-8.835-3.813" transform="translate(764.734 2920.925)" fill="#624800"/>
    <path id="Trazado_119607" data-name="Trazado 119607" d="M167.519,164.409a8.4,8.4,0,0,0-8.784,0c-9.588,6.011-37.769,83.2,4.392,83.2,44.625,0,13.98-77.19,4.392-83.2" transform="translate(676.719 2906.089)" fill="#33a257"/>
    <path id="Trazado_119608" data-name="Trazado 119608" d="M151.864,215.827c-.674-30.411,8.336-53.053,6.868-52.133-9.585,6.011-37.766,83.2,4.395,83.2,0,0-10.591-.864-11.263-31.069" transform="translate(676.719 2906.803)" fill="#00744c"/>
    <path id="Trazado_119609" data-name="Trazado 119609" d="M152.314,179.228l-2.992,58.117c.711-.034,5.371.041,6.082,0-.222-24.863-2.476-58.117-2.926-58.117,0,0-.163-.682-.163,0" transform="translate(689.224 2928.693)" fill="#624800"/>
    <path id="Trazado_119610" data-name="Trazado 119610" d="M151.349,194.939a38.361,38.361,0,0,1-7.552-7.511c8.524,13.714,16.358,13.313,16.358,13.313l.165-1.931s-1.685,1.285-8.972-3.871" transform="translate(681.297 2940.892)" fill="#624800"/>
    <path id="Trazado_119611" data-name="Trazado 119611" d="M158.209,192.285c-6.194,4.382-7.625,3.289-7.625,3.289l.141,1.641s6.659.341,13.9-11.314a32.629,32.629,0,0,1-6.418,6.384" transform="translate(691.034 2938.701)" fill="#624800"/>
    <path id="Trazado_119612" data-name="Trazado 119612" d="M151.111,187.715a26.307,26.307,0,0,1-5.183-5.152c5.846,9.407,11.221,9.135,11.221,9.135l.112-1.327s-1.154.881-6.15-2.656" transform="translate(684.354 2933.913)" fill="#624800"/>
    <path id="Trazado_119613" data-name="Trazado 119613" d="M211.723,159.26a9.14,9.14,0,0,0-9.554,0c-10.425,6.535-43.753,90.476,4.777,90.476,45.849,0,15.2-83.942,4.777-90.476" transform="translate(735.096 2898.548)" fill="#97c266"/>
    <path id="Trazado_119614" data-name="Trazado 119614" d="M192.778,214.27c-.711-31.911,8.748-55.671,7.207-54.706-10.06,6.306-39.631,87.309,4.611,87.309,0,0-11.112-.9-11.818-32.6" transform="translate(734.615 2900.876)" fill="#71924d"/>
    <path id="Trazado_119615" data-name="Trazado 119615" d="M193.223,177.794l-3.194,62c.76-.037,5.729.044,6.491,0-.239-26.523-2.639-62-3.124-62,0,0-.173-.726-.173,0" transform="translate(747.624 2926.608)" fill="#624800"/>
    <path id="Trazado_119616" data-name="Trazado 119616" d="M192.192,194.556a40.918,40.918,0,0,1-8.056-8.012c9.093,14.63,17.449,14.2,17.449,14.2l.18-2.06s-1.8,1.371-9.573-4.129" transform="translate(739.169 2939.624)" fill="#624800"/>
    <path id="Trazado_119617" data-name="Trazado 119617" d="M199.511,191.723c-6.608,4.677-8.134,3.511-8.134,3.511l.151,1.75s7.1.365,14.829-12.069a34.746,34.746,0,0,1-6.846,6.807" transform="translate(749.558 2937.288)" fill="#624800"/>
    <path id="Trazado_119618" data-name="Trazado 119618" d="M191.937,186.849a28.126,28.126,0,0,1-5.527-5.495c6.238,10.033,11.971,9.741,11.971,9.741l.122-1.412s-1.234.94-6.566-2.834" transform="translate(742.432 2932.178)" fill="#624800"/>
    <path id="Trazado_119619" data-name="Trazado 119619" d="M141.489,159.108a9.149,9.149,0,0,0-9.558,0c-10.42,6.535-43.753,90.476,4.779,90.476,45.847,0,15.2-83.942,4.779-90.476" transform="translate(634.331 2898.33)" fill="#009969"/>
    <path id="Trazado_119620" data-name="Trazado 119620" d="M122.542,214.119c-.711-31.911,8.748-55.671,7.207-54.706-10.06,6.306-39.631,87.309,4.611,87.309,0,0-11.112-.9-11.818-32.6" transform="translate(633.852 2900.66)" fill="#00744c"/>
    <path id="Trazado_119621" data-name="Trazado 119621" d="M122.986,177.643l-3.194,62c.76-.037,5.729.044,6.488,0-.236-26.523-2.637-62-3.121-62,0,0-.173-.726-.173,0" transform="translate(646.858 2926.392)" fill="#624800"/>
    <path id="Trazado_119622" data-name="Trazado 119622" d="M121.956,194.4a40.917,40.917,0,0,1-8.056-8.012c9.093,14.63,17.449,14.2,17.449,14.2l.18-2.06s-1.8,1.371-9.573-4.129" transform="translate(638.406 2939.406)" fill="#624800"/>
    <path id="Trazado_119623" data-name="Trazado 119623" d="M129.272,191.571c-6.605,4.677-8.132,3.511-8.132,3.511l.151,1.75s7.1.365,14.829-12.068a34.718,34.718,0,0,1-6.849,6.807" transform="translate(648.793 2937.07)" fill="#624800"/>
    <path id="Trazado_119624" data-name="Trazado 119624" d="M121.7,186.7a28.125,28.125,0,0,1-5.527-5.495c6.238,10.036,11.971,9.741,11.971,9.741l.122-1.412s-1.234.94-6.566-2.834" transform="translate(641.667 2931.961)" fill="#624800"/>
    <path id="Trazado_119625" data-name="Trazado 119625" d="M159.059,152.332a10.751,10.751,0,0,0-11.243,0c-12.268,7.689-51.493,106.477,5.622,106.477,53.959,0,17.892-98.788,5.622-106.477" transform="translate(651.821 2888.266)" fill="#00b452"/>
    <path id="Trazado_119626" data-name="Trazado 119626" d="M137.226,217.66c-.845-37.9,10.391-66.122,8.56-64.976-11.952,7.489-47.074,103.7,5.476,103.7,0,0-13.2-1.074-14.036-38.721" transform="translate(651.733 2890.998)" fill="#00873e"/>
    <path id="Trazado_119627" data-name="Trazado 119627" d="M137.439,174.823l-3.55,68.92c.845-.041,6.367.046,7.211,0-.263-29.486-2.931-68.92-3.467-68.92,0,0-.195-.808-.195,0" transform="translate(667.083 2922.293)" fill="#624800"/>
    <path id="Trazado_119628" data-name="Trazado 119628" d="M136.293,193.454a45.519,45.519,0,0,1-8.955-8.906c10.109,16.261,19.4,15.786,19.4,15.786l.2-2.291s-2,1.526-10.639-4.589" transform="translate(657.685 2936.76)" fill="#624800"/>
    <path id="Trazado_119629" data-name="Trazado 119629" d="M144.428,190.306c-7.345,5.2-9.042,3.9-9.042,3.9l.166,1.945s7.9.4,16.485-13.415a38.626,38.626,0,0,1-7.608,7.567" transform="translate(669.23 2934.165)" fill="#624800"/>
    <path id="Trazado_119630" data-name="Trazado 119630" d="M136.007,184.888a31.073,31.073,0,0,1-6.14-6.108c6.931,11.156,13.3,10.829,13.3,10.829l.136-1.57s-1.368,1.047-7.3-3.15" transform="translate(661.313 2928.484)" fill="#624800"/>
    <path id="Trazado_119631" data-name="Trazado 119631" d="M141.332,183.642a19.92,19.92,0,1,0-39.617,2.8,25.286,25.286,0,1,0,39.4,0,20.12,20.12,0,0,0,.219-2.8" transform="translate(612.909 2906.883)" fill="#c2d56a"/>
    <path id="Trazado_119632" data-name="Trazado 119632" d="M107.571,172.03l-1.091,74.51a1.091,1.091,0,0,0,1.091,1.093h.144a1.093,1.093,0,0,0,1.093-1.093s-.489-74.51-1.093-74.51c0,0-.144-.6-.144,0" transform="translate(627.761 2918.417)" fill="#624800"/>
    <path id="Trazado_119633" data-name="Trazado 119633" d="M107.623,185.952a33.636,33.636,0,0,1-6.574-6.654c7.421,12.154,14.24,11.8,14.24,11.8l.144-1.712s-1.466,1.139-7.81-3.43" transform="translate(619.969 2929.229)" fill="#624800"/>
    <path id="Trazado_119634" data-name="Trazado 119634" d="M113.6,183.6c-5.393,3.883-6.642,2.914-6.642,2.914l.124,1.456s5.8.3,12.105-10.026A28.765,28.765,0,0,1,113.6,183.6" transform="translate(628.443 2927.287)" fill="#624800"/>
    <path id="Trazado_119635" data-name="Trazado 119635" d="M107.415,179.551a23.156,23.156,0,0,1-4.511-4.565c5.091,8.339,9.77,8.093,9.77,8.093l.1-1.173s-1.006.781-5.356-2.354" transform="translate(622.631 2923.042)" fill="#624800"/>
    <path id="Trazado_119636" data-name="Trazado 119636" d="M90.476,188.705a14.288,14.288,0,0,0-28.575,0,14.038,14.038,0,0,0,.158,2.011,18.137,18.137,0,1,0,28.259,0,14.4,14.4,0,0,0,.158-2.011" transform="translate(558.282 2922.229)" fill="#c2d56a"/>
    <path id="Trazado_119637" data-name="Trazado 119637" d="M66.26,180.378l-.784,53.44a.782.782,0,0,0,.784.784h.1a.78.78,0,0,0,.782-.784s-.348-53.44-.782-53.44c0,0-.1-.433-.1,0" transform="translate(568.935 2930.501)" fill="#624800"/>
    <path id="Trazado_119638" data-name="Trazado 119638" d="M66.3,190.364a24.118,24.118,0,0,1-4.716-4.774c5.32,8.716,10.213,8.463,10.213,8.463l.1-1.227s-1.052.818-5.6-2.461" transform="translate(563.347 2938.255)" fill="#624800"/>
    <path id="Trazado_119639" data-name="Trazado 119639" d="M70.58,188.676c-3.869,2.788-4.762,2.091-4.762,2.091l.088,1.044s4.158.217,8.682-7.192a20.593,20.593,0,0,1-4.007,4.056" transform="translate(569.426 2936.864)" fill="#624800"/>
    <path id="Trazado_119640" data-name="Trazado 119640" d="M66.147,185.773a16.582,16.582,0,0,1-3.236-3.275c3.652,5.979,7.007,5.8,7.007,5.8l.071-.842s-.721.562-3.842-1.687" transform="translate(565.255 2933.819)" fill="#624800"/>
    <path id="Trazado_119641" data-name="Trazado 119641" d="M96.254,208.972a5.5,5.5,0,0,0-3.547,1.29c.019-.261.039-.519.039-.784a10.551,10.551,0,0,0-18.708-6.69,7.282,7.282,0,0,0-5.312.309,14.691,14.691,0,0,0-29.213,2.233c0,.071.01.139.01.209a7.271,7.271,0,0,0-1.719-.212,7.351,7.351,0,1,0,0,14.7v.273h59.22v-.331a5.527,5.527,0,0,0-.769-11" transform="translate(518.685 2945.484)" fill="#93b033"/>
    <path id="Trazado_119642" data-name="Trazado 119642" d="M47.5,190.81a13.442,13.442,0,1,0,0,26.883s-7.72-2.442-8.312-13.442c-.536-9.97,8.312-13.442,8.312-13.442" transform="translate(523.862 2945.744)" fill="#6d9300"/>
    <path id="Trazado_119643" data-name="Trazado 119643" d="M51.568,195.548a7,7,0,0,0-6.9,7.107s1.21-4.041,6.939-4.433a7.2,7.2,0,0,1,7.068,4.224,7,7,0,0,0-7.109-6.9" transform="translate(539.085 2952.541)" fill="#6d9300"/>
    <path id="Trazado_119644" data-name="Trazado 119644" d="M138.187,146.174A10.317,10.317,0,0,0,135,149.938a10.336,10.336,0,0,0-4.538-1.76c-4.012-.592-6.97.806-7.336,3.292,0,0,1.108-2.255,7.085-1.575a10.893,10.893,0,0,1,4.334,1.361l-.11,3.1,1.485-.341,1.738-.4-1.58-2.7a14.165,14.165,0,0,1,3.143-3.353c4.251-3.408,6.97-2.016,6.97-2.016-1.5-2.011-4.765-1.8-8.01.628" transform="translate(651.648 2878.845)" fill="#84888a"/>
    <path id="Trazado_119645" data-name="Trazado 119645" d="M79.526,118.809a8.9,8.9,0,0,0-2.615,3.5,8.766,8.766,0,0,0-3.9-1.777c-3.421-.657-5.9.6-6.155,2.943,0,0,.889-2.108,5.982-1.322a9.06,9.06,0,0,1,3.718,1.393l-.022,2.934,1.254-.287,1.471-.334-1.407-2.6a11.981,11.981,0,0,1,2.59-3.1c3.528-3.133,5.872-1.748,5.872-1.748-1.324-1.943-4.09-1.824-6.788.4" transform="translate(570.914 2839.906)" fill="#84888a"/>
    <path id="Trazado_119646" data-name="Trazado 119646" d="M74.765,132.521a5.211,5.211,0,0,0-1.624,1.865,5.278,5.278,0,0,0-2.293-.85c-2.033-.278-3.538.421-3.732,1.646,0,0,.572-1.113,3.6-.8a5.54,5.54,0,0,1,2.191.655l-.068,1.524.757-.173.881-.2-.791-1.322a7.226,7.226,0,0,1,1.6-1.663c2.164-1.692,3.54-1.018,3.54-1.018-.757-.984-2.408-.869-4.063.338" transform="translate(571.286 2860.686)" fill="#84888a"/>
    <path id="Trazado_119647" data-name="Trazado 119647" d="M133.725,137.89a3.739,3.739,0,0,0-1.181,1.356,3.828,3.828,0,0,0-1.67-.618c-1.475-.2-2.571.307-2.71,1.2,0,0,.414-.808,2.612-.579a3.957,3.957,0,0,1,1.592.475l-.046,1.108.548-.127.64-.146-.572-.962a5.207,5.207,0,0,1,1.164-1.208c1.578-1.232,2.573-.74,2.573-.74-.548-.716-1.751-.633-2.951.246" transform="translate(658.869 2868.779)" fill="#84888a"/>
    <path id="Trazado_119648" data-name="Trazado 119648" d="M239.033,207.207a3.549,3.549,0,0,0-2.279.828c.015-.168.027-.331.027-.5a6.771,6.771,0,0,0-12.005-4.295,4.691,4.691,0,0,0-3.413.2,9.429,9.429,0,0,0-18.749,1.434c0,.046,0,.088.007.134a4.717,4.717,0,1,0-1.105,9.3v.173h38.012v-.212a3.547,3.547,0,0,0-.494-7.06" transform="translate(757.333 2952.379)" fill="#93b033"/>
    <path id="Trazado_119649" data-name="Trazado 119649" d="M207.741,195.552a8.627,8.627,0,1,0,0,17.254s-4.955-1.568-5.334-8.628a8.864,8.864,0,0,1,5.334-8.626" transform="translate(760.656 2952.547)" fill="#6d9300"/>
    <path id="Trazado_119650" data-name="Trazado 119650" d="M210.353,198.592a4.5,4.5,0,0,0-4.429,4.563s.777-2.593,4.455-2.846a4.616,4.616,0,0,1,4.536,2.712,4.5,4.5,0,0,0-4.563-4.429" transform="translate(770.427 2956.908)" fill="#6d9300"/>
    <path id="Trazado_119651" data-name="Trazado 119651" d="M121.818,204.478a4.772,4.772,0,0,0-1.139.141c0-.046.007-.09.007-.139A9.726,9.726,0,0,0,101.345,203a4.824,4.824,0,0,0-3.518-.2,6.986,6.986,0,0,0-12.387,4.431c0,.173.012.343.024.519a3.622,3.622,0,0,0-2.347-.857,3.659,3.659,0,0,0-.509,7.282v.222h39.21v-.18a4.868,4.868,0,0,0,0-9.736" transform="translate(588.989 2951.392)" fill="#789c00"/>
    <path id="Trazado_119652" data-name="Trazado 119652" d="M92.81,194.867a9.146,9.146,0,0,1,5.5,8.9c-.39,7.284-5.5,8.9-5.5,8.9a8.9,8.9,0,0,0,0-17.8" transform="translate(608.149 2951.564)" fill="#00744c"/>
    <path id="Trazado_119653" data-name="Trazado 119653" d="M90.339,198a4.637,4.637,0,0,0-4.709,4.567,4.766,4.766,0,0,1,4.679-2.8c3.793.261,4.6,2.936,4.6,2.936A4.637,4.637,0,0,0,90.339,198" transform="translate(597.849 2956.065)" fill="#00744c"/>
    <path id="Trazado_119654" data-name="Trazado 119654" d="M107.291,184.8a18.326,18.326,0,1,0-36.449,2.581,23.261,23.261,0,1,0,36.247,0,18.421,18.421,0,0,0,.2-2.581" transform="translate(569.264 2910.831)" fill="#97c266"/>
    <path id="Trazado_119655" data-name="Trazado 119655" d="M76.234,174.115l-1.005,68.542a1,1,0,0,0,1.005,1.006h.129a1,1,0,0,0,1.006-1.006s-.448-68.542-1.006-68.542c0,0-.129-.555-.129,0" transform="translate(582.926 2921.439)" fill="#624800"/>
    <path id="Trazado_119656" data-name="Trazado 119656" d="M76.278,186.924a30.957,30.957,0,0,1-6.045-6.123c6.824,11.18,13.1,10.854,13.1,10.854l.131-1.575s-1.349,1.049-7.185-3.155" transform="translate(575.76 2931.385)" fill="#624800"/>
    <path id="Trazado_119657" data-name="Trazado 119657" d="M81.773,184.76c-4.957,3.574-6.106,2.683-6.106,2.683l.114,1.337s5.332.28,11.131-9.222a26.236,26.236,0,0,1-5.14,5.2" transform="translate(583.555 2929.6)" fill="#624800"/>
    <path id="Trazado_119658" data-name="Trazado 119658" d="M76.089,181.036a21.271,21.271,0,0,1-4.151-4.2c4.684,7.672,8.989,7.448,8.989,7.448l.088-1.079s-.923.718-4.925-2.167" transform="translate(578.205 2925.694)" fill="#624800"/>
    <path id="Trazado_119669" data-name="Trazado 119669" d="M154.3,103.973a4.914,4.914,0,1,0,4.916,4.916,4.914,4.914,0,0,0-4.916-4.916" transform="translate(689.318 2821.164)" fill="#fff"/>
    <path id="Trazado_119670" data-name="Trazado 119670" d="M136.664,116.57A24.933,24.933,0,1,0,161.6,141.5a24.933,24.933,0,0,0-24.933-24.933" transform="translate(635.294 2839.236)" fill="#fdffb2"/>
    <path id="Trazado_119671" data-name="Trazado 119671" d="M137.017,116.57a24.933,24.933,0,1,0,0,49.866s-13.532-12.468-13.532-24.933,13.532-24.933,13.532-24.933" transform="translate(635.796 2839.236)" fill="#fff566"/>
    <path id="Trazado_119684" data-name="Trazado 119684" d="M990.327,202.4H40.074c-31.7,0-29.031,31.193,0,31.193H990.327c26.36,0,23.687-31.193,0-31.193" transform="translate(499.802 2962.373)" fill="#009969"/>
    <path id="Trazado_119686" data-name="Trazado 119686" d="M1062.629,215.51a21.445,21.445,0,0,0-3.282-.3H23.443c-30.81,0-31.7,31.2,0,31.2H1060.995c19.207,0,20.215-28,1.634-30.9" transform="translate(475 2949.59)" fill="#00744c"/>
    <path id="Trazado_119687" data-name="Trazado 119687" d="M698.107,202.4H220.976v31.193H698.107c26.36,0,23.687-31.193,0-31.193" transform="translate(792.021 2962.373)" fill="#cf9e50"/>
    <path id="Trazado_119689" data-name="Trazado 119689" d="M745.606,215.51a21.446,21.446,0,0,0-3.282-.3H220.977v30.939H627.82a17.934,17.934,0,0,1,2.775.229l.134.029H743.972c19.207,0,20.215-28,1.634-30.9" transform="translate(792.023 2949.59)" fill="#ab6e37"/>
    <path id="Trazado_119690" data-name="Trazado 119690" d="M627.82,227.921H220.977v.258H630.73c-.044-.007-.088-.019-.134-.029a17.93,17.93,0,0,0-2.775-.229" transform="translate(792.023 2998.985)" fill="#ab6e37"/>
    <path id="Trazado_119691" data-name="Trazado 119691" d="M298.739,114.169l-9.722,216.6L325,331.2l-4.594-216.776Z" transform="translate(889.637 2835.792)" fill="#a3a1a1"/>
    <path id="Trazado_119692" data-name="Trazado 119692" d="M289.017,330.769l17.992.214L309.573,114.3l-10.834-.127Z" transform="translate(889.637 2835.791)" fill="#757474"/>
    <path id="Trazado_119693" data-name="Trazado 119693" d="M304.861,135.781l-12.424-.148-.565,12.575,12.838.153,12.84.151-.265-12.585Z" transform="translate(893.731 2866.584)" fill="#edecec"/>
    <path id="Trazado_119694" data-name="Trazado 119694" d="M305.459,147.867l-13.422-.158-.825,18.384,14.031.168,14.031.166-.39-18.4Z" transform="translate(892.784 2883.91)" fill="#edecec"/>
  </g>
</svg>
